<svg width="97" height="78" viewBox="0 0 97 78" fill="none" xmlns="http://www.w3.org/2000/svg">
<g clip-path="url(#clip0_6622_1985)">
<path d="M91.2042 42.626C90.4595 43.2345 89.6842 43.8124 88.9869 44.4682C88.7638 44.6794 88.7387 45.0989 88.6216 45.4212C88.9088 45.5157 89.2073 45.713 89.4806 45.688C91.2153 45.5213 93.0282 45.813 94.6263 44.7849C94.8745 44.6266 95.463 44.6099 95.608 44.7766C95.7893 44.9822 95.7558 45.4685 95.6694 45.7963C94.4534 50.5283 90.8444 53.4874 86.0306 53.7875C85.5258 53.8181 85.0377 54.1209 84.5385 54.296C84.5552 54.4849 84.5719 54.6739 84.5887 54.8628C85.1772 54.9962 85.7601 55.1712 86.3541 55.2518C87.4111 55.3935 88.4849 55.4241 89.5364 55.5964C90.493 55.7547 90.9225 56.4744 90.2476 57.1801C88.5797 58.9279 86.8812 60.6923 84.9596 62.1371C83.7129 63.0735 80.3689 62.0593 79.7498 60.8395C81.2224 60.3005 82.7228 59.8448 84.1369 59.2029C85.4867 58.5917 86.7474 57.7831 87.955 56.8245C86.1477 56.4522 84.3405 56.2799 82.8958 57.3941C81.253 58.6611 79.786 60.1671 78.3274 61.6564C77.3178 62.6873 77.4377 62.9262 78.7485 63.4486C80.3745 64.0988 81.9865 64.7823 83.9779 65.602C82.7898 66.2577 81.8638 66.7718 80.9379 67.283C79.7247 67.9554 78.4892 68.5917 77.301 69.3086C75.8173 70.2033 73.2486 70.2061 71.9239 69.0613C73.4801 68.9196 74.8467 68.7973 76.2133 68.6723C76.1994 68.5362 76.1882 68.4 76.1743 68.2611C75.6527 68.2916 75.1312 68.3667 74.6124 68.3472C72.9084 68.2777 71.2071 68.1027 69.5058 68.1166C68.683 68.1222 67.8659 68.4639 66.7335 68.7223C68.8922 69.442 70.6298 69.9088 72.2557 70.6284C72.847 70.8896 73.1677 71.7537 73.6112 72.3428C73.0869 72.7096 72.6127 73.2264 72.0298 73.4153C68.5938 74.5434 65.2331 74.4045 61.9169 72.8152C61.2783 72.5095 60.3467 72.704 59.5714 72.8124C57.7502 73.068 55.9401 73.4098 54.0994 74.0044C55.9513 74.11 57.8032 74.2017 59.6523 74.3267C60.1905 74.3628 60.8097 74.3434 61.2392 74.6018C62.246 75.2075 63.1608 75.966 64.1732 76.7079C63.3951 77.8138 62.3855 78.2028 60.9826 77.8749C58.2717 77.2414 55.5385 76.7079 52.8164 76.1328C52.6798 76.105 52.5208 76.0216 52.4092 76.0633C49.0903 77.2831 45.5762 75.7993 42.1876 76.8969C40.0568 77.5887 37.7057 77.6526 35.441 77.8638C34.6099 77.9416 33.7425 77.636 32.8946 77.2247C36.0518 74.8713 39.8225 75.0714 43.3366 74.2378C40.7791 73.921 38.4643 72.2983 35.6223 73.7321C32.9365 75.088 29.9299 75.4298 26.9876 74.1211C26.4214 73.8682 25.8524 73.6237 25.3588 73.0847C26.5915 73.0847 27.827 73.0847 29.0598 73.0847C29.0709 72.9624 29.0821 72.8402 29.096 72.7179C27.8438 72.4789 26.5887 72.24 25.3365 72.0038C25.3448 71.9343 25.3532 71.8649 25.3616 71.7954C27.6067 71.6871 29.8491 71.5759 32.0942 71.4675C32.1137 71.587 32.1333 71.7065 32.1528 71.826C31.6368 72.001 31.1208 72.1761 30.6077 72.3511C30.6384 72.4678 30.6662 72.5845 30.6969 72.7012C32.5181 72.2844 34.3394 71.8677 36.1578 71.4509C36.2136 71.3397 36.2693 71.2286 36.3251 71.1174C35.1286 70.3978 33.9377 69.667 32.7273 68.9724C32.5516 68.8724 32.1779 68.8362 32.0663 68.9446C30.5575 70.4034 28.4769 69.9866 26.7087 70.3756C24.7731 70.8007 22.5419 70.5784 20.598 70.0533C18.7154 69.5476 17.0085 68.3417 15.271 67.3664C13.8821 66.5856 13.8876 66.066 15.3045 65.2713C16.5149 64.5934 17.8118 64.0627 19.0696 63.4653C19.9872 63.0318 20.1462 62.4817 19.5214 61.6064C18.9441 60.7951 18.6038 60.6867 17.6751 61.323C15.9682 62.4872 13.9602 62.3761 12.27 61.3091C10.5576 60.231 9.01528 58.8584 7.50364 57.4997C6.57211 56.6606 6.72272 55.8826 7.94709 55.5852C9.64559 55.174 11.4222 55.0907 13.3271 54.8461C12.7944 54.2265 12.0413 53.4791 11.4417 52.6233C10.5687 51.3757 9.5926 52.0065 8.59414 52.3065C7.19127 52.7289 5.07163 52.0954 4.21262 50.8672C3.13049 49.3224 2.15156 47.7024 1.18099 46.0825C1.03317 45.8352 1.05548 45.224 1.22282 45.11C1.5575 44.8822 2.10693 44.7071 2.46671 44.8211C4.7007 45.5268 6.90679 46.3187 9.21887 47.1189C8.53278 45.5074 7.7407 43.8347 5.97806 42.651C6.95421 41.8369 6.41035 41.1895 5.78841 40.5448C4.79552 39.5196 3.81101 38.4915 2.82092 37.4634C2.70099 37.5412 2.58106 37.619 2.46114 37.6968C3.20022 39.4723 3.9393 41.2506 4.67839 43.0261C4.50268 43.1373 4.32418 43.2484 4.14848 43.3568C3.74965 42.9344 3.19743 42.576 2.9771 42.0758C2.1404 40.1725 1.3539 38.2414 0.659444 36.2797C0.246673 35.1128 0.676178 34.6904 1.95354 34.7237C2.81813 34.746 3.6855 34.7265 4.55846 34.7265C4.58635 34.6487 4.66723 34.5181 4.63934 34.4903C2.51134 32.2786 2.30774 29.3389 1.67464 26.5798C1.53798 25.9824 1.68858 24.9626 2.09299 24.6709C2.88785 24.1013 3.23926 25.0015 3.7636 25.5434C4.7007 26.5131 5.86092 27.2633 6.92911 28.108C7.04903 28.0246 7.17175 27.9413 7.29168 27.8579C7.01835 27.0605 6.80639 26.2324 6.46334 25.4656C5.05769 22.3258 4.7509 19.1554 5.99479 15.885C6.50518 14.5458 6.81197 13.1204 7.4116 11.8283C7.70724 11.1948 8.40448 10.5057 9.03759 10.3668C9.40016 10.2862 10.1141 11.1893 10.4572 11.7728C10.9062 12.5369 11.1433 13.4205 11.729 14.204C11.7652 13.9095 11.8573 13.6094 11.8266 13.3204C11.5254 10.5141 12.4374 8.01058 13.8207 5.65713C14.1526 5.09308 14.8387 4.73465 15.3602 4.28174C15.8372 4.85968 16.3392 5.41818 16.7743 6.02668C16.9416 6.26286 16.95 6.61296 17.1173 7.2298C17.5245 6.67131 17.8257 6.35455 18.0154 5.98222C19.686 2.7313 22.6535 1.21142 25.9556 0.133336C26.8593 -0.161192 27.3864 0.313943 27.4338 1.08916C27.4868 1.98942 27.4226 2.95636 27.1382 3.8066C26.2792 6.36289 24.5165 8.2801 22.2574 9.66105C21.4821 10.1362 20.3721 10.0695 19.2899 10.0028C21.2645 7.36317 24.3129 5.76827 25.6461 2.69796C25.4592 2.58681 25.3448 2.48401 25.3114 2.50346C23.3033 3.80383 21.1502 4.94582 19.3652 6.5046C18.5704 7.19924 18.4755 8.72745 18.1604 9.90279C17.9903 10.5307 17.9261 11.2254 18.0014 11.87C18.0405 12.1979 18.4477 12.6786 18.7628 12.7453C19.7083 12.9509 20.6872 13.0398 21.6578 13.0759C22.91 13.1231 23.3033 13.615 22.4945 14.543C21.3203 15.885 19.884 17.0048 18.5648 18.2218C17.9038 18.8303 17.1006 19.3555 16.632 20.089C16.1077 20.9115 15.4718 21.2477 14.5877 21.5561C13.6478 21.884 12.6605 22.4452 12.0246 23.1871C10.552 24.9043 9.73483 26.9549 9.65953 29.4834C10.209 28.9777 10.6189 28.6026 11.0261 28.2275C11.1154 28.2636 11.2018 28.3025 11.2911 28.3386C11.1628 28.911 11.0373 29.4861 10.909 30.0585C11.0289 30.1113 11.1489 30.1669 11.2716 30.2197C11.6592 29.4417 12.0385 28.6581 12.4346 27.8829C13.2294 26.3241 13.9769 24.7403 14.8694 23.2399C15.0785 22.8898 15.7842 22.8342 16.2611 22.6425C16.2695 23.0732 16.3922 23.5428 16.2639 23.9318C15.6698 25.7323 15.1037 27.555 14.3311 29.2805C13.9127 30.2141 13.2462 31.1755 12.429 31.7729C9.90496 33.6179 9.22724 36.1519 9.29138 39.514C10.9648 37.1161 12.4318 35.0155 13.896 32.9149C14.0996 32.9705 14.3032 33.0288 14.5068 33.0844C14.4566 34.1764 14.3925 35.2683 14.359 36.3603C14.3199 37.6357 14.3562 38.9138 14.2697 40.1836C14.1861 41.3756 14.0885 42.5843 13.8123 43.743C13.3828 45.5352 12.772 47.2857 12.284 49.0667C11.9716 50.2087 12.0832 50.4032 13.433 51.4674C14.2446 48.3999 15.5945 45.613 15.0116 42.3509C15.2152 42.3315 15.4216 42.312 15.6252 42.2926C16.0045 43.2262 16.4424 44.1403 16.7519 45.0961C17.2121 46.5243 17.8982 47.7108 18.9664 48.8472C19.6386 49.5641 19.5772 51.0451 19.6692 52.1982C19.7334 52.9901 19.4963 53.807 19.3931 54.61C19.5577 54.6516 19.7222 54.6933 19.8868 54.735C20.1322 53.8848 20.3776 53.0373 20.7318 51.8064C21.616 52.8928 22.3132 53.7486 23.0077 54.6016C20.2521 56.9884 19.6664 60.8312 23.3284 62.8206C23.3284 60.3588 23.3284 57.972 23.3284 55.1296C24.1846 55.6408 24.7647 55.802 25.0297 56.1799C26.1313 57.7664 27.1549 59.4086 28.1757 61.0479C28.9343 62.2677 29.6483 63.5181 30.3818 64.7545C30.5324 64.6962 30.6802 64.635 30.8308 64.5767C30.8308 63.9543 30.7694 63.3263 30.8447 62.7123C30.9758 61.6397 31.5727 61.1757 32.6938 61.4591C34.5736 61.9343 35.9821 63.0707 37.3013 64.435C37.9427 65.0991 38.7934 65.677 39.658 65.991C42.6701 67.0885 45.4507 68.3194 47.1632 71.337C48.2927 73.332 50.0665 72.9735 51.1458 71.0146C52.2865 68.9418 53.8567 67.283 56.4003 66.7051C57.3235 66.4939 58.0709 65.527 58.969 64.9963C59.5658 64.6212 60.2073 64.2988 60.7483 63.8571C62.6755 62.2788 64.7478 61.2146 67.2411 61.6953C68.3958 60.1227 69.4305 58.4777 70.7106 57.0523C71.4274 56.2549 72.5793 55.8575 73.4829 55.2046C74.1272 54.7378 74.6822 54.1432 75.2762 53.6069C75.3989 53.6569 75.5217 53.7069 75.6444 53.757C75.4826 56.3105 75.3181 58.864 75.1563 61.4147C75.3208 61.4536 75.4882 61.4925 75.6527 61.5286C76.7209 60.8506 77.4544 59.8115 77.4293 58.55C77.3987 57.0523 77.1755 55.5047 76.7098 54.0848C76.2831 52.7872 76.2161 51.6925 76.9329 50.5199C77.3903 49.7725 77.7305 48.9528 78.1349 48.172C78.2828 47.8858 78.4306 47.4301 78.6509 47.3801C80.1514 47.055 80.0398 45.7602 80.3913 44.721C80.8961 43.2317 81.4343 41.7508 82.0172 40.2892C82.2097 39.803 82.5778 39.3862 82.9878 38.7443C84.8453 41.948 84.8202 45.3907 85.6346 48.8694C85.972 48.4666 86.237 48.2776 86.3206 48.0275C86.7585 46.7133 87.2159 45.3962 87.5478 44.0542C88.1084 41.7896 87.6259 40.6893 85.5844 39.5251C83.3671 38.2609 82.2376 35.0044 82.9041 32.2814C85.7712 33.8346 86.1366 36.9911 87.9327 39.5529C88.3901 37.6801 88.4905 36.0547 87.8462 34.5181C87.043 32.5981 86.0808 30.7309 83.7994 30.1113C83.6795 30.078 83.5149 29.9613 83.4898 29.8529C82.8818 27.3994 80.7203 25.3933 81.0271 22.7509C81.253 20.7892 80.7203 19.7584 79.1027 18.6247C77.5995 17.5744 76.5843 15.8239 75.3766 14.3624C74.8384 13.7122 75.1117 13.2176 75.8368 13.0064C76.3109 12.8675 76.8353 12.8286 77.3317 12.8481C78.1991 12.8814 79.0637 12.9953 80.0036 12.9425C78.888 11.7589 78.1628 10.1445 76.3862 9.78331C72.7076 9.03587 71.0174 6.25452 69.5476 3.24811C69.2436 2.62849 69.0568 1.94774 68.8448 1.28644C68.5157 0.255593 68.9926 -0.1084 69.9715 0.0194146C73.4438 0.472321 78.7541 4.82356 79.3788 8.13839C79.694 9.81387 80.1402 11.0781 81.9726 11.7311C81.4009 10.4029 80.9128 9.02754 80.2267 7.76051C79.7916 6.95472 80.2657 4.22617 81.161 3.88163C81.4287 3.77882 81.9754 3.97054 82.1846 4.2095C83.0631 5.21534 83.9891 6.2184 84.6612 7.35762C85.4505 8.69411 86.0194 10.164 86.6442 11.5949C86.8227 12.0006 86.8645 12.4646 86.9733 12.9175C87.1462 12.8564 87.2856 12.8425 87.3024 12.7925C87.5562 12.0006 87.743 10.9559 88.7777 11.1142C89.2965 11.1948 89.8487 12.0089 90.1137 12.6091C91.9042 16.6658 92.4927 20.7587 90.3507 24.9182C89.9045 25.7823 89.6702 26.7548 89.3383 27.6773C89.4694 27.7579 89.6033 27.8385 89.7344 27.9163C90.0746 27.5939 90.4037 27.255 90.7579 26.9521C91.8122 26.0518 92.8302 25.1043 93.9513 24.2986C94.657 23.7929 95.2733 24.0679 95.1785 25.0154C94.8661 28.1163 94.5538 31.2089 91.8373 33.4011C91.101 33.9958 90.6408 34.9266 90.0551 35.7018C90.1611 35.8213 90.2643 35.9408 90.3703 36.063C91.5472 35.7324 92.7158 35.3628 93.9067 35.0822C96.5284 34.4598 96.9244 34.9127 96.1602 37.5107C95.5634 39.539 94.5844 41.3006 92.6433 42.4593C93.5079 40.7949 94.3725 39.1306 95.2371 37.4662C95.0418 37.3273 94.8466 37.1883 94.6514 37.0494C92.8887 38.8999 91.1261 40.7505 89.3634 42.6038C89.475 42.7483 89.5893 42.89 89.7009 43.0345C90.1471 42.8316 90.5934 42.6288 91.0396 42.4259C91.0898 42.4954 91.1456 42.5621 91.2042 42.626ZM87.7514 31.3311C88.1893 28.697 87.3721 25.1405 85.7489 22.612C85.417 22.0951 84.7616 21.7339 84.1759 21.4672C84.0727 21.42 83.593 22.1952 83.2165 22.6814C82.7758 22.1535 82.3101 21.595 81.8471 21.0365C81.7244 21.1254 81.5989 21.2143 81.4762 21.3033C83.5205 24.5653 85.562 27.8273 87.7514 31.3311ZM82.6475 54.7461C82.7619 54.6711 82.8762 54.5933 82.9878 54.5183C81.981 52.476 80.9769 50.4338 79.9115 48.2721C77.262 51.5591 79.549 54.8573 79.1529 58.0498C79.3593 58.111 79.5685 58.1721 79.7749 58.2332C80.4303 56.9245 81.0829 55.6158 81.7606 54.2626C81.9865 54.3877 82.3157 54.5655 82.6475 54.7461ZM18.4421 58.5278C18.6457 58.4666 18.8493 58.4083 19.0529 58.3471C17.9289 55.2574 18.576 51.8203 16.8328 48.7583C16.0937 50.042 15.5973 51.3451 15.1817 52.6761C15.112 52.8956 15.3742 53.2457 15.5304 53.5041C16.1412 54.5127 16.791 55.4991 17.3906 56.5133C17.7727 57.1663 18.0907 57.8553 18.4421 58.5278ZM13.4052 38.5526C9.67906 40.606 8.5021 45.5185 10.8783 48.3054C11.7094 45.0934 12.5266 41.9425 13.4052 38.5526ZM17.2177 60.2116C16.0435 57.7859 11.6899 56.1549 9.46988 57.2357C11.2967 59.428 15.614 61.1257 17.2177 60.2116ZM58.8658 66.5939C55.9457 67.647 53.946 69.6476 51.7873 72.026C53.9069 71.5064 55.6445 71.0924 57.3709 70.6451C57.6079 70.584 57.937 70.3895 57.9928 70.1894C58.3052 69.0696 58.5506 67.9304 58.8658 66.5939ZM65.1577 63.0568C64.19 63.6625 63.0632 64.1155 62.3018 64.9157C61.4289 65.8298 60.8543 67.033 60.1961 68.1388C59.867 68.6918 59.6411 69.3058 59.2897 70.0616C62.1177 69.5003 63.0772 68.3945 65.1577 63.0568ZM18.5257 14.5486C15.9236 13.765 12.4206 16.8075 12.7302 19.625C14.8275 18.1996 17.4743 17.9773 19.3373 16.2713C19.262 16.1073 19.1867 15.9434 19.1114 15.7795C17.452 16.4547 15.7925 17.1326 14.1331 17.8078C14.0578 17.6717 13.9853 17.5327 13.91 17.3966C15.4272 16.463 16.9416 15.5266 18.5257 14.5486ZM84.5301 19.3972C84.4966 18.9109 84.5301 18.7136 84.4632 18.5608C84.1536 17.8495 83.9137 17.0659 83.4313 16.4936C83.2639 16.2963 82.4551 16.7186 81.9447 16.7103C81.4483 16.7019 80.9184 16.5797 80.4721 16.3657C79.68 15.9851 78.9605 15.4599 78.1768 15.0654C77.764 14.857 77.2731 14.8014 76.8158 14.6764C78.4641 17.8634 81.8081 17.8162 84.5301 19.3972ZM93.2904 48.2554C91.0285 48.0025 86.8394 50.5144 86.6107 52.2621C88.5407 52.64 92.3756 50.3421 93.2904 48.2554ZM12.7609 14.6625C16.5205 12.7814 17.2735 10.5307 15.2041 7.14644C14.3674 9.7194 13.5864 12.1284 12.7609 14.6625ZM28.8227 66.2216C28.9175 66.0827 29.0124 65.9465 29.1044 65.8076C27.8968 63.5903 26.6863 61.3758 25.4899 59.1779C25.2444 59.2835 25.1636 59.3058 25.1663 59.3196C25.3086 60.9757 25.1022 62.7817 25.7269 64.2349C26.1285 65.1658 27.749 65.577 28.8227 66.2216ZM85.4449 17.1604C85.9776 15.4099 83.3978 7.94389 82.0284 7.06309C81.8164 10.9809 84.4966 13.7817 85.4449 17.1604ZM70.3536 66.1299C71.7007 65.5214 72.9446 65.0491 74.0881 64.3989C74.5288 64.1488 75.1145 63.293 74.989 63.0652C74.5734 62.3066 73.865 61.6064 72.8359 62.1871C71.4414 62.9735 70.1389 63.8626 70.3536 66.1299ZM71.7649 3.44539C71.6561 3.55653 71.5473 3.66768 71.4386 3.77604C73.4132 5.76827 75.3878 7.76051 77.513 9.90557C78.1098 7.74384 75.0085 4.54848 71.7649 3.44539ZM70.6047 63.0679C73.4383 61.1118 74.3168 59.089 73.3825 56.8551C71.7649 57.5969 70.2616 60.8673 70.6047 63.0679ZM71.592 67.1663C71.6254 67.3219 71.6617 67.4775 71.6952 67.6331C74.4702 67.0413 77.2453 66.4522 80.394 65.7826C77.5242 64.3294 74.5567 64.899 71.592 67.1663ZM27.5481 67.2108C24.8094 66.3355 22.6423 68.5139 20.1183 68.1722C22.0482 69.8977 26.1397 69.3197 27.5481 67.2108ZM88.4263 25.4822C90.3368 23.515 91.5667 18.9165 90.5878 17.366C89.3467 19.9251 88.1809 22.373 88.4263 25.4822ZM2.58106 35.6212C4.24051 37.0939 5.62943 38.3248 7.01556 39.5557C7.11876 39.464 7.21916 39.3751 7.32235 39.2834C6.94863 38.2581 8.13395 36.9494 6.54422 36.113C5.4091 35.5156 4.31582 35.1155 2.58106 35.6212ZM82.4635 43.3373C82.1678 46.1937 82.0061 49.0195 83.7882 51.5119C84.4632 48.6083 83.0715 46.0297 82.4635 43.3373ZM88.4012 18.9026C90.2503 16.8826 90.4762 13.915 88.8028 12.8453C88.1223 14.8264 86.9872 16.7242 88.4012 18.9026ZM41.9059 69.0252C42.2155 69.5142 42.447 69.8782 42.6533 70.2089C42.2936 70.5145 42.0091 70.7535 41.4792 71.2036C43.3004 71.7121 44.812 72.1344 46.4464 72.5929C45.7157 70.2478 43.7327 68.6918 41.9059 69.0252ZM89.9575 32.8149C93.0672 29.7973 93.7701 28.5914 93.3907 27.0021C91.4134 27.8301 89.7232 30.6003 89.9575 32.8149ZM87.0151 49.7503C89.2045 48.5471 91.1512 47.4774 93.1007 46.4076C90.4539 45.5268 87.2968 47.3246 87.0151 49.7503ZM7.09366 16.9492C6.94584 16.9381 6.79802 16.9242 6.65021 16.9131C6.65021 17.9329 6.25417 19.2277 6.73109 19.9168C7.76302 21.4033 7.76023 22.8342 7.51201 24.4542C7.43391 24.9682 7.74628 25.5406 7.88015 26.088C9.2105 22.8092 7.75744 19.9279 7.09366 16.9492ZM9.74041 18.997C10.407 16.5297 9.09894 14.6625 8.64992 12.3451C7.40881 14.7375 7.89968 17.7578 9.74041 18.997ZM37.7085 69.7504C37.9065 67.5331 36.2665 64.4656 34.4816 63.8293C35.3378 65.9799 35.2235 68.4278 37.7085 69.7504ZM9.40016 50.6061C8.50768 48.9973 5.70753 47.6941 3.83053 47.9414C4.75648 49.6919 7.14665 50.8672 9.40016 50.6061ZM23.9922 66.0271C22.6423 64.874 19.7027 65.024 17.8369 66.3411C19.2397 67.2441 22.6814 67.0663 23.9922 66.0271ZM5.61828 28.9943C4.71185 30.8032 5.22782 32.7454 6.92353 33.9068C7.39487 31.859 7.11597 29.7446 5.61828 28.9943ZM64.3796 68.2194C67.3164 67.697 68.5324 65.8937 67.5507 63.3986C66.463 65.0491 65.459 66.58 64.3796 68.2194ZM62.7034 71.3481C64.8677 71.6315 66.9064 71.8954 69.2464 72.2011C67.414 70.2366 64.6167 69.7226 62.7034 71.3481ZM34.3115 67.722C34.4565 67.6248 34.5987 67.5275 34.7438 67.4331C34.37 66.4689 34.0493 65.4742 33.5807 64.5545C33.4608 64.3183 32.5795 64.1738 32.546 64.2349C32.3006 64.724 31.8739 65.5159 32.0691 65.7604C32.6827 66.5217 33.5445 67.083 34.3115 67.722ZM40.8126 70.9896C40.093 69.5559 39.4265 68.2222 38.7571 66.8913C38.64 66.944 38.5256 66.9968 38.4085 67.0496C38.6065 67.9693 38.9077 68.8807 38.9802 69.8087C39.0806 71.0869 39.5631 71.4314 40.8126 70.9896ZM3.03846 27.2911C3.24205 28.6609 3.44565 30.028 3.64925 31.3978C4.5473 29.8279 4.30466 27.8246 3.03846 27.2911ZM9.14357 24.0846C9.36948 24.1096 9.59817 24.1318 9.82408 24.1568C9.97469 23.1677 10.1616 22.1813 10.2452 21.1866C10.262 20.9782 9.90217 20.7392 9.71531 20.5169C9.52566 20.7309 9.18261 20.9365 9.16867 21.1588C9.1101 22.1313 9.14357 23.1093 9.14357 24.0846ZM89.5364 39.5668C90.3396 38.6137 91.0675 37.7552 91.7201 36.9799C89.6925 36.9827 89.2407 37.4356 89.5364 39.5668ZM85.5118 10.7114C85.3361 10.7586 85.1576 10.8058 84.9819 10.8531C85.2803 11.9812 85.5816 13.1093 85.88 14.2374C86.0752 14.1846 86.2704 14.1318 86.4657 14.079C86.1505 12.9564 85.8298 11.8339 85.5118 10.7114ZM83.5679 60.5867C83.6321 60.7951 83.6962 61.0007 83.7631 61.2091C84.8146 60.8756 85.8633 60.545 86.9147 60.2116C86.8561 60.0282 86.8004 59.842 86.7418 59.6586C85.6848 59.9671 84.6249 60.2755 83.5679 60.5867Z" fill="#041C33"/>
<path d="M70.072 24.5708C66.7475 27.1271 63.6992 29.6028 60.5086 31.8756C58.7403 33.1343 57.82 34.4931 58.2216 36.7437C58.52 38.4192 58.4782 40.153 58.5702 41.8646C58.6622 43.5679 58.1156 44.0152 56.5119 43.3039C54.8636 42.5731 53.3074 41.6312 51.7176 40.7671C51.1877 40.4781 50.6606 40.178 50.1753 39.8251C48.9816 38.9554 47.9162 38.9749 46.6249 39.8196C44.5388 41.1866 42.3243 42.3675 40.1154 43.5401C39.6469 43.7901 38.9245 43.8207 38.4281 43.6484C38.1827 43.5623 38.0655 42.7704 38.0962 42.3119C38.2691 39.8223 38.495 37.3328 38.7293 34.8487C38.8353 33.7234 38.3835 32.9926 37.477 32.2841C34.4147 29.8945 31.4389 27.3938 28.2427 24.7847C28.8339 24.6041 29.3136 24.3791 29.8129 24.3207C32.9031 23.9595 35.9933 23.5899 39.0919 23.3204C40.5226 23.1954 41.549 22.6119 42.2267 21.3643C43.9893 18.1106 45.7548 14.8569 47.5397 11.6143C47.7461 11.2364 48.0836 10.9308 48.3597 10.5918C48.6665 10.9086 49.0737 11.1725 49.2661 11.5476C50.9284 14.8013 52.5767 18.0661 54.172 21.3532C54.6433 22.3257 55.2597 22.8592 56.3725 22.962C60.1627 23.3093 63.9446 23.7094 67.7293 24.1151C68.4405 24.1873 69.1433 24.3846 70.072 24.5708ZM62.9545 26.7158C62.9433 26.588 62.9322 26.4602 62.9183 26.3352C62.472 26.2546 62.0258 26.124 61.5767 26.1018C59.3037 25.9823 57.0195 25.9767 54.7604 25.7433C54.0437 25.6711 53.101 25.1876 52.7579 24.6041C51.7093 22.8147 50.8921 20.8892 50.0024 19.0081C49.5785 18.1106 49.1908 17.1937 48.6498 15.9739C48.1812 16.7297 47.8884 17.1325 47.668 17.5688C46.7142 19.4721 45.7827 21.3865 44.8456 23.301C44.0758 24.8764 42.6925 25.5683 41.0581 25.7683C39.6776 25.9351 38.2775 25.9101 36.8886 26.024C36.3363 26.0684 35.7953 26.2574 35.2486 26.3824C35.2207 26.513 35.1929 26.6436 35.1678 26.7742C36.3587 27.6244 37.5133 28.533 38.746 29.3166C40.9465 30.7114 41.9478 32.5897 41.4039 35.1905C41.1669 36.3241 40.9298 37.455 40.7123 38.5914C40.6425 38.9527 40.6425 39.3278 40.5812 40.0113C42.7678 38.7554 44.6754 37.7134 46.5273 36.5825C48.2286 35.5434 48.7753 35.5295 50.4487 36.6131C52.1025 37.6829 53.7899 38.697 55.6947 39.8807C55.6083 38.133 55.6362 36.6992 55.4437 35.2933C55.0059 32.1035 56.6848 30.2752 59.2814 28.9109C60.542 28.2441 61.7329 27.4494 62.9545 26.7158Z" fill="#041C33"/>
<path d="M57.3177 58.6776C56.4252 59.6278 54.763 59.2083 53.229 59.2889C52.9362 59.3055 52.6238 58.9054 52.3198 58.6998C52.6294 58.3942 52.8944 58.0052 53.2625 57.8134C53.4996 57.6912 53.89 57.8912 54.2108 57.8857C55.106 57.8718 55.6304 57.4717 55.4853 56.5047C55.3542 55.6434 54.9415 55.1349 53.9653 55.3989C53.6725 55.4767 53.3713 55.5211 53.0561 55.5822C53.0115 54.1235 55.1283 52.3619 56.3081 52.787C57.3874 53.1732 57.142 54.1513 57.1225 54.9265C57.089 56.2963 58.0373 56.8132 59.0329 57.1605C60.1485 57.5495 61.3366 57.6412 62.3295 56.4436C61.6797 56.3769 61.0075 56.3936 60.3912 56.2158C59.9645 56.0935 59.6158 55.6989 59.2337 55.4266C59.5489 55.0738 59.7999 54.5792 60.1959 54.4041C60.7286 54.1707 61.4538 54.3291 61.9391 54.0485C62.4495 53.7539 63.0714 53.1677 63.116 52.662C63.1969 51.7617 62.416 51.4172 61.5765 51.5394C60.988 51.6256 60.433 51.934 59.8473 52.0173C59.4792 52.0701 58.8572 52.009 58.7401 51.7951C58.5616 51.4561 58.5532 50.842 58.754 50.5197C59.627 49.1137 61.0522 48.9609 62.5499 49.0582C63.9081 49.1471 64.4659 50.064 64.7448 51.2116C65.311 53.5205 64.6416 55.7128 63.8356 57.8162C63.6208 58.3747 62.6447 58.9332 61.9837 58.9749C60.5641 59.0582 59.1222 58.8137 57.3177 58.6776Z" fill="#041C33"/>
<path d="M43.3477 55.0295C43.674 53.6986 43.858 52.3121 44.3656 51.0534C44.9206 49.6752 45.9358 48.6583 47.6343 48.7C49.4221 48.7416 50.6967 49.7808 50.9923 51.3146C51.3576 53.2151 51.3549 55.2602 51.0843 57.1829C50.8612 58.7556 48.6495 59.5947 46.5801 59.2724C44.7617 58.989 43.7716 57.9498 43.6433 56.191C43.6154 55.8242 43.5847 55.4547 43.554 55.0879C43.4871 55.0684 43.4174 55.049 43.3477 55.0295ZM48.9396 53.9487C48.9061 53.9487 48.8754 53.9487 48.842 53.9487C48.842 53.1651 48.9452 52.3621 48.8169 51.6008C48.6384 50.5477 47.7375 50.1476 46.9957 50.6783C45.3836 51.8314 45.1633 55.6853 46.6945 56.9829C47.0263 57.2663 47.6539 57.433 48.0583 57.3302C48.3818 57.2468 48.7193 56.6939 48.7946 56.2994C48.9396 55.5325 48.9005 54.7322 48.9396 53.9487Z" fill="#041C33"/>
<path d="M36.5701 51.6061C36.188 49.9057 36.5561 49.2971 37.9562 49.0721C40.3826 48.6775 42.0532 49.9446 41.9389 52.3841C41.8747 53.7623 41.2918 55.1183 40.9014 56.4742C40.7842 56.8854 40.5304 57.255 40.2069 57.9079C41.4369 57.6884 42.3489 57.5245 43.3139 57.3522C43.4924 58.5276 42.7895 59.0999 42.0588 59.1472C40.1874 59.2667 38.2909 59.2611 36.4278 59.0777C35.5075 58.9888 35.5437 58.2608 36.2382 57.7107C36.8183 57.2522 37.4653 56.8771 38.0231 56.3992C39.1164 55.46 39.4957 54.1958 39.5069 52.8009C39.5208 51.2533 38.8598 50.7809 37.4207 51.2949C37.1753 51.3866 36.9243 51.4783 36.5701 51.6061Z" fill="#041C33"/>
<path d="M52.5319 52.6566C51.6199 50.5337 52.4454 49.2195 54.4982 49.2445C55.1787 49.2528 55.9233 49.2334 56.5174 49.4973C56.8827 49.6585 57.2063 50.342 57.1867 50.7755C57.1756 51.0478 56.4449 51.5563 56.1186 51.5007C54.7157 51.2562 53.4802 51.409 52.5319 52.6566Z" fill="#041C33"/>
<path d="M87.751 31.331C85.5588 27.8272 83.5201 24.5652 81.4785 21.3031C81.6012 21.2142 81.7267 21.1253 81.8494 21.0364C82.3152 21.5949 82.781 22.1534 83.2188 22.6813C83.5926 22.1978 84.0751 21.4198 84.1783 21.4671C84.7612 21.7338 85.4194 22.0922 85.7513 22.6118C87.3717 25.1403 88.1916 28.6969 87.751 31.331Z" fill="white"/>
<path d="M82.6471 54.746C82.318 54.5654 81.9861 54.3848 81.763 54.2626C81.0852 55.6157 80.4326 56.9244 79.7772 58.2331C79.5708 58.172 79.3616 58.1109 79.1553 58.0498C79.5485 54.8572 77.2615 51.559 79.9139 48.272C80.9793 50.4309 81.9833 52.476 82.9901 54.5182C82.873 54.5932 82.7614 54.671 82.6471 54.746Z" fill="white"/>
<path d="M18.4417 58.5278C18.093 57.8553 17.7723 57.1663 17.3874 56.5133C16.7878 55.4991 16.1408 54.5127 15.5272 53.5041C15.371 53.2457 15.1088 52.8956 15.1785 52.6761C15.5941 51.3479 16.0905 50.042 16.8296 48.7583C18.5728 51.8203 17.9285 55.2574 19.0497 58.3471C18.8489 58.4055 18.6453 58.4666 18.4417 58.5278Z" fill="white"/>
<path d="M13.4051 38.5525C12.5266 41.9396 11.7122 45.0932 10.8783 48.3053C8.49926 45.5184 9.67622 40.6059 13.4051 38.5525Z" fill="white"/>
<path d="M17.2176 60.2116C15.6139 61.1285 11.2965 59.428 9.46973 57.2357C11.6898 56.1548 16.0434 57.7831 17.2176 60.2116Z" fill="white"/>
<path d="M58.8654 66.5938C58.5503 67.9302 58.3049 69.0722 57.9897 70.192C57.9339 70.3893 57.6048 70.5838 57.3677 70.6477C55.6414 71.095 53.9038 71.509 51.7842 72.0286C53.9484 69.6474 55.9481 67.6468 58.8654 66.5938Z" fill="white"/>
<path d="M65.1576 63.0566C63.077 68.3915 62.1176 69.5001 59.2896 70.0614C59.641 69.3056 59.8669 68.6916 60.196 68.1386C60.8542 67.0328 61.4259 65.8269 62.3017 64.9155C63.0631 64.1181 64.1898 63.6651 65.1576 63.0566Z" fill="white"/>
<path d="M18.5253 14.5485C16.9412 15.5265 15.4267 16.4601 13.9123 17.3937C13.9876 17.5299 14.0601 17.6688 14.1354 17.8049C15.7949 17.1297 17.4543 16.4518 19.1138 15.7766C19.1891 15.9405 19.2644 16.1045 19.3397 16.2684C17.4767 17.9744 14.8271 18.1939 12.7326 19.6221C12.423 16.8074 15.9232 13.7677 18.5253 14.5485Z" fill="white"/>
<path d="M84.5301 19.3971C81.8081 17.8188 78.4641 17.8633 76.813 14.6763C77.2676 14.8013 77.7585 14.8597 78.174 15.0653C78.9605 15.4598 79.6801 15.985 80.4694 16.3656C80.9156 16.5796 81.4455 16.7018 81.942 16.7102C82.4551 16.7185 83.2611 16.299 83.4285 16.4935C83.9138 17.0658 84.1508 17.8494 84.4604 18.5607C84.5301 18.7135 84.4967 18.9108 84.5301 19.3971Z" fill="white"/>
<path d="M93.29 48.2552C92.3724 50.342 88.5403 52.6426 86.6104 52.2619C86.8418 50.5142 91.0281 48.0024 93.29 48.2552Z" fill="white"/>
<path d="M12.7607 14.6624C13.5835 12.1255 14.3672 9.71651 15.2039 7.14355C17.2733 10.5306 16.5203 12.7813 12.7607 14.6624Z" fill="white"/>
<path d="M28.8225 66.2216C27.7488 65.5769 26.1284 65.1685 25.7295 64.2377C25.1048 62.7845 25.3084 60.9812 25.1689 59.3224C25.1689 59.3085 25.2498 59.2862 25.4925 59.1807C26.6889 61.3757 27.8994 63.593 29.107 65.8103C29.0094 65.9465 28.9146 66.0826 28.8225 66.2216Z" fill="white"/>
<path d="M85.4448 17.1603C84.4966 13.7816 81.8135 10.9808 82.0283 7.06299C83.3977 7.94379 85.9775 15.4098 85.4448 17.1603Z" fill="white"/>
<path d="M70.3534 66.1297C70.1387 63.8596 71.4411 62.9705 72.8356 62.1842C73.8647 61.6034 74.5732 62.3036 74.9887 63.0622C75.1142 63.29 74.5285 64.1458 74.0879 64.3959C72.9444 65.0489 71.7005 65.524 70.3534 66.1297Z" fill="white"/>
<path d="M71.7644 3.44531C75.008 4.5484 78.1094 7.74098 77.5154 9.90827C75.3873 7.76321 73.4127 5.77098 71.4409 3.77874C71.5469 3.6676 71.6557 3.55646 71.7644 3.44531Z" fill="white"/>
<path d="M70.6045 63.0679C70.2615 60.87 71.762 57.5969 73.3824 56.855C74.3167 59.0862 73.4382 61.1117 70.6045 63.0679Z" fill="white"/>
<path d="M71.5918 67.1661C74.5565 64.8988 77.524 64.3292 80.3939 65.7824C77.2451 66.452 74.47 67.0439 71.695 67.6329C71.6615 67.4773 71.6281 67.3217 71.5918 67.1661Z" fill="white"/>
<path d="M27.548 67.2107C26.1396 69.3196 22.0481 69.8976 20.1182 68.1721C22.6422 68.511 24.8093 66.3354 27.548 67.2107Z" fill="white"/>
<path d="M88.4259 25.4822C88.1832 22.3757 89.3462 19.925 90.5873 17.366C91.5663 18.9136 90.3363 23.5149 88.4259 25.4822Z" fill="white"/>
<path d="M2.58105 35.6211C4.31581 35.1154 5.4091 35.5155 6.54701 36.1129C8.13673 36.9492 6.95141 38.2579 7.32514 39.2832C7.22194 39.3749 7.12154 39.4638 7.01835 39.5555C5.62943 38.3246 4.24051 37.0937 2.58105 35.6211Z" fill="white"/>
<path d="M82.4633 43.3372C83.0685 46.0268 84.4602 48.6081 83.7881 51.5117C82.0059 49.0221 82.1677 46.1935 82.4633 43.3372Z" fill="white"/>
<path d="M88.4008 18.9025C86.9868 16.7213 88.1219 14.8236 88.8024 12.8452C90.473 13.915 90.2499 16.8825 88.4008 18.9025Z" fill="white"/>
<path d="M41.9057 69.0251C43.7325 68.6917 45.7183 70.2477 46.4462 72.59C44.8146 72.1344 43.303 71.712 41.479 71.2008C42.0117 70.7506 42.2934 70.5117 42.6532 70.206C42.4468 69.8809 42.2153 69.5142 41.9057 69.0251Z" fill="white"/>
<path d="M89.9573 32.8147C89.723 30.6002 91.4132 27.8327 93.3906 27.002C93.7727 28.5885 93.0698 29.7972 89.9573 32.8147Z" fill="white"/>
<path d="M87.0151 49.7501C87.2968 47.3244 90.454 45.5267 93.1007 46.4075C91.154 47.4773 89.2045 48.547 87.0151 49.7501Z" fill="white"/>
<path d="M7.0936 16.9492C7.75738 19.9251 9.21323 22.8064 7.8801 26.0879C7.74622 25.5433 7.43386 24.9682 7.51195 24.4541C7.76017 22.8342 7.76017 21.4033 6.73103 19.9167C6.25132 19.2249 6.65015 17.9328 6.65015 16.9131C6.79796 16.9242 6.94578 16.9381 7.0936 16.9492Z" fill="white"/>
<path d="M9.74009 18.9969C7.89657 17.7576 7.40571 14.7373 8.6496 12.345C9.10141 14.6623 10.4095 16.5323 9.74009 18.9969Z" fill="white"/>
<path d="M37.7083 69.7502C35.2233 68.4249 35.3377 65.9797 34.4814 63.8291C36.2664 64.4654 37.9063 67.5357 37.7083 69.7502Z" fill="white"/>
<path d="M9.3997 50.6059C7.14898 50.8671 4.75602 49.6918 3.83008 47.9413C5.70707 47.6968 8.50722 48.9971 9.3997 50.6059Z" fill="white"/>
<path d="M23.9922 66.027C22.6814 67.0662 19.2398 67.2412 17.8369 66.341C19.7028 65.0239 22.6424 64.8739 23.9922 66.027Z" fill="white"/>
<path d="M5.61827 28.9944C7.11596 29.7418 7.39486 31.8591 6.92352 33.9069C5.2306 32.7455 4.71464 30.8032 5.61827 28.9944Z" fill="white"/>
<path d="M64.3794 68.2193C65.4587 66.5799 66.4656 65.0489 67.5505 63.3984C68.5322 65.8964 67.3162 67.6969 64.3794 68.2193Z" fill="white"/>
<path d="M62.7031 71.3481C64.6136 69.7226 67.411 70.2366 69.2461 72.2011C66.9089 71.8954 64.8674 71.6287 62.7031 71.3481Z" fill="white"/>
<path d="M34.3115 67.7219C33.5445 67.0829 32.6827 66.5244 32.0719 65.763C31.8739 65.5185 32.3006 64.7266 32.5488 64.2376C32.5795 64.1737 33.4636 64.321 33.5835 64.5571C34.0521 65.4769 34.3728 66.4688 34.7465 67.4357C34.5987 67.5274 34.4537 67.6247 34.3115 67.7219Z" fill="white"/>
<path d="M40.8125 70.9895C39.563 71.4313 39.0805 71.0868 38.9829 69.8086C38.9104 68.8806 38.6092 67.9692 38.4111 67.0495C38.5283 66.9967 38.6426 66.9439 38.7598 66.8911C39.4235 68.222 40.0929 69.553 40.8125 70.9895Z" fill="white"/>
<path d="M3.03809 27.291C4.30708 27.8245 4.54972 29.8278 3.64888 31.3977C3.44528 30.0279 3.24168 28.6609 3.03809 27.291Z" fill="white"/>
<path d="M9.14331 24.0845C9.14331 23.1093 9.10984 22.1312 9.16841 21.1587C9.18235 20.9336 9.52261 20.7308 9.71505 20.5168C9.90192 20.7419 10.2617 20.9809 10.245 21.1865C10.1613 22.1812 9.97443 23.1676 9.82382 24.1568C9.59792 24.1345 9.36922 24.1095 9.14331 24.0845Z" fill="white"/>
<path d="M89.5362 39.5668C89.2434 37.4357 89.6924 36.9828 91.72 36.98C91.0646 37.7552 90.3395 38.6138 89.5362 39.5668Z" fill="white"/>
<path d="M85.5115 10.7112C85.8294 11.8337 86.1474 12.9563 86.4681 14.0788C86.2729 14.1316 86.0777 14.1844 85.8824 14.2372C85.584 13.1091 85.2828 11.981 84.9844 10.8529C85.1601 10.8057 85.3358 10.7584 85.5115 10.7112Z" fill="white"/>
<path d="M83.5679 60.5865C84.6249 60.2781 85.6819 59.9669 86.7417 59.6584C86.8003 59.8418 86.8561 60.028 86.9147 60.2114C85.8632 60.5448 84.8146 60.8755 83.7631 61.2089C83.699 61.0005 83.632 60.7921 83.5679 60.5865Z" fill="white"/>
<path d="M62.9541 26.7159C61.7325 27.4495 60.5416 28.2469 59.2782 28.9082C56.6816 30.2697 55.0027 32.098 55.4405 35.2906C55.633 36.6938 55.6051 38.1303 55.6916 39.878C53.7867 38.6943 52.0965 37.6829 50.4455 36.6104C48.7721 35.5268 48.2226 35.5407 46.5241 36.5798C44.6722 37.7107 42.7646 38.7527 40.578 40.0086C40.6393 39.3251 40.6393 38.95 40.7091 38.5887C40.9266 37.4523 41.1637 36.3214 41.4007 35.1878C41.9446 32.587 40.9433 30.7059 38.7428 29.3139C37.5073 28.5303 36.3527 27.6245 35.1646 26.7715C35.1924 26.6409 35.2203 26.5103 35.2454 26.3797C35.7921 26.2547 36.3331 26.0657 36.8854 26.0213C38.2743 25.9074 39.6744 25.9324 41.0549 25.7656C42.6893 25.5684 44.0726 24.8737 44.8424 23.2983C45.7795 21.3866 46.7138 19.4722 47.6648 17.5661C47.8852 17.1271 48.178 16.727 48.6466 15.9712C49.1904 17.191 49.5753 18.1079 49.9992 19.0054C50.8889 20.8865 51.7061 22.812 52.7547 24.6014C53.0978 25.1849 54.0405 25.6684 54.7572 25.7406C57.0163 25.974 59.3005 25.9796 61.5735 26.0991C62.0254 26.1213 62.4688 26.2519 62.9151 26.3325C62.9318 26.4603 62.9429 26.5881 62.9541 26.7159Z" fill="white"/>
<path d="M48.9395 53.9486C48.9005 54.7322 48.9395 55.5324 48.7945 56.2965C48.7192 56.6883 48.3817 57.244 48.0582 57.3274C47.651 57.433 47.0263 57.2635 46.6944 56.98C45.1632 55.6825 45.3836 51.8286 46.9956 50.6755C47.7375 50.1448 48.6411 50.5449 48.8168 51.598C48.9451 52.3621 48.8419 53.1623 48.8419 53.9458C48.8754 53.9458 48.9061 53.9486 48.9395 53.9486Z" fill="white"/>
</g>
<defs>
<clipPath id="clip0_6622_1985">
<rect width="96" height="78" fill="white" transform="translate(0.5)"/>
</clipPath>
</defs>
</svg>
