<svg width="97" height="78" viewBox="0 0 97 78" fill="none" xmlns="http://www.w3.org/2000/svg">
<g clip-path="url(#clip0_6622_2035)">
<path d="M20.0771 5.2043C21.7459 3.70508 23.4265 2.13663 25.1834 0.658893C25.6238 0.288863 26.3046 0.026261 26.8783 0.0238737C40.6045 -0.00477382 54.3331 -0.0167103 68.0593 0.0310356C71.6467 0.042972 71.1825 -0.19337 71.1325 3.19659C71.1159 4.25654 71.1302 5.3165 71.1302 6.67248C71.8991 5.99927 72.5109 5.42154 73.1655 4.89872C74.1558 4.10614 75.1461 3.30879 76.1912 2.59737C77.091 1.98384 78.029 2.10082 78.786 2.88862C80.9237 5.11358 83.2804 7.17381 84.3898 10.2033C84.485 10.4635 84.8706 10.6258 85.1301 10.8192C85.9276 11.4113 87.0084 11.8314 87.4797 12.6192C88.7414 14.7224 89.7412 16.9832 90.8458 19.1795C90.9529 19.392 91.0267 19.6426 91.191 19.7978C93.562 22.0156 93.6548 25.0546 94.1571 27.9528C94.219 28.3037 94.419 28.7024 94.6832 28.9292C95.4307 29.569 95.8402 30.3091 95.7878 31.3117C95.6973 33.0473 95.6212 34.7852 95.5831 36.5208C95.5735 36.9171 95.6235 37.4495 95.8663 37.6906C96.5686 38.3877 96.5972 39.1898 96.371 40.0134C95.933 41.6224 95.3902 43.2004 94.9427 44.8071C94.838 45.1795 94.8975 45.6116 94.9403 46.0079C95.0141 46.6859 95.3974 47.4618 95.1831 48.0156C94.607 49.5172 93.85 50.9615 93.0359 52.3533C92.6621 52.9907 92.4622 53.4586 92.5574 54.2727C92.7859 56.2136 92.2789 58.0542 90.9981 59.6155C90.1435 60.6563 89.2889 61.6996 88.4652 62.7667C88.2867 62.9983 88.2462 63.3349 88.1153 63.6118C87.913 64.0391 87.7582 64.5166 87.4583 64.8651C87.0512 65.3402 86.4846 65.6768 86.0609 66.1399C84.654 67.6773 83.3042 69.2673 81.8854 70.7928C81.4355 71.2774 80.8999 71.793 80.3 72.0055C78.8431 72.5212 77.898 73.6647 76.8482 74.6506C73.3512 77.9308 67.3142 78.8785 63.0959 76.6321C61.4414 75.7512 59.8464 74.7413 58.8918 72.9915C58.7585 72.748 58.3062 72.5832 57.9848 72.5546C57.1183 72.4782 56.2423 72.4734 55.371 72.4758C50.5314 72.5021 45.6917 72.5546 40.8521 72.5594C39.9784 72.5594 39.2928 72.6334 39.0762 73.6718C39.0119 73.9798 38.712 74.2973 38.4406 74.4978C34.5651 77.3459 30.4563 79.0074 25.5476 77.3363C24.0574 76.8302 22.4172 76.7395 21.2341 75.5411C19.9319 74.2209 18.4584 73.2756 16.7825 72.4042C15.1542 71.5591 14.0734 69.666 12.7189 68.2646C12.0404 67.5628 11.3548 66.8275 10.5454 66.2975C9.48373 65.6004 8.73148 64.8651 8.70053 63.4733C8.6672 62.0935 7.96732 61.0311 6.82229 60.1932C5.09401 58.9255 4.36319 57.0372 3.94421 55.0056C3.92041 54.891 3.87994 54.7358 3.93231 54.6547C4.76312 53.3512 3.64903 52.6828 3.12769 51.7231C2.40162 50.3886 2.00407 48.875 1.47798 47.4331C1.4256 47.2899 1.39228 47.075 1.46131 46.9652C2.63254 45.1079 1.3042 43.4607 1.02329 41.7323C0.889983 40.9086 0.640026 40.1041 0.52338 39.2805C0.471008 38.9105 0.471008 38.3232 0.690017 38.1609C1.63271 37.4614 1.32086 36.6903 1.18517 35.7521C0.961399 34.1908 1.02805 32.5842 1.00425 30.9966C0.999487 30.691 1.03758 30.2494 1.23278 30.0942C3.25386 28.4923 2.60873 25.9021 3.55381 23.892C4.27987 22.3474 4.26321 20.4328 6.07004 19.4875C6.29381 19.3705 6.30095 18.8524 6.4295 18.5278C6.97464 17.1503 7.48408 15.7561 8.09349 14.4049C8.50057 13.5025 9.03143 12.655 9.548 11.8052C9.9027 11.2227 10.1479 10.4325 11.1477 10.7595C11.2691 10.8001 11.5715 10.4826 11.7 10.2749C13.0069 8.19319 14.3067 6.11147 15.5708 4.00827C16.0945 3.1369 16.8325 3.01515 17.6014 3.44964C18.4774 3.94858 19.2582 4.61464 20.0771 5.2043ZM61.5961 23.9732C61.5533 23.9732 61.508 23.9732 61.4652 23.9732C61.4652 17.3723 61.458 10.7715 61.4723 4.1706C61.4747 3.37563 61.4485 2.81701 60.3677 2.82178C51.8811 2.86236 43.3969 2.85998 34.9103 2.84088C33.9842 2.83849 33.6319 3.14645 33.6676 4.08466C33.7414 5.9921 33.7581 7.89955 33.7652 9.80938C33.8009 20.6644 33.8438 31.5218 33.8319 42.3768C33.8295 43.58 34.1533 44.5421 34.9293 45.4087C37.5788 48.3642 40.2284 51.322 42.8684 54.2894C43.3945 54.8791 43.9397 54.9435 44.749 54.8815C46.8201 54.7215 48.9435 54.5998 50.9837 54.8934C52.1668 55.0629 52.9714 54.9483 53.6975 54.1223C56.1328 51.3483 58.58 48.5862 60.9367 45.7453C61.3676 45.2249 61.5652 44.3631 61.5699 43.6588C61.6152 37.0961 61.5961 30.5335 61.5961 23.9732ZM70.4684 21.3042C70.4684 21.8437 70.4612 22.3833 70.4684 22.9228C70.5446 28.6021 70.6493 34.2839 70.666 39.9633C70.6683 40.5434 70.2684 41.2429 69.8471 41.6893C65.9715 45.7739 62.0913 49.8562 58.1205 53.8478C56.516 55.4616 54.633 56.7961 52.9905 58.3717C52.5667 58.7775 52.4882 59.6179 52.4096 60.2767C52.3834 60.494 52.8476 60.9619 53.119 60.9882C55.1163 61.1696 55.8566 62.4277 56.1637 64.2206C56.3803 65.4834 56.7708 66.7153 57.1731 68.31C57.5873 67.7036 57.8253 67.4482 57.9586 67.145C58.918 64.9702 60.2535 63.0746 62.0103 61.4704C62.7126 60.8282 63.3982 60.1622 64.0409 59.4627C65.5597 57.8131 65.8668 57.72 67.6141 58.4791C68.8948 57.1351 70.2399 55.8913 71.3825 54.4804C72.5704 53.0122 73.7416 51.4748 74.5891 49.7989C75.5318 47.9321 76.1436 45.8909 76.8149 43.8951C77.1672 42.8471 77.4434 41.7514 77.5719 40.6556C78.4575 33.0807 75.339 26.9048 70.4684 21.3042ZM39.688 67.1569C39.7808 67.1307 39.8713 67.1044 39.9641 67.0781C40.0213 66.6174 40.1141 66.1566 40.1284 65.6935C40.207 63.2155 41.4758 61.6208 43.7278 60.7327C44.242 60.5298 44.78 60.3937 44.6038 59.582C44.4419 58.8324 44.3086 58.3239 43.3445 58.1759C42.6399 58.0685 41.9067 57.5266 41.3758 56.9871C36.3053 51.8472 31.2871 46.6501 26.2165 41.5102C25.4262 40.7081 25.0953 39.8654 25.1143 38.7553C25.212 33.2717 25.2643 27.7857 25.3238 22.2997C25.3262 22.0466 25.2596 21.7912 25.2024 21.3543C24.9501 21.6169 24.793 21.7291 24.7097 21.8795C23.8693 23.4098 22.9933 24.9257 22.2172 26.4894C21.0746 28.7931 19.6772 31.0181 19.4772 33.6728C19.3939 34.7709 19.5415 35.8834 19.5153 36.9887C19.3725 43.549 21.1936 49.3788 25.7928 54.1987C26.9164 55.3756 28.0162 56.5764 29.1327 57.7605C29.3208 57.9611 29.5874 58.3192 29.7421 58.281C31.2609 57.9229 31.8798 59.2598 32.8083 59.9258C34.965 61.4752 37.1146 63.0627 38.5739 65.3688C38.9453 65.968 39.3143 66.5625 39.688 67.1569ZM63.7743 43.1431C64.7908 42.2837 65.5454 41.515 66.4238 40.9349C67.4094 40.2856 67.6855 39.4596 67.6903 38.328C67.7331 27.4777 67.8212 16.6275 67.8926 5.77725C67.9117 2.84804 67.9069 2.90056 65.0193 2.81701C63.8552 2.78358 63.5482 3.16794 63.5553 4.29951C63.622 16.8996 63.641 29.4974 63.6767 42.0975C63.6791 42.3625 63.7267 42.6275 63.7743 43.1431ZM31.6227 42.353C31.6537 41.7991 31.687 41.5007 31.6846 41.2023C31.6204 29.187 31.5537 17.1718 31.487 5.15655C31.4847 4.60031 31.5799 4.01543 31.4394 3.495C31.3466 3.156 30.949 2.80507 30.6063 2.66183C30.2682 2.52098 29.8254 2.63318 29.4303 2.64273C27.6925 2.67616 27.6758 2.67854 27.6901 4.46901C27.7853 15.25 27.9948 26.0334 27.9186 36.812C27.8948 39.7126 29.7659 40.7344 31.6227 42.353ZM48.127 69.7567C48.127 69.7734 48.127 69.7925 48.127 69.8092C48.9983 69.8092 49.872 69.8188 50.7432 69.8068C54.4307 69.7591 54.6426 69.4798 53.7975 65.7723C53.438 64.1991 52.7738 63.416 51.167 63.3062C49.1221 63.1654 47.0605 63.2513 45.0061 63.2967C43.7373 63.3253 43.0684 64.1203 42.8851 65.3187C42.7113 66.4574 42.6304 67.6105 42.4637 68.7516C42.3542 69.4965 42.6565 69.771 43.3683 69.7638C44.9561 69.7448 46.5416 69.7567 48.127 69.7567ZM35.1245 72.6692C31.4585 69.9119 25.7452 69.8522 22.6148 72.5379C26.4332 75.8276 30.5205 75.9493 35.1245 72.6692ZM71.123 68.7134C73.3512 71.0578 79.124 70.7689 81.376 67.336C77.6124 64.3781 75.7222 64.6073 71.123 68.7134ZM15.3851 67.2309C17.5895 70.4585 22.8005 71.0148 25.4214 68.3028C22.741 64.9009 18.9511 64.4139 15.3851 67.2309ZM73.106 57.1398C70.078 58.7274 67.8593 63.8792 68.5449 67.5699C69.9304 66.5577 71.342 65.672 72.5609 64.5715C73.1489 64.0391 73.7059 63.1057 73.7035 62.3561C73.694 60.6444 73.3322 58.9327 73.106 57.1398ZM15.7088 58.9255C15.7898 58.8468 15.8683 58.7704 15.9493 58.6916C14.7423 57.1685 13.8068 55.2205 12.2594 54.2393C10.5526 53.1578 8.30298 53.7785 6.10098 54.1056C6.78182 55.187 7.27697 56.1372 7.934 56.9584C8.33155 57.4573 8.9362 57.9993 9.52182 58.1043C11.5643 58.4767 13.6425 58.6677 15.7088 58.9255ZM89.7531 21.9416C88.6985 23.2188 87.7059 24.3432 86.8036 25.5369C85.9062 26.721 85.5562 28.0841 85.761 29.5809C85.9847 31.2138 86.4704 31.4645 87.9653 30.6719C91.0434 29.0438 91.8837 25.3626 89.7531 21.9416ZM90.184 53.8955C85.7562 52.7687 82.3116 55.2515 81.1261 58.6486C86.4561 59.2168 89.2389 57.7772 90.184 53.8955ZM86.487 44.3272C86.4132 46.058 86.8179 46.3469 88.3486 45.4421C89.4603 44.7856 90.4459 43.9166 91.4909 43.1455C92.8026 42.1763 92.8907 40.732 92.8907 39.302C92.8907 39.0466 92.3574 38.5333 92.1432 38.5715C89.2889 39.068 86.1252 41.6582 86.487 44.3272ZM81.0118 54.4517C82.652 53.5064 83.6399 51.0737 82.84 49.4766C81.945 47.6933 80.7856 46.0437 79.6977 44.2628C77.7409 47.3782 78.2599 51.1406 81.0118 54.4517ZM85.4682 14.4837C84.7254 15.8039 84.0017 17.0309 83.3376 18.289C82.5591 19.7668 82.721 21.2087 83.6518 22.5695C84.3707 23.6223 85.2206 23.6533 86.08 22.6769C88.132 20.3421 87.9058 17.019 85.4682 14.4837ZM73.7559 72.6501C70.8755 70.5612 64.648 70.6089 62.9792 72.6692C65.6835 75.2976 71.2444 75.3143 73.7559 72.6501ZM13.0022 52.5515C11.9785 50.9639 11.2001 49.3883 10.0765 48.1159C8.90288 46.7862 7.20317 46.1678 5.41301 46.0127C4.80597 45.9602 3.82281 46.0222 4.16322 46.9055C4.78931 48.5217 5.62011 50.2048 7.32934 50.8995C9.05761 51.5989 10.9192 51.9618 13.0022 52.5515ZM7.0413 21.7029C4.84644 24.9878 6.0986 29.8913 9.43136 31.0754C11.0049 28.1414 9.76463 23.2737 7.0413 21.7029ZM87.2845 38.3113C91.7052 37.0937 93.9572 33.933 92.824 30.4284C91.3338 30.9584 90.2602 32.0589 89.0437 32.9709C87.1988 34.3531 86.8251 36.1245 87.2845 38.3113ZM84.8683 52.5395C86.6918 52.0286 88.6652 51.8639 90.1816 50.94C91.6099 50.0711 92.1527 48.2042 92.674 46.5092C88.989 45.9267 84.8611 49.0827 84.8683 52.5395ZM10.105 45.3538C9.96222 43.8617 9.87176 42.5702 9.68845 41.293C9.64561 40.9874 9.35042 40.5887 9.06952 40.467C7.58644 39.8248 6.10336 39.142 4.55601 38.7028C3.50858 38.4044 3.20625 38.9057 3.51572 39.9704C4.44651 43.1837 7.07462 44.2938 10.105 45.3538ZM61.9437 70.7235C63.1601 70.1983 64.3028 69.7591 65.3907 69.21C65.8239 68.9928 66.3715 68.5941 66.4691 68.1811C66.8857 66.4193 66.9666 64.6216 66.6167 62.7142C65.6216 63.2251 65.3407 65.333 63.8648 63.7168C62.3531 64.9678 61.3771 68.4317 61.9437 70.7235ZM12.0476 23.8753C12.7236 22.5169 13.3569 21.2923 13.9353 20.0437C14.0567 19.7811 14.0925 19.3705 13.971 19.1246C13.1617 17.4774 12.2999 15.854 11.4191 14.1566C8.26965 17.4129 9.93127 21.8175 12.0476 23.8753ZM25.0572 65.3856C25.2643 65.2924 25.469 65.1993 25.6762 65.1039C25.6762 63.3731 25.5976 61.6399 25.6976 59.9163C25.8166 57.868 24.4121 56.968 22.9076 55.7886C22.5053 57.7032 22.1196 59.4316 21.7935 61.1744C21.734 61.4919 21.8149 61.955 22.0196 62.1842C22.9957 63.2823 24.0383 64.3256 25.0572 65.3856ZM16.9372 44.6806C13.9996 46.5379 12.9974 50.1331 14.5495 53.0027C14.8947 53.6401 15.4232 54.0196 15.8541 53.2151C16.6111 51.809 17.4157 50.3671 17.8037 48.8368C18.1584 47.4427 17.7871 45.9602 16.9372 44.6806ZM3.97754 30.2565C2.58017 33.8757 5.67249 37.8839 9.56467 37.6667C9.27186 36.4301 9.33852 34.9261 8.62435 34.1001C7.35077 32.6247 5.60583 31.5576 3.97754 30.2565ZM17.0705 6.82766C13.583 9.13856 13.1021 13.3044 15.9469 16.2933C18.3536 13.3832 18.2465 10.1818 17.0705 6.82766ZM31.7799 68.8328C30.7372 66.011 31.1895 62.6569 28.5209 60.451C26.7974 62.4062 27.0878 64.667 27.5853 66.5696C28.021 68.2598 30.2325 68.2169 31.7799 68.8328ZM81.9307 24.0782C81.5831 22.1588 80.7309 20.5904 79.3835 20.2323C77.3648 19.6975 75.2533 19.5137 73.1822 19.1819C75.2414 22.5623 78.1742 23.9827 81.9307 24.0782ZM77.0291 61.1433C78.6622 60.2147 79.3906 59.1428 79.2454 57.7486C79.0217 55.5857 78.2718 53.6186 76.8911 51.8186C75.0009 54.5854 74.8414 57.1661 76.4412 59.8255C76.8697 59.5844 77.2482 59.372 77.8838 59.0163C77.5481 59.8494 77.3362 60.3794 77.0291 61.1433ZM16.8277 37.8338C16.7063 37.8075 16.5849 37.7837 16.4635 37.7574C15.4732 38.5977 14.509 39.4715 13.4878 40.2736C11.9762 41.4601 11.3405 44.5373 12.4499 46.631C13.7639 45.1031 15.2732 43.8116 16.1492 42.1763C16.8015 40.9588 16.6325 39.2972 16.8277 37.8338ZM77.4362 63.7168C78.8384 63.8219 80.1024 63.8434 81.3427 64.0272C83.8042 64.3877 85.0468 62.7953 86.3347 61.1433C83.4471 59.5271 79.1383 60.7351 77.4362 63.7168ZM80.6499 38.1847C79.6263 40.4932 81.8093 45.4731 84.2874 46.4806C85.9871 43.7686 84.1874 39.6625 80.6499 38.1847ZM10.3717 61.4919C13.1141 64.581 15.6565 64.9821 19.1559 62.9529C17.1538 60.3484 15.0185 59.8327 10.3717 61.4919ZM23.0718 19.3896C21.6483 19.5448 20.4366 19.6546 19.232 19.8121C16.3111 20.1893 15.5017 20.9915 14.9256 24.0257C18.5845 24.379 21.0174 22.4931 23.0718 19.3896ZM20.0105 50.6918C19.1487 52.5658 18.356 54.1486 17.6847 55.7839C16.9919 57.4693 17.9632 59.3624 19.8486 60.007C20.8556 57.0229 21.7578 54.0722 20.0105 50.6918ZM11.2691 38.3447C13.6544 38.0988 16.5206 34.5919 16.523 31.9157C11.8643 32.5651 10.8787 33.6178 11.2691 38.3447ZM85.3634 38.4378C85.7491 34.1669 83.5233 31.5361 79.3192 31.1924C80.4666 34.334 82.1592 36.9051 85.3634 38.4378ZM11.6905 30.5048C13.3902 30.0608 15.0161 29.7122 16.5896 29.199C18.0346 28.7263 18.7059 27.5828 18.606 25.9761C17.3919 26.0859 16.1778 26.1671 14.9685 26.3103C12.4427 26.6088 11.5691 27.6854 11.6905 30.5048ZM79.9739 8.92609C79.8787 9.08603 79.7025 9.24598 79.6977 9.41071C79.6501 11.151 79.5644 12.8938 79.6406 14.6293C79.6644 15.1641 80.0881 15.7275 80.4405 16.193C81.0499 17.0023 81.7997 16.9784 82.3687 16.1238C82.6663 15.675 82.8948 15.1283 82.9781 14.6007C83.3114 12.4593 82.0378 10.0744 79.9739 8.92609ZM23.6575 5.16849C21.0317 6.13295 20.0105 7.60591 20.0652 10.3418C20.0867 11.4399 20.4056 11.681 21.4531 11.385C23.955 10.6784 25.0715 7.5343 23.6575 5.16849ZM77.3815 12.0964C78.3575 9.32476 77.9956 6.33349 76.1602 5.21862C73.2441 7.70618 73.694 10.3895 77.3815 12.0964ZM17.5323 17.167C19.4939 17.167 21.4221 17.1121 23.3456 17.1885C24.4597 17.2315 24.8144 16.84 24.7192 15.7466C24.6501 14.9683 24.4168 14.5768 23.5979 14.5744C22.8076 14.572 22.0196 14.4431 21.2317 14.4527C19.1082 14.4813 18.2941 15.1068 17.5323 17.167ZM76.9268 25.4414C78.1599 28.2082 81.3427 30.1849 83.9803 29.877C84.0351 27.9051 83.2162 26.7878 81.3498 26.3629C79.9239 26.0406 78.4884 25.7637 76.9268 25.4414ZM36.8885 70.3463C36.2505 67.2667 34.727 65.2017 32.5654 63.5115C32.7178 65.3235 33.013 67.0686 33.3605 68.8042C33.4153 69.0763 33.6605 69.4368 33.8985 69.518C34.777 69.8235 35.6887 70.0265 36.8885 70.3463ZM78.2361 17.592C77.9123 15.6177 76.8696 14.6413 75.1509 14.6818C74.2058 14.7033 73.2512 14.7917 72.3276 14.9803C71.9157 15.0638 71.3063 15.4219 71.2468 15.7418C71.1135 16.4556 71.7015 16.723 72.3657 16.8065C74.282 17.0453 76.1912 17.315 78.2361 17.592ZM48.108 57.1566C47.6152 57.5719 46.9915 57.8656 46.8034 58.3335C46.6701 58.6653 47.0177 59.4842 47.3557 59.6417C47.9128 59.8996 48.6341 59.8064 49.2863 59.8351C49.3554 59.8375 49.4958 59.6656 49.4958 59.5749C49.4982 59.033 49.6077 58.429 49.4006 57.9706C49.253 57.634 48.6745 57.4908 48.108 57.1566ZM73.994 13.1301C73.0513 12.6336 72.1109 12.137 71.1183 11.6118C70.7493 13.6649 71.1135 13.8726 73.994 13.1301Z" fill="#041C33"/>
<path d="M61.5964 23.9732C61.5964 30.5334 61.6154 37.0961 61.5678 43.6564C61.5631 44.363 61.3655 45.2248 60.9346 45.7429C58.5803 48.5838 56.1307 51.3459 53.6954 54.1199C52.9693 54.9483 52.1647 55.0605 50.9816 54.891C48.9414 54.5973 46.818 54.7191 44.7469 54.879C43.9376 54.9411 43.3924 54.8767 42.8663 54.287C40.2287 51.3196 37.5791 48.3617 34.9272 45.4063C34.1512 44.5397 33.8274 43.5776 33.8298 42.3744C33.8417 31.5194 33.7988 20.662 33.7631 9.80697C33.756 7.89952 33.7393 5.98969 33.6655 4.08224C33.6298 3.14404 33.9821 2.83608 34.9082 2.83846C43.3948 2.85995 51.879 2.85995 60.3657 2.81937C61.4464 2.81459 61.4702 3.37083 61.4702 4.16819C61.4559 10.769 61.4631 17.3699 61.4631 23.9708C61.5083 23.9732 61.5535 23.9732 61.5964 23.9732Z" fill="white"/>
<path d="M70.4685 21.3042C75.3415 26.9048 78.46 33.0783 77.572 40.6532C77.4435 41.749 77.1674 42.8471 76.815 43.8928C76.1437 45.8861 75.5319 47.9297 74.5892 49.7965C73.7418 51.4724 72.5705 53.0098 71.3826 54.478C70.2424 55.8889 68.895 57.1327 67.6142 58.4767C65.8669 57.7176 65.5598 57.8107 64.0411 59.4603C63.3959 60.1598 62.7127 60.8258 62.0105 61.468C60.2536 63.0723 58.9181 64.9678 57.9588 67.1426C57.8255 67.4458 57.5874 67.7012 57.1732 68.3076C56.7709 66.7129 56.3805 65.481 56.1639 64.2182C55.8568 62.4253 55.1164 61.1672 53.1191 60.9858C52.8501 60.9619 52.3836 60.4916 52.4097 60.2744C52.4859 59.6155 52.5669 58.7751 52.9906 58.3693C54.6356 56.7913 56.5162 55.4568 58.1207 53.8454C62.0914 49.8538 65.9717 45.7716 69.8472 41.6869C70.2686 41.2429 70.6685 40.541 70.6661 39.9609C70.6494 34.2815 70.5447 28.5998 70.4685 22.9204C70.4614 22.3833 70.4685 21.8437 70.4685 21.3042Z" fill="white"/>
<path d="M39.6884 67.157C39.3171 66.5626 38.9457 65.9681 38.572 65.3761C37.1127 63.07 34.9631 61.4824 32.8063 59.9331C31.8803 59.267 31.259 57.9301 29.7402 58.2882C29.5854 58.324 29.3188 57.9659 29.1307 57.7678C28.0143 56.5837 26.9145 55.3829 25.7909 54.2059C21.194 49.386 19.3729 43.5562 19.5134 36.9959C19.5372 35.8906 19.392 34.7782 19.4753 33.68C19.6776 31.0253 21.0726 28.8004 22.2153 26.4966C22.9913 24.933 23.8674 23.4194 24.7077 21.8868C24.791 21.734 24.9505 21.6242 25.2005 21.3616C25.26 21.7984 25.3266 22.0515 25.3219 22.3069C25.2624 27.7929 25.21 33.2765 25.1124 38.7625C25.0934 39.8726 25.4242 40.7153 26.2146 41.5175C31.2851 46.6597 36.3009 51.8545 41.3739 56.9943C41.9047 57.5314 42.6379 58.0757 43.3426 58.1832C44.3043 58.3288 44.4376 58.8373 44.6019 59.5893C44.778 60.401 44.24 60.537 43.7258 60.74C41.4738 61.628 40.205 63.2227 40.1265 65.7007C40.1122 66.1639 40.0193 66.6222 39.9622 67.0854C39.8717 67.1045 39.7789 67.1307 39.6884 67.157Z" fill="white"/>
<path d="M63.7743 43.1432C63.7243 42.6251 63.6767 42.3625 63.6767 42.0999C63.641 29.4998 63.622 16.902 63.5553 4.30191C63.5482 3.16795 63.8552 2.78359 65.0193 2.8194C67.9069 2.90296 67.9117 2.85044 67.8926 5.77964C67.8212 16.6299 67.7331 27.4801 67.6903 38.3304C67.6855 39.4619 67.4118 40.288 66.4238 40.9373C65.5454 41.5174 64.7908 42.2861 63.7743 43.1432Z" fill="white"/>
<path d="M31.623 42.353C29.7662 40.7344 27.8951 39.7126 27.9165 36.8145C27.9927 26.0334 27.7832 15.2524 27.688 4.47142C27.6713 2.67856 27.6904 2.67856 29.4282 2.64514C29.8257 2.63798 30.2685 2.52578 30.6042 2.66424C30.9493 2.80748 31.3445 3.1608 31.4373 3.4974C31.5802 4.01545 31.4826 4.60033 31.485 5.15896C31.5516 17.1742 31.6183 29.1894 31.6825 41.2047C31.6849 41.5007 31.654 41.7991 31.623 42.353Z" fill="white"/>
<path d="M48.1275 69.7567C46.5421 69.7567 44.9567 69.7472 43.3688 69.7615C42.6571 69.7686 42.3547 69.4965 42.4642 68.7493C42.6309 67.6082 42.7094 66.4551 42.8856 65.3164C43.0689 64.1203 43.7378 63.323 45.0066 63.2943C47.061 63.249 49.1226 63.163 51.1675 63.3039C52.7767 63.4137 53.4409 64.1967 53.798 65.7699C54.6431 69.4774 54.4312 69.7591 50.7437 69.8045C49.8725 69.8164 48.9988 69.8068 48.1275 69.8068C48.1275 69.7901 48.1275 69.7734 48.1275 69.7567Z" fill="white"/>
<path d="M73.1062 57.1399C73.3324 58.9327 73.6942 60.6444 73.7014 62.3561C73.7038 63.1057 73.1491 64.0416 72.5587 64.5715C71.3399 65.6721 69.9306 66.5554 68.5427 67.57C67.8595 63.8792 70.0782 58.7274 73.1062 57.1399Z" fill="white"/>
<path d="M15.7089 58.9257C13.6426 58.6678 11.5644 58.4769 9.51947 58.1068C8.93385 57.9994 8.33158 57.4599 7.93165 56.9609C7.27462 56.1397 6.77947 55.1896 6.09863 54.1081C8.30063 53.7811 10.5502 53.1604 12.2571 54.2418C13.8044 55.223 14.74 57.171 15.9469 58.6941C15.8684 58.7705 15.7898 58.8469 15.7089 58.9257Z" fill="white"/>
<path d="M90.1844 53.8954C89.2393 57.7772 86.4565 59.2167 81.1265 58.6485C82.312 55.2514 85.7542 52.7686 90.1844 53.8954Z" fill="white"/>
<path d="M81.0122 54.4517C78.2579 51.1405 77.7413 47.3781 79.6957 44.2627C80.786 46.0436 81.9453 47.6932 82.838 49.4765C83.6403 51.0736 82.6547 53.5063 81.0122 54.4517Z" fill="white"/>
<path d="M85.4686 14.4836C87.9063 17.0213 88.13 20.3421 86.0804 22.6768C85.221 23.6532 84.3735 23.6246 83.6522 22.5694C82.7215 21.2086 82.5596 19.7643 83.338 18.289C84.0046 17.0285 84.7283 15.8014 85.4686 14.4836Z" fill="white"/>
<path d="M13.0026 52.5516C10.9196 51.9619 9.05802 51.5991 7.33213 50.8996C5.6229 50.2049 4.79209 48.5242 4.16601 46.9056C3.82559 46.0223 4.80876 45.9603 5.41579 46.0128C7.20358 46.168 8.90328 46.7863 10.0793 48.116C11.2005 49.3884 11.9789 50.964 13.0026 52.5516Z" fill="white"/>
<path d="M7.04131 21.7029C9.76226 23.2713 11.0049 28.139 9.43137 31.0754C6.09861 29.8937 4.84883 24.9878 7.04131 21.7029Z" fill="white"/>
<path d="M84.8687 52.5395C84.8615 49.0827 88.9894 45.9267 92.6721 46.5092C92.1507 48.2042 91.608 50.0711 90.1796 50.9401C88.6632 51.8639 86.6898 52.031 84.8687 52.5395Z" fill="white"/>
<path d="M10.1051 45.3538C7.07463 44.2938 4.44652 43.1837 3.51572 39.9704C3.20625 38.9057 3.50858 38.4044 4.55602 38.7028C6.10337 39.1421 7.58645 39.8248 9.06952 40.467C9.35043 40.5887 9.64323 40.9874 9.68846 41.293C9.87176 42.5702 9.96222 43.8617 10.1051 45.3538Z" fill="white"/>
<path d="M61.9439 70.7235C61.3774 68.4341 62.351 64.9677 63.865 63.7168C65.341 65.333 65.6242 63.225 66.6169 62.7141C66.9645 64.6239 66.8835 66.4192 66.4693 68.181C66.3717 68.5916 65.8242 68.9903 65.3909 69.2099C64.303 69.7566 63.1604 70.1983 61.9439 70.7235Z" fill="white"/>
<path d="M12.0477 23.8754C9.93139 21.8176 8.26977 17.413 11.4216 14.1567C12.3024 15.8541 13.1642 17.4775 13.9735 19.1247C14.0949 19.3706 14.0569 19.7836 13.9378 20.0438C13.357 21.2924 12.7238 22.517 12.0477 23.8754Z" fill="white"/>
<path d="M25.0574 65.3854C24.0386 64.3231 22.9959 63.2822 22.0199 62.1817C21.8175 61.9525 21.7342 61.4894 21.7937 61.1719C22.1175 59.4315 22.5055 57.7007 22.9078 55.7861C24.4147 56.9655 25.8168 57.8655 25.6978 59.9138C25.5978 61.6374 25.6764 63.373 25.6764 65.1014C25.4693 65.1992 25.2622 65.2923 25.0574 65.3854Z" fill="white"/>
<path d="M16.9374 44.6807C17.7849 45.9603 18.1563 47.4404 17.8016 48.8369C17.4135 50.3648 16.6089 51.8067 15.8519 53.2152C15.4186 54.0198 14.8925 53.6402 14.5474 53.0028C12.9976 50.1332 13.9998 46.538 16.9374 44.6807Z" fill="white"/>
<path d="M3.97786 30.2566C5.60377 31.5577 7.35109 32.6248 8.62467 34.1001C9.33884 34.9261 9.2698 36.4301 9.56499 37.6667C5.67281 37.884 2.58049 33.8757 3.97786 30.2566Z" fill="white"/>
<path d="M17.0706 6.82764C18.2466 10.1794 18.3537 13.3831 15.947 16.2933C13.1023 13.3067 13.5831 9.13854 17.0706 6.82764Z" fill="white"/>
<path d="M31.78 68.8328C30.235 68.2168 28.0235 68.2598 27.5831 66.572C27.088 64.6669 26.7952 62.4086 28.5187 60.4534C31.1896 62.6568 30.7373 66.011 31.78 68.8328Z" fill="white"/>
<path d="M81.9311 24.0782C78.1746 23.9851 75.2418 22.5647 73.1826 19.1819C75.2537 19.5137 77.3652 19.6975 79.3839 20.2323C80.7337 20.588 81.5859 22.1588 81.9311 24.0782Z" fill="white"/>
<path d="M77.0292 61.1434C77.3363 60.3819 77.5482 59.8519 77.8838 59.0187C77.2506 59.3744 76.8721 59.5869 76.4412 59.828C74.8415 57.1686 74.9986 54.5879 76.8911 51.821C78.2718 53.6211 79.0217 55.5882 79.2455 57.7511C79.3907 59.1405 78.6622 60.2124 77.0292 61.1434Z" fill="white"/>
<path d="M16.8277 37.8337C16.6301 39.2971 16.7991 40.9587 16.1469 42.1762C15.2732 43.8091 13.7616 45.103 12.4475 46.6309C11.3382 44.5348 11.9738 41.46 13.4854 40.2735C14.5067 39.4714 15.4708 38.6 16.4611 37.7573C16.5849 37.7836 16.7063 37.8075 16.8277 37.8337Z" fill="white"/>
<path d="M77.4365 63.7168C79.1386 60.7351 83.4474 59.5295 86.335 61.141C85.0471 62.793 83.8045 64.3877 81.343 64.0248C80.1027 63.8434 78.8387 63.8219 77.4365 63.7168Z" fill="white"/>
<path d="M80.65 38.1848C84.1875 39.6625 85.9872 43.7663 84.2875 46.4807C81.8094 45.4756 79.6264 40.4933 80.65 38.1848Z" fill="white"/>
<path d="M10.3721 61.492C15.0165 59.8328 17.1542 60.3485 19.1563 62.953C15.6592 64.9846 13.1145 64.5835 10.3721 61.492Z" fill="white"/>
<path d="M23.072 19.3896C21.0176 22.4931 18.5847 24.3791 14.9258 24.0234C15.5043 20.9915 16.3113 20.1894 19.2322 19.8098C20.4367 19.6546 21.6484 19.5448 23.072 19.3896Z" fill="white"/>
<path d="M20.0106 50.6919C21.7579 54.0723 20.858 57.023 19.8487 60.0047C17.9609 59.3602 16.9921 57.467 17.6848 55.7816C18.3561 54.1487 19.1464 52.5659 20.0106 50.6919Z" fill="white"/>
<path d="M11.2694 38.3447C10.879 33.6179 11.8645 32.5651 16.5232 31.9158C16.5208 34.5919 13.6547 38.0989 11.2694 38.3447Z" fill="white"/>
<path d="M85.3635 38.4378C82.1617 36.9052 80.4691 34.3341 79.3193 31.1924C83.5234 31.5362 85.7492 34.1693 85.3635 38.4378Z" fill="white"/>
<path d="M11.6907 30.5048C11.5717 27.6854 12.4454 26.6087 14.9687 26.3103C16.1757 26.1671 17.3921 26.0859 18.6062 25.9761C18.7062 27.5803 18.0349 28.7262 16.5899 29.1989C15.0164 29.7122 13.3904 30.0583 11.6907 30.5048Z" fill="white"/>
<path d="M79.9739 8.92603C82.0379 10.0743 83.3115 12.4592 82.9782 14.6006C82.8949 15.1306 82.6663 15.6773 82.3688 16.1237C81.7998 16.9784 81.0523 17.0022 80.4405 16.1929C80.0882 15.7274 79.6645 15.164 79.6407 14.6293C79.5645 12.8937 79.6502 11.1486 79.6978 9.41065C79.7026 9.24592 79.8787 9.08597 79.9739 8.92603Z" fill="white"/>
<path d="M23.658 5.16846C25.072 7.53426 23.9555 10.6783 21.4536 11.385C20.4061 11.681 20.0872 11.4399 20.0657 10.3417C20.0086 7.60349 21.0322 6.13054 23.658 5.16846Z" fill="white"/>
<path d="M77.382 12.0965C73.6945 10.3896 73.2446 7.70631 76.1607 5.21875C77.9961 6.33362 78.358 9.32489 77.382 12.0965Z" fill="white"/>
<path d="M17.5327 17.167C18.2945 15.1068 19.1086 14.4813 21.2297 14.4527C22.0177 14.4407 22.808 14.572 23.5959 14.5744C24.4149 14.5768 24.6505 14.9683 24.7172 15.7466C24.8124 16.84 24.4577 17.2315 23.3436 17.1885C21.4225 17.1121 19.4943 17.167 17.5327 17.167Z" fill="white"/>
<path d="M76.9268 25.4414C78.4884 25.7661 79.9239 26.0406 81.3498 26.3653C83.2161 26.7878 84.035 27.9075 83.9803 29.8794C81.345 30.185 78.1623 28.2083 76.9268 25.4414Z" fill="white"/>
<path d="M36.8885 70.3464C35.6888 70.0265 34.777 69.8235 33.901 69.5203C33.6629 69.4392 33.4177 69.0763 33.363 68.8065C33.0154 67.071 32.7202 65.3259 32.5679 63.5139C34.727 65.2017 36.2506 67.2667 36.8885 70.3464Z" fill="white"/>
<path d="M78.2363 17.592C76.1914 17.3151 74.2822 17.0477 72.3659 16.8042C71.7017 16.7207 71.1137 16.4533 71.247 15.7395C71.3066 15.4196 71.916 15.0615 72.3278 14.978C73.2515 14.7894 74.2061 14.7034 75.1511 14.6795C76.8699 14.6413 77.9126 15.6178 78.2363 17.592Z" fill="white"/>
<path d="M48.1082 57.1565C48.6748 57.4907 49.2509 57.634 49.4032 57.9706C49.6079 58.4289 49.4984 59.0329 49.4984 59.5748C49.4984 59.6655 49.358 59.8398 49.2889 59.835C48.6367 59.8064 47.913 59.8995 47.3583 59.6417C47.0203 59.4841 46.6727 58.6653 46.806 58.3334C46.9917 57.8655 47.6154 57.5695 48.1082 57.1565Z" fill="white"/>
<path d="M73.9944 13.1301C71.1139 13.8726 70.7497 13.6649 71.1187 11.6118C72.109 12.1346 73.0517 12.6336 73.9944 13.1301Z" fill="white"/>
</g>
<defs>
<clipPath id="clip0_6622_2035">
<rect width="96" height="78" fill="white" transform="translate(0.5)"/>
</clipPath>
</defs>
</svg>
