<svg width="89" height="78" viewBox="0 0 89 78" fill="none" xmlns="http://www.w3.org/2000/svg">
<g clip-path="url(#clip0_6622_1944)">
<path d="M7.9935 31.2916C8.04176 29.6811 8.48123 28.0375 6.78177 26.7673C3.46922 24.2982 3.70292 20.9246 4.61489 17.4393C4.7038 17.104 4.96292 16.8119 5.31094 16.2149C6.92911 18.3437 8.39486 20.2769 9.86062 22.205C11.1917 20.9856 11.4305 18.9762 10.4322 17.6349C8.80893 15.4554 8.08241 13.1462 9.42623 10.5373C10.0689 9.28751 10.6913 8.02498 11.3213 6.76753C11.461 6.79039 11.5982 6.81579 11.7379 6.83866C12.8099 9.15287 13.8819 11.4671 14.9438 13.761C16.3206 12.722 16.5924 12.0412 15.8786 10.6059C14.7228 8.28917 14.7304 6.08165 16.1199 3.85888C16.7677 2.82244 17.2427 1.67676 17.8575 0.614915C18.0252 0.325321 18.4392 -0.0404828 18.6831 -0.00237824C18.9574 0.0408069 19.2801 0.465037 19.3842 0.787656C19.7932 2.06289 20.126 3.36098 20.4562 4.54476C22.7146 3.78775 24.856 3.03836 27.0254 2.37281C27.4446 2.24325 28.1914 2.28898 28.3845 2.55063C28.6004 2.84022 28.4709 3.52102 28.2931 3.94779C27.7164 5.3221 26.7384 6.33822 25.3514 6.96059C24.0406 7.5474 22.745 8.1774 21.4647 8.83025C21.0837 9.02586 20.7763 9.36372 20.4715 9.79557C22.4097 9.8921 24.3632 9.51106 26.304 10.6415C25.9306 11.0937 25.6715 11.5052 25.3234 11.8202C23.4055 13.5603 21.2539 14.833 18.6272 15.1988C17.131 15.4071 15.683 15.7754 15.1648 17.4978C15.119 17.6476 15.114 17.8077 15.086 17.9804C17.1665 17.7645 19.1861 17.5537 21.4927 17.3149C20.3343 20.0203 19.3868 22.365 16.4527 22.9289C16.0818 23.0001 15.7338 23.2185 15.3629 23.2617C12.3298 23.625 11.8141 26.0738 11.1613 28.4566C11.9818 27.8597 12.7489 27.156 13.638 26.6937C14.6364 26.178 15.7313 25.8147 16.8185 25.515C17.5349 25.3168 18.0607 25.7588 17.8092 26.5031C17.4002 27.7174 17.0395 29.046 16.2673 30.0113C15.335 31.1773 14.0699 32.1375 12.8023 32.958C11.8598 33.5652 11.4127 34.1977 11.5118 35.3002C11.5779 36.0496 11.5245 36.8117 11.5245 37.8989C11.9945 37.4366 12.2866 37.1419 12.5864 36.8574C13.7498 35.7575 14.8904 34.6296 16.0945 33.5728C16.915 32.8539 17.4079 33.1892 17.6873 34.1825C18.3884 36.6644 17.2656 38.5543 15.7389 40.2944C15.2435 40.8584 14.6262 41.3614 13.9759 41.7272C13.0512 42.2479 12.8633 42.8856 13.2443 43.8305C13.5237 44.524 13.7092 45.2557 13.9302 45.9466C15.6169 44.0592 17.2427 42.2403 19.0997 40.1623C19.4985 40.9752 19.7576 41.3436 19.8643 41.7526C20.3165 43.513 20.1082 45.2074 19.1683 46.7697C18.645 47.6385 18.1166 48.5326 17.4333 49.2693C16.3765 50.4074 16.4171 51.4845 17.2402 52.686C17.7508 53.4303 18.2131 54.2102 18.8889 55.2721C19.3131 53.88 19.5061 52.8359 19.9456 51.9062C20.629 50.4658 21.3885 49.0432 22.2903 47.7324C22.9584 46.7621 23.6976 47.0085 24.0914 48.1084C25.3895 51.7283 24.9348 55.079 22.6993 58.2137C22.5342 58.4449 22.5875 59.0597 22.7831 59.2756C23.8196 60.4213 24.9322 61.4958 26.0169 62.5958C26.1287 62.5373 26.243 62.4814 26.3548 62.423C26.3777 62.1233 26.4158 61.821 26.4209 61.5212C26.4564 59.5753 26.4183 57.6269 26.5529 55.6887C26.5936 55.1069 26.9873 54.3144 27.4548 54.0756C27.785 53.9079 28.6208 54.3906 29.0374 54.7869C30.9883 56.6438 31.7453 58.9047 31.1509 61.5898C30.6174 63.9929 31.7021 65.5527 34.3542 66.1547C34.1713 64.4045 33.9351 62.6974 33.8385 60.9801C33.7979 60.2384 34.0443 59.4788 34.1612 58.7269C34.9105 59.0698 35.7793 59.268 36.3865 59.7786C38.6677 61.699 39.8667 64.3155 40.7431 67.0946C41.528 69.5841 43.4561 70.082 45.3868 68.3267C45.9913 67.778 46.6391 67.5367 47.2691 68.4969C48.0769 69.7289 49.0931 68.6087 49.9923 68.4969C50.2133 68.4689 50.5385 67.651 50.4801 67.242C50.0152 63.9574 52.1262 60.0199 55.1568 58.6075C56.056 58.1883 56.404 58.6558 56.3634 59.4102C56.2847 60.8404 56.0814 62.263 55.9112 63.6881C55.802 64.5924 55.6572 65.4917 55.7944 66.5332C56.7444 65.7305 57.7148 64.9506 58.6243 64.1047C58.8199 63.9218 58.8758 63.4874 58.8427 63.1826C58.7742 62.5551 58.6421 61.9302 58.4693 61.3205C57.5904 58.2163 59.0307 55.0231 62.168 53.4939C63.5779 56.2018 62.8996 59.1714 63.2019 61.9861C64.5102 61.7956 66.5907 59.8878 66.7405 58.6812C66.7812 58.3484 66.4738 57.9241 66.2376 57.6091C64.2129 54.9139 63.6592 51.9468 64.6321 48.7283C64.7693 48.2735 65.2646 47.5623 65.539 47.5851C66.1258 47.6359 66.9666 47.9509 67.1902 48.4082C68.1301 50.3337 68.8846 52.3507 69.7 54.3372C69.8067 54.5989 69.8753 54.8783 69.9667 55.1628C71.6357 54.1569 72.4486 52.051 71.8059 50.3896C71.4706 49.5234 71.0641 48.68 70.6374 47.8544C69.4536 45.5554 69.6289 43.1929 70.2538 40.805C70.3122 40.579 70.5027 40.3859 70.6272 40.1852C72.187 40.9016 73.5841 42.507 75.8297 46.2057C76.2235 45.0651 76.6477 44.1252 76.8357 43.1396C76.8967 42.8195 76.381 42.3419 76.0584 42.0041C74.9203 40.8279 73.6248 39.7813 72.6264 38.4985C71.2191 36.6898 71.8034 34.688 72.4664 32.4144C73.5689 33.3391 74.5444 34.0504 75.3903 34.8912C76.2489 35.7448 76.9805 36.7279 77.7655 37.65C78.4361 36.263 78.1897 34.373 77.1024 33.4026C76.1574 32.5592 75.1312 31.8048 74.1201 31.035C72.2428 29.6099 71.7881 27.5472 71.3359 25.2101C73.9347 25.5632 76.1397 26.211 77.9052 27.9816C78.1541 26.7902 76.6807 23.4395 75.6646 22.9061C75.4233 22.7791 75.0981 22.7689 74.8111 22.7714C71.2547 22.7816 69.4028 21.3641 68.3079 17.5054C70.1649 17.6197 71.9126 17.7264 73.6578 17.8331C73.7086 17.7493 73.7594 17.6654 73.8077 17.5816C73.0202 17.071 72.2733 16.4842 71.4376 16.0701C69.5069 15.1124 67.5001 14.3097 65.5974 13.3063C64.5864 12.7728 63.7303 11.9472 62.8031 11.2537C62.8234 11.0835 62.8463 10.9133 62.8666 10.7431C64.5457 10.1842 66.2274 9.62537 68.1606 8.98013C67.5687 8.73118 67.1089 8.5559 66.6618 8.3476C64.9547 7.54994 63.1867 6.84628 61.5736 5.88604C60.8801 5.47451 60.4126 4.57017 60.0113 3.803C59.5388 2.89865 59.9071 2.38805 60.9715 2.33724C63.2984 2.22547 65.2545 3.16792 67.114 4.41013C67.4569 4.63876 67.7897 4.87754 68.3282 5.25097C68.8465 3.79029 69.2859 2.48458 69.7762 1.19664C69.9134 0.835922 70.2004 0.531085 70.4164 0.200846C70.7568 0.472658 71.2293 0.675883 71.4122 1.02898C72.1361 2.41599 72.7357 3.86904 73.4419 5.26367C74.3487 7.05204 74.1506 8.79215 73.3021 10.5043C72.7382 11.6373 73.2488 12.3003 74.1227 12.8947C75.121 11.2156 76.033 9.56948 77.0567 7.99449C77.6384 7.09777 78.1948 7.72776 78.4742 8.29679C79.5259 10.4357 80.0416 12.6788 79.3811 15.0489C79.1779 15.778 78.8425 16.4715 78.5301 17.165C77.7096 19.0016 77.9103 20.1321 79.4446 21.7934C80.5979 20.1676 81.7156 18.5418 82.8943 16.9592C83.1966 16.5528 83.6844 16.286 84.0883 15.9533C84.3296 16.4232 84.6421 16.8729 84.797 17.3708C85.8309 20.7087 85.0155 23.6351 82.7216 26.1907C81.5556 27.4913 80.7884 28.9291 80.8468 31.1138C82.0382 30.2348 83.0391 29.521 84.0095 28.7691C85.0028 27.9994 85.9681 27.189 87.0935 26.2745C87.2459 26.7318 87.4135 27.0214 87.4288 27.316C87.472 28.1594 87.4796 29.0053 87.4567 29.8487C87.3805 32.6304 86.3034 34.6651 83.344 35.2697C83.1407 35.3104 82.9477 35.4196 82.7521 35.4958C80.6487 36.3087 80.1381 37.2664 80.5445 39.8092C81.5784 39.1996 82.5666 38.5924 83.5777 38.026C84.3144 37.6119 85.0561 37.1775 85.8462 36.8904C86.72 36.5704 87.6523 36.4052 88.5592 36.1741C88.4779 37.0759 88.4678 37.9904 88.3026 38.877C87.7717 41.6891 86.024 43.3072 83.25 43.8966C82.465 44.0617 81.7131 44.3742 80.9307 44.552C79.7444 44.8187 79.3633 45.6672 79.1652 46.7341C81.3955 46.4547 83.5497 46.1524 85.7166 45.939C86.2933 45.8831 86.8953 46.0965 87.4872 46.188C87.3322 46.7392 87.3018 47.3692 87.0045 47.8264C85.5871 50.0162 83.7809 51.6191 80.9535 51.6369C80.0289 51.642 79.1093 51.8757 78.1846 51.9773C76.4902 52.1627 75.5046 53.2373 74.6434 54.7716C75.0778 54.7716 75.3827 54.7742 75.6875 54.7716C77.9712 54.7513 80.2524 54.698 82.5336 54.7361C82.968 54.7437 83.664 55.0333 83.7606 55.3407C83.8723 55.6963 83.5624 56.3212 83.2474 56.6515C81.2406 58.7548 78.8756 60.1139 75.8475 59.9411C74.6206 59.8726 73.3809 59.8878 72.1768 59.6846C70.7822 59.4509 70.1522 60.1418 69.6441 61.4348C70.1598 61.5212 70.5967 61.5923 71.0311 61.6686C72.9414 62.0064 74.8695 62.2706 76.7519 62.7279C77.3082 62.8625 77.989 63.4747 78.1262 63.9929C78.2151 64.3359 77.5063 65.0141 77.0237 65.3545C75.2912 66.5815 73.3555 67.0565 71.242 66.6475C70.2436 66.4545 69.2046 66.3757 68.2622 66.0303C66.6567 65.4409 65.3103 65.9998 63.7709 66.7492C64.9445 67.2344 65.9912 67.6535 67.0251 68.1006C68.1098 68.5705 69.2224 69.0024 70.2411 69.5918C70.6399 69.8229 71.0768 70.458 71.0311 70.8568C70.9879 71.243 70.3706 71.8247 69.9642 71.8628C68.3054 72.0178 66.5678 72.2921 64.975 71.9644C63.1409 71.5884 61.3373 70.7882 59.6937 69.8636C58.3931 69.132 57.4227 69.4343 56.1119 70.0922C57.0772 70.6612 57.9206 71.0905 58.6903 71.6265C59.6887 72.3251 60.7149 73.0237 61.5659 73.8849C62.5694 74.901 62.3484 75.3989 60.9182 75.7215C57.8342 76.415 55.299 75.1906 52.8806 73.4632C52.3243 73.0644 51.6232 72.8687 50.9881 72.5792C50.8967 72.7189 50.8078 72.8586 50.7163 72.9983C51.5444 73.9026 52.4107 74.7765 53.1829 75.7291C53.5487 76.1788 53.7291 76.7783 53.9933 77.3092C53.3709 77.4718 52.7181 77.8376 52.1313 77.7487C51.3768 77.6344 50.5893 77.2736 49.9695 76.8138C48.8873 76.0086 47.8991 75.0686 46.916 74.1414C45.5925 72.8916 44.5231 72.9018 43.0827 74.1033C41.6957 75.2592 40.263 76.3667 38.787 77.4057C38.2917 77.7537 37.6134 77.9036 36.9987 77.9925C36.6456 78.0433 36.0791 77.896 35.9165 77.642C35.7666 77.4057 35.9038 76.7986 36.1299 76.5471C37.2425 75.2973 38.4263 74.111 39.5847 72.9018C39.7422 72.7367 39.8946 72.5639 40.0496 72.3937C39.9835 72.2845 39.9175 72.1752 39.8514 72.066C39.1427 72.4293 38.3958 72.7265 37.7379 73.1634C35.5736 74.5987 33.4118 76.0162 30.6682 75.9959C30.0763 75.9908 29.4794 76.0314 28.8951 75.9578C27.6402 75.7977 27.2134 74.9086 28.1406 74.0474C29.4565 72.8205 31.0036 71.8425 32.4617 70.7705C32.825 70.5037 33.2212 70.2827 33.6963 69.9804C32.7411 69.1675 31.8571 69.1447 30.8994 69.5664C28.9993 70.3996 27.0737 71.1744 25.1939 72.0482C22.745 73.1863 20.3749 72.3886 17.9972 71.8399C17.7457 71.7815 17.3545 71.3319 17.4002 71.1642C17.512 70.7527 17.7559 70.2395 18.0988 70.0541C19.026 69.5562 20.0345 69.2158 21.0075 68.8017C22.5443 68.1463 24.0787 67.4808 25.9433 66.678C24.569 65.9464 23.5605 65.7991 22.4529 66.0455C20.8423 66.4037 19.2318 66.772 17.6009 67.0057C15.2029 67.3487 13.3459 66.048 11.6414 64.6509C10.7726 63.9396 11.715 63.3858 12.2891 63.2105C13.699 62.7812 15.1546 62.5018 16.6 62.1969C17.7051 61.9632 18.8228 61.7829 19.9532 61.5746C19.0972 59.9081 17.8448 59.24 16.1834 59.5804C13.8032 60.0707 11.3924 60.6677 9.19252 59.1054C7.70644 58.0486 6.33976 56.8242 4.68348 55.4829C8.12051 54.0019 11.3543 55.013 14.583 54.576C14.2198 53.1789 13.384 52.7241 12.1926 52.526C10.1121 52.178 8.03668 51.7715 5.99174 51.2635C3.50986 50.6462 2.6868 48.3599 1.06101 46.3378C4.49042 45.6265 7.37874 46.5182 10.2823 47.2523C10.2544 45.5478 9.92413 45.309 8.50664 44.8492C6.79447 44.2929 5.09755 43.607 3.51748 42.7458C1.3252 41.5519 0.746012 39.3469 0.443716 37.0556C0.342104 36.2858 0.786657 36.1995 1.37855 36.3011C3.41587 36.6567 5.28553 37.3833 6.87576 38.7499C7.49814 39.2859 8.15608 39.7813 9.0147 40.4697C8.91055 38.6178 8.94865 37.1013 7.13995 36.4052C6.51504 36.1639 5.9765 35.7041 5.36174 35.4272C2.17874 33.9996 1.36839 31.2688 1.35314 28.1264C1.34806 26.7902 2.05427 26.3761 3.12374 27.1916C4.45994 28.2153 5.6615 29.4245 6.87068 30.6057C7.1552 30.8852 7.23903 31.3704 7.41431 31.759C7.60737 31.6066 7.80043 31.4491 7.9935 31.2916Z" fill="#041C33"/>
<path d="M32.2685 46.5459C32.8046 43.3655 33.2999 40.4035 33.8054 37.444C33.8613 37.1113 33.9401 36.7785 34.0493 36.4584C34.8292 34.1747 34.2652 32.5032 32.2508 30.9764C30.3151 29.5081 28.6943 27.6054 27.0254 25.8095C25.9178 24.6155 26.276 23.7391 27.8713 23.513C30.9298 23.0812 33.9909 22.6646 37.057 22.3038C38.0452 22.187 38.6422 21.7704 39.0791 20.8609C40.7405 17.3909 42.4602 13.9488 44.1978 10.5168C44.3604 10.1942 44.8583 9.76236 45.0945 9.82079C45.5137 9.9224 45.9913 10.2857 46.1945 10.6718C47.866 13.8065 49.5147 16.954 51.0947 20.137C51.7603 21.4782 52.6951 22.1717 54.2066 22.3496C56.8104 22.6569 59.3939 23.1244 61.985 23.5333C62.4016 23.5994 62.8157 23.6883 63.2171 23.8128C64.0579 24.077 64.1773 24.6206 63.621 25.243C62.8335 26.1245 61.9926 26.9627 61.1543 27.7985C59.6581 29.2947 58.1034 30.7351 56.6732 32.2923C56.282 32.7165 56.0026 33.5091 56.0915 34.0654C56.5919 37.2383 57.2219 40.3933 57.8011 43.5535C57.9307 44.2597 58.1009 44.971 58.1187 45.6822C58.1314 46.1039 58.0044 46.7136 57.7173 46.9016C57.4557 47.0743 56.8282 46.9016 56.4776 46.6907C53.9805 45.1869 51.5164 43.6348 49.0396 42.0979C48.9685 42.0521 48.8974 42.0064 48.8313 41.9556C47.0328 40.5381 45.4324 40.0783 43.2096 41.6432C40.2222 43.7465 36.8386 45.2885 33.6276 47.0718C32.8477 47.5062 32.2787 47.1937 32.2685 46.5459ZM53.9704 41.5771C53.6681 39.4534 53.3886 37.6269 53.1473 35.7954C52.5859 31.548 51.773 32.2364 55.8476 28.8959C56.8028 28.1135 57.6563 27.2092 58.7715 26.16C58.0044 25.9924 57.6055 25.8857 57.1965 25.8196C55.2761 25.5072 53.3327 25.2938 51.4402 24.8568C50.7543 24.6993 49.944 24.1481 49.6137 23.546C48.2547 21.0616 47.0607 18.4908 45.8033 15.9505C45.6661 15.6762 45.501 15.4171 45.2419 14.9649C44.9828 15.4526 44.8176 15.7295 44.6855 16.0217C43.55 18.5264 42.4577 21.0515 41.2561 23.5257C40.9996 24.0516 40.4026 24.6231 39.8564 24.7603C38.5533 25.088 37.1866 25.1693 35.8453 25.3573C34.3618 25.5656 32.8782 25.779 31.2092 26.0178C31.5065 26.3886 31.6309 26.5969 31.8037 26.7544C33.084 27.923 34.2906 29.1957 35.6827 30.2169C37.9131 31.8579 38.1595 33.9816 37.5727 36.4203C37.4431 36.9563 37.2958 37.4872 37.1993 38.0283C37.0011 39.1308 36.8284 40.2384 36.5947 41.6635C38.7133 40.6016 40.7125 39.9564 42.2621 38.7396C44.9751 36.6108 47.3071 37.0071 49.7357 39.0292C50.3174 39.5118 50.9957 39.8853 51.6485 40.2765C52.3192 40.6829 53.0177 41.0462 53.9704 41.5771Z" fill="#041C33"/>
<path d="M53.9703 41.5773C53.0151 41.0464 52.3191 40.6806 51.6434 40.2767C50.9905 39.8855 50.3123 39.512 49.7305 39.0294C47.302 37.0073 44.97 36.611 42.257 38.7398C40.7074 39.9566 38.7056 40.5993 36.5895 41.6637C36.8258 40.2386 36.996 39.131 37.1941 38.0285C37.2907 37.4874 37.4405 36.9565 37.5676 36.4205C38.1544 33.9843 37.9105 31.8581 35.6776 30.2171C34.288 29.1959 33.0814 27.9232 31.7985 26.7546C31.6258 26.5971 31.5013 26.3888 31.2041 26.0179C32.8705 25.7792 34.3541 25.5632 35.8402 25.3575C37.1814 25.1695 38.5481 25.0907 39.8513 24.7605C40.3949 24.6233 40.9944 24.0543 41.251 23.5259C42.4551 21.0542 43.5449 18.5266 44.6804 16.0219C44.8125 15.7297 44.9776 15.4528 45.2367 14.9651C45.4958 15.4173 45.6635 15.6764 45.7981 15.9507C47.0581 18.4885 48.2521 21.0618 49.6086 23.5462C49.9388 24.1483 50.7492 24.6995 51.4351 24.857C53.3276 25.294 55.2709 25.5073 57.1914 25.8198C57.5979 25.8858 57.9992 25.9925 58.7664 26.1602C57.6537 27.2093 56.7977 28.1137 55.8425 28.8961C51.7704 32.2341 52.5833 31.5482 53.1422 35.7956C53.3886 37.6271 53.668 39.4561 53.9703 41.5773Z" fill="#F2F2F2"/>
</g>
<defs>
<clipPath id="clip0_6622_1944">
<rect width="88.1333" height="78" fill="white" transform="translate(0.433594)"/>
</clipPath>
</defs>
</svg>
