<svg width="95" height="78" viewBox="0 0 95 78" fill="none" xmlns="http://www.w3.org/2000/svg">
<g clip-path="url(#clip0_6622_1980)">
<path d="M79.9495 8.19217C81.2581 6.11195 82.5248 4.09926 83.798 2.08335C86.1548 3.6845 87.354 8.50082 85.531 10.3592C83.1003 12.8381 84.1614 15.1241 85.0584 17.9695C86.0872 16.2558 86.9135 14.7383 87.891 13.3204C88.3636 12.6323 89.1127 12.1372 89.7397 11.5552C89.8972 12.3687 90.1962 13.1853 90.193 13.9988C90.1737 17.4647 88.9037 20.3037 86.0358 22.4418C84.5375 23.5575 85.8558 24.9561 85.859 26.4029C88.1514 24.4995 89.9455 22.3228 93.0738 21.8052C93.0352 25.5219 92.3825 28.631 89.2381 30.7144C87.7945 31.6693 86.0197 32.4378 86.4634 35.026C87.2833 34.7334 88.0967 34.4633 88.8909 34.1547C90.1834 33.6499 91.4276 32.949 92.7652 32.6371C94.4499 32.2448 95.0897 33.0486 94.5624 34.6852C93.7747 37.1319 92.434 39.1028 89.8715 40.0256C88.4118 40.5496 86.9875 41.1766 85.5471 41.7617C83.8752 42.4434 83.184 43.8805 82.4734 45.3499C85.1452 44.7647 87.608 44.1892 90.0933 43.7101C90.6978 43.5944 91.3666 43.8098 92.0064 43.8709C91.7845 44.5911 91.7009 45.3981 91.3183 46.0186C89.3989 49.1373 86.2512 49.9379 82.9107 50.1919C80.615 50.3655 79.7534 52.031 78.8853 53.989C79.7276 53.7929 80.5636 53.4939 81.4188 53.4232C83.155 53.2849 84.9008 53.1981 86.6403 53.2592C87.0968 53.2753 87.6852 53.8379 87.907 54.2977C88.0099 54.5131 87.4215 55.1079 87.0872 55.4809C86.7303 55.8763 86.2834 56.1914 85.9168 56.5772C84.4282 58.1495 82.7435 58.934 80.4671 58.5964C79.1425 58.4002 77.7085 58.6446 76.3678 58.9179C75.6637 59.0626 75.056 59.6927 74.2554 60.1975C76.3678 62.1556 78.7792 61.101 81.3159 61.6218C80.7372 62.4739 80.4125 63.2455 79.8434 63.7406C78.2069 65.165 76.2392 65.5765 74.1268 65.1585C72.9211 64.9206 71.7154 64.6345 70.5419 64.2744C68.3845 63.6088 66.9152 64.7695 65.3076 65.927C68.0212 66.8947 70.558 67.7982 73.4163 68.8206C71.6254 70.7915 69.6384 71.7111 67.5325 71.7593C65.507 71.8043 63.3753 71.4088 61.4494 70.7465C58.3918 69.6951 55.4467 69.9781 52.4727 70.7979C52.0579 70.9137 51.7717 71.5053 51.4277 71.875C51.8393 72.1676 52.2122 72.6145 52.6656 72.727C53.9613 73.0518 55.3663 73.0486 56.5849 73.534C57.8227 74.026 58.993 74.8298 60.0026 75.7171C60.8546 76.4663 60.5427 77.3312 59.4399 77.6237C56.4788 78.4147 51.9711 78.2829 50.1642 74.2993C49.7558 73.399 48.7206 72.5631 47.7753 72.174C45.6469 71.2963 45.3157 71.6275 44.2643 73.7398C42.7307 76.8296 40.8627 78.3375 37.4385 77.9356C36.3839 77.8134 35.294 77.8552 34.2684 77.6205C32.8022 77.2829 32.5483 76.5209 33.7154 75.5435C34.7924 74.6465 36.1621 74.0774 37.4482 73.4569C39.0493 72.6885 40.6987 72.0165 42.2548 70.9844C40.075 70.0327 37.9497 69.5697 35.7281 70.3317C34.7667 70.6629 33.8633 71.1548 32.8987 71.4731C31.1689 72.0454 29.4746 72.5984 27.6998 71.3477C27.0793 70.9105 26.0472 71.0616 25.2016 70.9426C23.8898 70.7594 22.7163 70.3671 21.9736 68.6791C24.6679 67.7146 27.285 66.779 29.944 65.8273C28.3267 63.9593 27.5133 63.731 25.4813 64.5155C22.1568 65.8016 18.8484 66.2742 15.6011 64.3065C15.1928 64.0589 14.7941 63.7664 14.4694 63.4191C13.836 62.7439 13.9614 62.0977 14.823 61.7987C15.6172 61.5222 16.4692 61.3775 17.3084 61.2714C18.8774 61.0721 20.456 60.9467 22.0282 60.7891C22.0797 60.5866 22.1311 60.384 22.1825 60.1814C21.0154 59.7153 19.8837 59.0979 18.6748 58.8311C17.6524 58.606 16.5206 58.6478 15.4757 58.8086C11.6304 59.4002 9.55658 56.7798 7.03589 54.4231C10.4247 53.2174 13.5948 52.7833 16.8968 53.9537C15.0931 51.9056 13.7749 49.5778 10.3829 49.7965C7.88791 49.9572 5.48939 48.7708 3.6053 46.9028C2.99442 46.2951 2.64718 45.7904 3.09087 44.8194C3.51849 43.8838 4.01041 43.3597 5.00068 43.6137C7.06482 44.1378 9.11289 44.739 11.1642 45.3145C11.505 45.411 11.8297 45.5589 12.3473 45.7486C11.6207 44.3114 11.0613 43.0189 10.3186 41.8389C10.0517 41.4145 9.37331 41.1766 8.83638 41.0062C7.71429 40.6493 6.55361 40.4275 5.42509 40.0899C2.23885 39.1382 0.962432 36.6368 0.300107 33.666C0.0686152 32.6307 0.808104 32.3059 1.51544 32.5503C3.51849 33.2383 5.46688 34.0871 7.42492 34.9006C7.83968 35.0742 8.20621 35.3603 8.66598 35.6368C8.89747 32.8204 8.46664 32.0005 6.27711 30.8655C3.11016 29.2258 1.49937 26.1521 1.92698 22.6154C2.07167 21.4162 2.80472 21.2747 3.6053 21.8309C4.69524 22.5865 5.6823 23.5028 6.66293 24.4063C7.24487 24.94 7.73036 25.5766 8.27373 26.181C9.44726 24.731 9.46977 22.744 8.21264 22.0849C5.64693 20.7442 4.86243 18.4807 4.58914 15.87C4.50555 15.0694 4.37051 14.2656 4.40266 13.4715C4.42195 13.0021 4.72096 12.5455 4.89458 12.0857C5.3222 12.3558 5.87199 12.5359 6.1485 12.9153C6.87191 13.9087 7.45707 15.0019 8.13869 16.0275C8.5438 16.6352 9.02286 17.1914 9.73341 18.111C10.1675 16.4391 10.6079 15.153 10.7783 13.8316C10.833 13.4136 10.2575 12.6548 9.80736 12.478C7.95864 11.7578 7.695 10.1824 7.52138 8.57477C7.25452 6.13767 7.9297 3.95458 9.52121 1.73611C11.3088 3.90635 12.6753 5.97049 12.9872 8.6648C13.2637 8.06035 13.537 7.45589 13.9678 6.51063C14.1318 7.27584 14.2314 7.7324 14.3536 8.3047C15.5625 6.68104 16.5174 4.99629 17.8549 3.71022C19.2567 2.35985 20.9801 1.31814 22.6552 0.286067C23.7098 -0.363397 24.2499 0.141385 24.1277 1.36636C23.7483 5.06702 21.9671 7.91888 18.8902 9.96694C17.8839 10.6357 16.81 11.2048 15.7651 11.8189C15.8197 11.9443 15.8744 12.0664 15.929 12.1918C16.9772 11.8285 17.9996 11.298 19.0735 11.1469C20.276 10.9765 21.5267 11.1501 22.7548 11.1758C22.234 12.404 21.8192 13.6933 21.144 14.8251C20.8836 15.2623 20.0348 15.5549 19.4529 15.5646C16.765 15.5999 14.9484 17.1464 13.3601 19.0048C12.4277 20.0947 11.5854 21.3165 10.9809 22.609C10.5243 23.5896 10.5115 24.776 10.6144 26.0331C13.7684 23.2327 15.9966 19.5739 20.3049 17.4358C20.0734 18.6704 20.0541 19.516 19.7583 20.2523C18.0543 24.4931 16.093 28.5506 12.3924 31.5343C10.9938 32.6596 11.8522 34.2929 11.984 36.1095C13.9581 34.1707 14.852 31.6243 17.4048 30.4218C18.2215 34.4858 17.527 37.9357 15.0224 40.9998C13.3826 43.0028 13.5723 44.604 15.8454 46.7324C16.003 44.1924 16.765 42.0447 18.5333 40.3696C20.8483 42.0061 20.9383 46.308 18.7938 50.6967C18.0768 50.835 17.7649 49.0023 16.9386 50.2466C16.7586 50.5167 17.2858 51.4908 17.7231 51.8831C18.4947 52.5776 19.53 52.6547 20.0187 51.6002C20.5975 50.3527 20.8836 48.9669 21.2952 47.6423C21.3562 47.443 21.4173 47.2404 21.4816 47.0282C23.5265 48.2693 24.3239 50.0858 23.7741 52.2078C23.6937 52.5197 23.6004 52.8284 23.504 53.1338C22.607 55.9824 23.2564 57.3714 26.2272 58.7764C25.9121 57.1624 25.4395 55.6223 25.3656 54.063C25.3077 52.8605 25.7482 51.6323 25.97 50.4138C26.9635 51.1308 28.1628 51.6805 28.9055 52.6001C30.5999 54.6964 30.6063 57.1817 29.7125 59.6091C29.2559 60.8502 29.5871 61.3486 30.7413 61.7183C31.7895 62.0527 32.7862 62.5542 34.2491 63.1683C33.9083 61.8823 33.6896 61.0592 33.3424 59.7506C34.2137 60.7055 34.7764 61.3261 35.3422 61.9434C35.4515 61.8726 35.5609 61.8019 35.6702 61.7312C35.384 61.2971 35.0497 60.8888 34.8182 60.4258C34.2491 59.2876 33.6511 58.1527 33.2234 56.9599C33.053 56.484 33.2974 55.8571 33.352 55.2976C33.9501 55.3619 34.7667 55.2012 35.1107 55.5323C37.0334 57.3682 38.8982 59.2748 40.673 61.2553C41.7404 62.4449 42.5539 63.8596 43.5795 65.091C45.4347 67.3159 48.4087 67.3256 50.2638 65.1007C52.3215 62.6346 54.2378 60.0496 56.3373 57.6222C57.1572 56.6769 58.2214 55.8153 59.3499 55.3169C59.9672 55.0436 61.0861 55.4294 61.7098 55.886C61.967 56.0757 61.6584 57.3135 61.3369 57.9341C60.8514 58.8729 60.128 59.6895 59.6971 60.7345C60.4656 59.8278 61.2372 58.9179 62.0056 58.0112C61.7999 60.6766 60.6971 62.8629 58.8998 64.7245C59.0091 64.8563 59.1152 64.9849 59.2245 65.1167C61.6166 63.7278 64.0087 62.3356 66.4265 60.9338C64.0698 57.8794 65.5102 52.7705 69.2205 50.9764C69.3652 52.2882 69.5548 53.5389 69.6256 54.796C69.6931 56.0692 69.6417 57.3521 69.6417 58.7121C70.7991 58.6382 71.3168 57.8665 71.3039 56.9373C71.2814 55.1433 70.9856 53.3524 70.9309 51.5552C70.9084 50.7899 71.037 49.9251 71.3875 49.2627C72.0466 48.0185 72.9147 46.8867 73.9468 45.337C74.5159 48.1921 75.0238 50.7385 75.5158 53.2045C76.0881 52.1693 76.8147 50.8542 77.5381 49.5425C73.1205 44.9544 73.9275 43.1925 75.9498 39.7298C77.2327 40.5882 77.2327 40.5882 79.1521 46.6167C81.1359 45.4078 81.451 42.5109 79.9945 40.8036C78.6924 39.2796 77.3484 37.6592 76.5961 35.8458C76.0334 34.4858 76.2103 32.7271 76.3807 31.1838C76.5028 30.081 77.5767 30.0843 78.2197 30.7369C79.1071 31.6372 79.8273 32.7207 80.5314 33.7785C81.1069 34.6434 81.5539 35.5886 82.0876 36.5467C83.6598 35.1674 83.8559 32.6564 82.6663 31.1935C82.229 30.6566 81.7339 30.155 81.2098 29.6984C78.7856 27.5829 77.2906 24.9207 76.4482 21.8438C76.2135 20.9789 75.8727 20.1462 75.5061 19.0787C79.1103 19.9211 80.824 23.0205 83.3929 25.03C84.0713 22.6765 82.9267 18.8151 81.2388 17.5515C80.9237 17.3168 80.4478 17.304 80.0556 17.1593C78.0654 16.4294 75.9466 15.915 74.1365 14.8669C73.0465 14.2367 72.4099 12.7899 71.6511 11.6549C71.5868 11.5584 72.0916 10.8254 72.3842 10.79C73.3198 10.6743 74.2812 10.7482 75.4933 10.7482C75.1492 10.3335 74.8342 9.98302 74.5577 9.60684C73.2844 7.89316 72.008 6.18269 70.7702 4.44328C70.4969 4.06068 70.23 3.56875 70.2236 3.12185C70.214 2.3695 70.4133 1.61072 70.5226 0.855152C71.1721 0.999835 71.9952 0.941962 72.4453 1.32135C74.7699 3.28582 77.0044 5.3596 79.2614 7.40445C79.5251 7.63594 79.7309 7.93817 79.9495 8.19217Z" fill="#041C33"/>
<path d="M72.4547 21.7601C71.7185 22.8726 71.2523 23.8307 70.5546 24.5734C68.32 26.9526 66.0244 29.2772 63.6966 31.5664C62.3077 32.9328 61.5843 34.3925 61.9894 36.4342C62.6967 39.9933 63.2819 43.5815 63.7802 47.1728C63.8831 47.9187 63.5712 48.8769 63.1147 49.4781C62.8896 49.7739 61.79 49.6807 61.2563 49.417C57.9415 47.7933 54.5752 46.2372 51.4211 44.3338C49.1673 42.9738 47.3443 42.9867 45.0647 44.276C41.7242 46.1697 38.21 47.7805 34.6797 49.3045C32.7217 50.1501 32.5288 49.8768 32.7603 47.8159C33.2104 43.8258 33.6444 39.8358 34.1267 35.8522C34.3003 34.4118 33.9081 33.219 32.9114 32.1933C30.7058 29.9363 28.5098 27.6664 26.3139 25.3997C25.9055 24.9785 25.4393 24.5895 25.1242 24.104C23.9829 22.3614 24.3783 21.4965 26.4135 21.1943C30.5418 20.5802 34.6862 20.0432 38.7951 19.3166C39.5282 19.188 40.3931 18.4421 40.7435 17.7476C42.7273 13.8347 44.5535 9.84149 46.4923 5.90613C46.8234 5.23415 47.4439 4.70687 47.9294 4.11206C48.4632 4.73902 49.1544 5.2856 49.5017 6.00258C51.3697 9.85435 53.183 13.7351 54.9514 17.6351C55.5397 18.9308 56.3403 19.5802 57.8289 19.7346C62.0312 20.1783 66.2173 20.7988 70.4067 21.3614C70.9725 21.4386 71.5256 21.5801 72.4547 21.7601ZM65.2463 24.6441C65.1949 24.4737 65.1435 24.3033 65.092 24.1329C62.8253 23.8532 60.5522 23.3131 58.2919 23.3484C54.4209 23.4095 52.1381 21.6605 50.8649 18.1109C50.0836 15.9246 49.0033 13.8476 47.9777 11.5391C47.7205 11.9989 47.534 12.2979 47.3796 12.613C46.0839 15.2558 44.8236 17.918 43.4861 20.5384C42.7916 21.9016 41.7338 22.7407 40.0555 22.76C38.5636 22.7793 37.0622 22.9915 35.5864 23.2295C33.8245 23.5124 32.0787 23.9111 29.9663 24.3323C31.8536 25.9977 33.3615 27.3352 34.8758 28.6631C37.1329 30.6436 38.2421 33.0132 37.6087 36.0933C37.3194 37.5048 37.2519 38.9613 37.1265 40.4017C37.0204 41.6041 36.9721 42.8098 36.8821 44.2856C37.5798 44.0059 38.0203 43.8708 38.4222 43.6586C41.3544 42.1025 44.2834 40.5399 47.2028 38.9613C48.4246 38.3022 49.2927 38.5369 50.5112 39.36C53.1637 41.1572 56.0831 42.5591 58.8964 44.1248C59.0186 44.0091 59.1375 43.8901 59.2597 43.7744C58.935 41.0769 58.7646 38.3472 58.2373 35.6882C57.7679 33.309 58.4977 31.4892 60.0796 29.8591C60.9734 28.9364 61.909 28.0554 62.8157 27.1423C63.6355 26.3192 64.4361 25.4769 65.2463 24.6441Z" fill="#041C33"/>
<path d="M65.2461 24.6441C64.4358 25.4768 63.6353 26.3192 62.8186 27.1423C61.9152 28.0554 60.9795 28.9363 60.0825 29.8591C58.4974 31.4892 57.7676 33.309 58.2402 35.6882C58.7643 38.3471 58.9379 41.0736 59.2626 43.7743C59.1405 43.8901 59.0215 44.0091 58.8993 44.1248C56.0893 42.5622 53.1667 41.1604 50.5142 39.3599C49.2988 38.5336 48.4275 38.2989 47.2058 38.9612C44.2864 40.5399 41.3574 42.1025 38.4251 43.6586C38.0232 43.8708 37.5828 44.0058 36.8851 44.2856C36.9751 42.8098 37.0233 41.6041 37.1294 40.4016C37.258 38.9612 37.3223 37.5016 37.6117 36.0933C38.2451 33.0164 37.1358 30.6468 34.8788 28.6631C33.3645 27.3352 31.8565 25.9977 29.9692 24.3322C32.0816 23.911 33.8242 23.5124 35.5894 23.2294C37.0683 22.9915 38.5666 22.7761 40.0584 22.76C41.7368 22.7407 42.7945 21.9016 43.489 20.5383C44.8265 17.918 46.0869 15.2558 47.3826 12.6129C47.5369 12.3011 47.7202 12.002 47.9806 11.5391C49.0063 13.8476 50.0865 15.9246 50.8678 18.1109C52.1378 21.6604 54.4206 23.4095 58.2949 23.3484C60.5584 23.313 62.8283 23.8499 65.095 24.1329C65.1432 24.3033 65.1946 24.4737 65.2461 24.6441Z" fill="white"/>
</g>
<defs>
<clipPath id="clip0_6622_1980">
<rect width="94.4777" height="78" fill="white" transform="translate(0.26123)"/>
</clipPath>
</defs>
</svg>
