<svg width="81" height="78" viewBox="0 0 81 78" fill="none" xmlns="http://www.w3.org/2000/svg">
<g clip-path="url(#clip0_6622_1949)">
<path d="M40.1651 9.23291C56.8979 9.43301 67.2161 19.5289 69.5501 34.4335C71.205 45.0047 68.2583 54.3971 59.7782 61.1975C48.3325 70.3741 34.0317 70.6962 22.0491 62.051C15.2208 57.1235 11.314 49.8447 11.0487 41.4153C10.7328 31.4163 13.7459 22.346 21.6448 15.5362C27.2476 10.7024 34.1422 9.38299 40.1651 9.23291ZM12.7605 41.2496C13.25 49.1881 17.2358 57.3236 26.376 62.42C36.3278 67.9698 46.3175 68.0729 55.9062 61.7009C66.4044 54.7222 69.8406 44.6107 67.5161 32.6514C63.8335 13.6946 44.6184 7.05365 30.0996 12.6878C19.5698 16.7775 12.7763 27.3736 12.7605 41.2496Z" fill="#041C33"/>
<path d="M41.6938 77.9999C39.0187 77.6841 37.0637 77.5997 35.1813 77.1932C32.8758 76.6961 32.6326 75.164 33.9685 73.2568C36.4699 69.6862 40.0609 70.471 43.5224 70.5335C45.0921 72.0874 46.6871 73.6164 48.1778 75.2391C48.2883 75.3579 47.7577 76.4428 47.3693 76.5585C45.2942 77.1838 43.1655 77.6403 41.6938 77.9999Z" fill="#041C33"/>
<path d="M16.5761 5.63403C16.7971 9.30469 17.0056 12.7096 17.2109 16.1145C17.034 16.1333 16.8571 16.152 16.6803 16.1708C16.5666 15.0639 16.456 13.954 16.3423 12.8472C15.6001 15.6643 16.6582 18.9535 13.7462 21.0577C9.95308 16.9243 11.2606 8.66686 16.5761 5.63403Z" fill="#041C33"/>
<path d="M57.1157 2.39185C61.8311 3.85511 65.8674 10.1772 63.7229 16.7181C62.0458 14.9953 60.4414 13.3726 58.8781 11.7186C58.6033 11.4278 58.3822 11.0057 58.319 10.618C57.8958 7.91972 57.5231 5.21832 57.1157 2.39185Z" fill="#041C33"/>
<path d="M18.2434 14.6545C17.4475 11.3215 17.5517 8.27304 19.9868 5.65918C21.089 4.47419 22.0965 3.19852 23.2841 2.1042C23.6946 1.72588 24.5095 1.77903 25.1412 1.63208C25.2327 2.21989 25.4696 2.82645 25.3938 3.3955C25.1569 5.19331 24.8253 6.98174 24.4811 8.76705C24.3958 9.20165 24.2252 9.72379 23.9094 9.99268C22.0934 11.5435 20.2268 13.0318 18.2434 14.6545Z" fill="#041C33"/>
<path d="M65.337 5.8811C66.0381 7.2193 66.714 8.50747 67.4246 9.86756C68.9122 9.93634 70.1597 11.0838 70.2418 12.7566C70.4092 16.0614 69.6354 19.2256 68.6216 22.7712C66.8593 20.2917 64.9169 18.4689 65.2643 15.286C65.5959 12.2813 65.337 9.21409 65.337 5.8811Z" fill="#041C33"/>
<path d="M62.2261 62.4011C63.4704 59.0869 66.0066 57.8269 69.4491 57.9425C71.6947 58.0176 73.9434 57.9582 76.17 57.9582C75.1499 62.1697 66.9856 64.7961 62.2261 62.4011Z" fill="#041C33"/>
<path d="M0.882324 48.0938C8.12749 49.9385 10.7268 50.6951 14.2357 56.1604C9.41608 57.136 2.96049 54.8097 0.882324 48.0938Z" fill="#041C33"/>
<path d="M80.2818 47.8435C78.7911 53.5559 72.9767 57.3297 67.2349 56.6543C67.6391 55.8914 68.1634 55.1598 68.4224 54.3469C68.8835 52.8993 69.7584 52.2927 71.2554 51.7893C73.4599 51.0514 75.4244 49.6444 77.5404 48.6127C78.2984 48.2468 79.1922 48.1405 80.2818 47.8435Z" fill="#041C33"/>
<path d="M4.39746 57.608C5.1523 57.5205 5.72079 57.3391 6.25139 57.411C9.26442 57.8206 12.3311 58.0582 15.2463 58.8399C16.6517 59.2182 17.7697 60.6596 19.0836 61.6695C15.3094 64.7336 7.45155 62.4887 4.39746 57.608Z" fill="#041C33"/>
<path d="M10.4141 50.1385C4.83016 49.1098 -0.96218 41.0212 0.834898 36.8972C1.20758 37.2443 1.52657 37.5382 1.8424 37.8352C4.08796 39.9332 6.45353 41.928 8.51907 44.1885C9.26443 45.0046 9.68764 46.5178 9.53604 47.6153C9.39708 48.6189 9.62132 49.2318 10.4141 50.1385Z" fill="#041C33"/>
<path d="M56.4496 9.067C56.5318 9.66419 56.1464 10.1488 54.9716 9.73297C53.544 9.22646 52.1133 8.7262 50.6762 8.2447C49.7698 7.94142 49.4034 7.38488 49.3592 6.39686C49.2866 4.79915 48.9739 3.21083 48.8507 1.61312C48.8097 1.09723 48.8823 0.328076 49.2076 0.0967051C49.5203 -0.125285 50.3067 0.0623122 50.752 0.306189C54.0083 2.11651 56.0991 4.73662 56.4496 9.067Z" fill="#041C33"/>
<path d="M34.3033 0C34.0475 2.56384 33.8643 4.72746 33.5895 6.88171C33.5422 7.25378 33.16 7.82282 32.8505 7.88223C31.3124 8.17926 29.749 8.37936 28.1888 8.52319C26.7992 8.65138 26.0949 7.99166 26.4423 6.68161C26.7392 5.5654 27.2792 4.41167 28.0278 3.53934C28.9626 2.44815 30.1375 1.4914 31.3724 0.737884C32.1683 0.253257 33.2579 0.243877 34.3033 0Z" fill="#041C33"/>
<path d="M16.4307 70.4429C18.6731 69.53 20.7765 68.6639 22.8894 67.8166C23.2747 67.6602 23.878 67.6977 24.058 67.432C25.2329 65.7186 26.4804 66.7191 27.7027 67.2694C28.6438 67.6915 29.5534 68.1855 30.5167 68.667C27.2289 72.3752 19.4847 73.4539 16.4307 70.4429Z" fill="#041C33"/>
<path d="M80.3863 37.7915C81.3212 42.2845 76.3595 48.5502 71.5368 49.4163C70.6303 47.3121 71.7105 45.7863 73.0749 44.3543C73.9371 43.4476 74.7646 42.5002 75.6994 41.6716C77.168 40.3741 78.7188 39.1641 80.3863 37.7915Z" fill="#041C33"/>
<path d="M70.5858 65.9437C67.9928 68.8327 62.3742 69.6706 58.8464 67.8228C58.0631 67.4132 57.4409 66.7066 56.7461 66.1376C57.5388 65.5841 58.2716 64.6931 59.1369 64.5461C60.7098 64.2772 62.3837 64.2616 63.966 64.4836C66.1326 64.79 68.2518 65.4122 70.5858 65.9437Z" fill="#041C33"/>
<path d="M5.43003 19.8164C5.61953 20.0509 5.86588 20.2541 5.97642 20.5168C7.27764 23.5152 8.55676 26.5262 9.84851 29.5277C10.5591 31.1754 9.84851 32.4855 8.86943 34.0394C6.81021 31.0879 4.36884 28.6741 3.86035 25.1379C3.58874 23.2463 4.21092 20.8982 5.43003 19.8164Z" fill="#041C33"/>
<path d="M7.9788 41.534C3.45294 38.942 0.525184 31.8665 2.15487 27.7769C2.90023 28.9024 3.52558 29.9624 4.26778 30.941C5.58164 32.6794 6.98393 34.3522 8.3041 36.0843C8.53466 36.3876 8.69573 36.8597 8.65152 37.2255C8.4936 38.595 8.23778 39.9519 7.9788 41.534Z" fill="#041C33"/>
<path d="M72.5283 34.7211C71.5366 29.1651 75.0234 24.6596 75.1844 19.3818C79.0881 22.2021 77.4268 31.3318 72.5283 34.7211Z" fill="#041C33"/>
<path d="M73.5456 41.9092C72.7339 39.5736 73.056 37.5194 74.5247 35.6466C76.1796 33.5299 77.8251 31.4038 79.5622 29.1682C81.214 33.3454 78.1125 39.7487 73.5456 41.9092Z" fill="#041C33"/>
<path d="M9.37158 66.0626C11.0171 65.6186 12.2835 65.2184 13.5785 64.9432C15.2239 64.593 16.9136 64.4367 18.5402 64.0334C20.3846 63.5769 21.7837 64.2585 23.1323 65.3372C20.4257 69.0172 13.7964 69.5394 9.37158 66.0626Z" fill="#041C33"/>
<path d="M72.8695 14.8608C74.1013 16.5273 74.5687 18.1594 74.0223 20.1699C73.1885 23.2308 72.6042 26.3543 71.8999 29.4497C71.802 29.8749 71.622 30.2782 71.0882 30.6816C70.8861 29.8155 70.6871 28.9494 70.4818 28.0834C70.3144 27.3736 70.2955 26.5857 69.9544 25.9698C68.6374 23.581 69.6638 21.6019 70.8166 19.5383C71.6094 18.1125 72.1431 16.543 72.8695 14.8608Z" fill="#041C33"/>
<path d="M9.43169 12.7441C12.1384 21.3861 12.4195 24.2001 10.8719 26.9328C7.40406 25.11 6.33023 15.283 9.43169 12.7441Z" fill="#041C33"/>
<path d="M51.0737 68.5793C53.1993 67.7195 54.9458 66.3281 57.403 67.9258C59.0074 68.9701 61.0508 69.3547 62.8953 70.0394C63.2648 70.177 63.628 70.3365 64.0923 70.5272C63.3059 71.8967 62.0552 72.0186 60.9024 72.0061C57.3619 71.9686 53.5467 72.6158 51.0737 68.5793Z" fill="#041C33"/>
<path d="M46.7379 0.919189C45.8378 2.92648 45.2693 5.07135 42.531 5.26833C39.5022 5.48407 37.0451 4.99944 37.0229 0.919189C40.0865 0.919189 43.3238 0.919189 46.7379 0.919189Z" fill="#041C33"/>
<path d="M46.7627 70.768C48.2661 70.9368 49.6747 71.0963 51.4086 71.2933C50.4706 70.5679 49.8042 70.052 49.1346 69.533C49.2041 69.3704 49.2736 69.2109 49.343 69.0483C49.8705 69.1828 50.7169 69.1578 50.8748 69.4736C51.7655 71.2432 53.6289 71.781 54.9964 72.9285C55.4638 73.3224 55.7165 73.9634 56.0671 74.4918C55.4891 74.6513 54.9175 74.9233 54.3332 74.9514C50.3853 75.1265 49.1788 74.448 46.7627 70.768Z" fill="#041C33"/>
<path d="M26.6099 75.2048C26.373 75.1798 25.9845 75.2048 25.6466 75.0891C25.2834 74.9671 24.9644 74.717 24.6265 74.5232C24.8381 74.1886 24.9676 73.7102 25.2708 73.5383C27.371 72.3658 29.4808 71.1996 31.6537 70.1709C32.1496 69.9364 32.9107 70.2428 33.5487 70.3022C33.3497 70.8588 33.2708 71.5028 32.9297 71.9562C31.3947 73.9854 29.3229 75.0922 26.6099 75.2048Z" fill="#041C33"/>
<path d="M12.7603 41.2494C12.7792 27.3703 19.5727 16.7773 30.0994 12.6907C44.6181 7.05656 63.8333 13.6975 67.5159 32.6543C69.8404 44.6136 66.4041 54.7251 55.9059 61.7038C46.3205 68.0758 36.3276 67.9727 26.3757 62.4229C17.2356 57.3234 13.2498 49.1879 12.7603 41.2494ZM31.7701 51.4766C31.7891 51.6267 31.808 51.7799 31.8301 51.9299C38.1152 52.5177 44.4034 52.3114 50.7073 51.7611C49.5167 51.4234 48.3134 51.3202 47.1069 51.2827C44.4539 51.1983 44.3907 51.2108 44.3876 48.5375C44.3718 40.9305 44.4097 33.3234 44.4286 25.7163C44.4286 25.1848 44.4286 24.6532 44.4286 23.6652C40.7839 26.2541 37.2719 28.005 33.1819 28.524C34.0946 28.8367 34.9537 28.8398 35.8128 28.8367C38.1941 28.8273 38.491 29.0555 38.4942 31.3942C38.5036 36.9159 38.4752 42.4406 38.4278 47.9622C38.3994 51.0388 38.3678 51.0326 35.2348 51.017C34.5526 51.0138 33.8641 51.0107 33.185 51.0889C32.7018 51.1483 32.2407 51.3453 31.7701 51.4766Z" fill="#F2F2F2"/>
<path d="M31.7705 51.4767C32.2411 51.3422 32.7054 51.1484 33.1854 51.0921C33.8613 51.014 34.5498 51.0171 35.2352 51.0202C38.3682 51.0358 38.3998 51.0421 38.4282 47.9655C38.4756 42.4439 38.504 36.9191 38.4946 31.3975C38.4914 29.0588 38.1977 28.8305 35.8131 28.8399C34.9541 28.843 34.095 28.8399 33.1823 28.5272C37.2723 28.0113 40.7812 26.2573 44.429 23.6685C44.429 24.6565 44.429 25.188 44.429 25.7195C44.4132 33.3266 44.3722 40.9337 44.388 48.5408C44.3943 51.2141 44.4543 51.2015 47.1073 51.286C48.3137 51.3235 49.5171 51.4267 50.7077 51.7643C44.4037 52.3115 38.1156 52.5179 31.8305 51.9332C31.8084 51.78 31.7895 51.6299 31.7705 51.4767Z" fill="#041C33"/>
</g>
<defs>
<clipPath id="clip0_6622_1949">
<rect width="80" height="78" fill="white" transform="translate(0.5)"/>
</clipPath>
</defs>
</svg>
