<svg width="101" height="78" viewBox="0 0 101 78" fill="none" xmlns="http://www.w3.org/2000/svg">
<path d="M49.6374 0.00112764C56.6222 -0.0449981 63.3293 1.32032 69.4444 4.76361C80.8483 11.182 87.6988 20.9653 89.4632 34.1203C89.8753 37.1969 89.4883 40.3934 89.3494 43.53C89.313 44.3395 89.5042 44.7223 90.1872 45.0267C93.2767 46.3944 96.357 47.7851 99.4396 49.1688C99.5079 49.1988 99.5785 49.2311 99.6468 49.2611C101.329 50.0152 101.377 50.4557 99.9655 51.7104C98.4288 53.0757 96.8601 54.411 95.4258 55.8801C94.7246 56.5997 94.2237 57.5545 93.7775 58.4747C93.5499 58.9452 93.6842 59.5817 93.5817 60.1283C93.4474 60.8409 93.4451 61.7196 93.0262 62.2132C89.3904 66.4913 85.6771 70.7003 81.9821 74.9254C81.4288 75.5573 80.8324 76.1501 80.3019 76.7981C79.159 78.1911 78.2916 78.3295 76.6251 77.4393C74.0114 76.044 71.4342 74.5587 68.7387 73.3456C58.7281 68.8414 48.4467 68.5093 38.0855 71.8534C34.707 72.9443 31.5128 74.621 28.2549 76.0809C27.5013 76.4176 26.8547 76.9919 26.1376 77.4162C24.7329 78.2488 23.9269 78.0758 22.8341 76.8835C18.7589 72.4392 14.6813 67.9996 10.5674 63.5923C9.32206 62.257 7.40965 61.3898 7.72156 59.0628C6.44662 57.3608 5.2673 55.5734 3.86715 53.989C2.89729 52.8912 1.6565 52.0194 0.470353 51.1407C-0.251353 50.6056 0.0127414 50.2182 0.547759 49.9437C1.45843 49.4779 2.43967 49.1573 3.37083 48.7306C6.33734 47.3722 9.30384 46.0138 12.2385 44.5908C12.5231 44.4525 12.7894 43.8482 12.7462 43.5046C10.4126 25.5317 21.0287 7.26593 39.6337 1.36414C42.8848 0.333233 46.2406 0.0103528 49.6374 0.00112764ZM51.3426 44.9022C54.1065 45.0706 56.9136 44.9806 59.6229 45.4626C64.3196 46.2998 68.9595 47.4622 73.6107 48.5484C75.5027 48.9912 75.5846 49.1019 76.2699 47.2269C78.1003 42.2223 78.6376 36.987 76.978 31.9478C73.5493 21.528 66.1342 15.0358 55.7229 12.605C45.7078 10.2664 37.168 13.6451 30.6454 21.6156C24.1614 29.5377 22.6884 38.4746 26.3106 48.1956C26.6976 49.2357 27.112 49.4133 28.1342 49.0627C35.6541 46.4751 43.3492 44.8607 51.3426 44.9022ZM49.2253 65.4097C49.9288 65.4835 50.5298 65.6311 51.1104 65.5688C51.4155 65.5365 51.8867 65.1675 51.9323 64.8931C52.0894 63.929 52.6995 63.906 53.4349 63.9083C56.9523 63.9198 60.3537 64.7409 63.689 65.6841C68.8844 67.1555 73.8953 69.1413 78.3326 72.377C79.9558 73.5601 80.0173 73.5163 81.3605 71.9503C83.9446 68.936 86.5195 65.9125 89.0944 62.8912C90.8611 60.8202 90.8725 60.6887 88.6801 59.132C78.756 52.0747 67.7938 47.988 55.6228 47.5083C49.1593 47.2546 42.7573 47.7343 36.4099 49.1596C28.3232 50.9746 20.8079 54.1181 13.8117 58.5716C12.8304 59.1966 11.9493 59.9784 11.0865 60.6403C14.7929 64.5333 18.4583 68.3041 22.01 72.1809C22.8227 73.0666 23.3509 73.1588 24.2502 72.4761C27.5172 70.0015 31.2897 68.5024 35.0302 66.9895C39.1988 65.3013 43.5177 64.1435 48.0255 63.7999C49.6169 63.68 49.7421 63.7699 49.2253 65.4097ZM88.3408 37.7158C87.9675 35.3034 87.7375 32.4898 87.0727 29.7845C85.3561 22.7964 81.4038 17.093 76.4816 12.0584C71.5845 7.05144 65.5195 4.12707 58.8055 2.62107C45.6441 -0.330978 34.2243 3.24146 24.6395 12.658C20.1977 17.0215 17.2221 22.3629 15.5169 28.4907C14.3877 32.5497 13.823 36.588 14.0029 40.767C14.0598 42.0747 14.0348 43.4262 15.7719 43.7237C16.0109 43.7652 16.2135 44.0097 16.4344 44.1596C18.0645 45.2827 19.7219 46.3667 21.3133 47.5429C22.2536 48.2371 23.0823 49.0835 23.9747 49.8446C24.1819 50.0222 24.4483 50.1305 24.685 50.2712C24.7533 49.9737 24.9378 49.6439 24.8695 49.3833C24.4961 47.935 24.043 46.5097 23.6492 45.0659C21.9166 38.696 22.2581 32.416 25.261 26.5603C28.8696 19.5261 34.3564 14.4523 41.9081 11.89C44.9452 10.8591 47.9754 10.1073 51.2584 10.3909C60.6542 11.1981 68.3881 15.1004 74.1093 22.7549C80.0424 30.6932 80.7026 39.4202 77.5676 48.6361C77.3855 49.1688 76.8049 49.7085 77.6883 50.1882C78.4555 50.6033 79.0247 50.6056 79.6735 49.8699C80.4977 48.9382 81.438 48.0918 82.4238 47.3353C83.7829 46.2929 85.2741 45.4303 86.6151 44.3694C87.1592 43.9382 87.6829 43.2301 87.8172 42.5659C88.1154 41.1107 88.1564 39.6 88.3408 37.7158ZM78.3121 75.4351C78.3553 75.2944 78.3963 75.1537 78.4396 75.0131C69.3693 69.0721 59.6069 65.5365 48.5673 66.3806C40.731 66.9803 26.1603 72.3631 24.4938 75.5873C25.4933 75.1353 26.2195 74.7894 26.9594 74.4757C30.4132 73.0089 33.8191 71.4083 37.3365 70.1214C45.7215 67.0541 54.2955 67.001 62.874 69.1159C67.8622 70.3474 72.5066 72.5776 77.0645 74.9554C77.4538 75.163 77.8932 75.2783 78.3121 75.4351ZM22.397 51.1914C20.0702 49.524 18.0258 48.0249 15.9449 46.5812C14.9227 45.8731 14.5516 45.9769 13.9574 47.0563C13.7479 47.4391 13.6159 47.9327 13.6386 48.3639C13.7365 50.315 13.8913 52.2616 14.0507 54.2081C14.0758 54.5194 14.2306 54.8192 14.3467 55.1951C17.0423 53.8552 19.599 52.5821 22.397 51.1914ZM4.90987 51.2883C6.70161 53.6361 8.4205 55.887 10.1826 58.1956C10.8064 57.762 11.8287 57.5775 11.7285 56.2653C11.519 53.5231 11.3802 50.7763 11.2071 47.958C9.17863 49.0304 7.05677 50.1536 4.90987 51.2883ZM90.597 58.5877C90.7427 58.5739 90.8861 58.5623 91.0319 58.5485C91.9653 55.2736 94.966 53.5877 96.6575 50.9608C94.4651 49.9045 92.3068 48.8667 89.9595 47.7366C89.9595 50.7971 89.9163 53.59 89.9891 56.3783C90.0051 57.1209 90.383 57.852 90.597 58.5877ZM81.438 51.6527C83.2456 52.6905 84.8074 53.5969 86.3761 54.4848C87.0044 54.84 87.2025 54.3972 87.2731 53.8967C87.4438 52.6859 87.651 51.4728 87.7079 50.2551C87.7603 49.1411 87.6373 48.018 87.5918 46.8994C87.4689 46.8464 87.3459 46.7957 87.223 46.7426C85.3698 48.3155 83.5166 49.8884 81.438 51.6527Z" fill="#041C33"/>
<path d="M51.3426 44.9022C43.3492 44.8607 35.6541 46.4774 28.1365 49.0628C27.1143 49.4156 26.6999 49.2357 26.3129 48.1956C22.6907 38.4746 24.1637 29.5377 30.6477 21.6157C37.1703 13.6451 45.7101 10.2664 55.7252 12.605C66.1364 15.0358 73.5538 21.528 76.9802 31.9478C78.6376 36.987 78.1004 42.2223 76.2722 47.227C75.5869 49.102 75.5027 48.9913 73.613 48.5485C68.9618 47.4622 64.3219 46.2998 59.6252 45.4626C56.9136 44.9806 54.1065 45.0706 51.3426 44.9022ZM42.2974 41.7034C42.1221 44.0166 42.5182 44.2749 44.1187 43.5069C45.487 42.8496 46.8849 42.2431 48.2213 41.5235C50.6778 40.202 52.9841 40.4027 55.3131 41.8902C56.3946 42.5798 57.6126 43.0641 58.7987 43.5623C59.4908 43.8529 59.9849 43.7352 59.8323 42.7412C59.4931 40.541 59.2404 38.3293 58.8898 36.1314C58.7555 35.2942 58.9308 34.6923 59.525 34.065C60.8614 32.6558 62.175 31.2144 63.3634 29.6807C64.2787 28.4976 64.0282 27.9603 62.5689 27.6558C60.7885 27.2822 58.9945 26.9501 57.1959 26.6803C56.3103 26.5465 55.7594 26.106 55.3541 25.3403C54.1725 23.1055 52.9659 20.8869 51.7729 18.659C51.2333 17.6488 50.8782 17.6027 50.3022 18.5806C49.2344 20.391 48.0619 22.1646 47.2264 24.0857C46.4022 25.9815 45.1114 26.8325 43.1671 27.0239C41.8125 27.1577 40.4533 27.3768 39.1374 27.7181C38.5978 27.8588 37.8738 28.3569 37.7668 28.8182C37.6575 29.291 38.0787 30.0405 38.4794 30.458C39.7475 31.7771 41.1545 32.9603 42.4158 34.2841C42.7687 34.6554 42.9918 35.3565 42.9485 35.8777C42.7778 38.0203 42.4795 40.1536 42.2974 41.7034Z" fill="white"/>
<path d="M49.2253 65.4097C49.7421 63.7699 49.6146 63.68 48.0277 63.7999C43.5199 64.1435 39.2011 65.3036 35.0325 66.9895C31.2919 68.5047 27.5218 70.0015 24.2524 72.4761C23.3532 73.1565 22.8227 73.0666 22.0122 72.1809C18.4606 68.3018 14.7929 64.5333 11.0887 60.6403C11.9516 59.9807 12.8327 59.1966 13.8139 58.5716C20.8101 54.1181 28.3254 50.9746 36.4122 49.1596C42.7595 47.7343 49.1615 47.2546 55.625 47.5083C67.7961 47.988 78.756 52.0747 88.6823 59.132C90.8725 60.6887 90.8611 60.8202 89.0966 62.8912C86.5217 65.9125 83.9468 68.936 81.3628 71.9503C80.0196 73.5163 79.9558 73.5601 78.3348 72.377C73.8976 69.139 68.8866 67.1555 63.6913 65.6841C60.3559 64.7386 56.9523 63.9175 53.4371 63.9083C52.7018 63.906 52.0916 63.9314 51.9345 64.8931C51.889 65.1675 51.42 65.5365 51.1126 65.5688C50.5321 65.6334 49.9288 65.4835 49.2253 65.4097ZM24.8034 62.8082C24.8899 62.7851 24.9764 62.7644 25.0629 62.7413C25.5638 63.4793 26.0283 64.245 26.5815 64.9438C27.0163 65.4927 27.4648 66.2492 28.3391 65.8525C29.2042 65.4581 30.3289 65.1768 30.2173 63.8645C30.0124 61.4636 29.787 59.0628 29.4615 56.6758C29.3476 55.8386 28.6442 56.2076 28.355 56.542C28.0704 56.8718 27.8746 57.4322 27.9111 57.8658C28.0181 59.0859 28.2822 60.2897 28.4529 61.5028C28.528 62.031 28.5235 62.5683 28.5576 63.1034C28.437 63.1449 28.314 63.1841 28.1934 63.2256C27.8815 62.8751 27.5149 62.5614 27.269 62.167C26.7409 61.3253 26.2946 60.4327 25.7755 59.5863C25.3521 58.899 25.0516 57.8428 23.9815 58.191C22.932 58.5323 23.3122 59.5725 23.2712 60.382C23.2166 61.5005 23.1209 62.6168 23.0435 63.7353C22.9297 63.7515 22.8159 63.7653 22.702 63.7814C22.5472 63.5485 22.3947 63.311 22.2353 63.0803C21.5819 62.1417 21.0082 61.1223 20.2296 60.3082C19.9199 59.983 19.1504 60.1098 18.5904 60.0314C18.6404 60.4765 18.5494 61.0139 18.7657 61.3506C20.1704 63.537 21.6138 65.698 23.1209 67.8128C23.3623 68.1519 23.9792 68.2187 24.4232 68.4125C24.5507 67.9743 24.7761 67.5407 24.7897 67.1002C24.833 65.6703 24.8034 64.2404 24.8034 62.8082ZM52.9681 59.2265C53.2914 59.6278 53.5601 60.0914 53.9448 60.405C54.4206 60.7948 54.9739 61.1246 55.543 61.346C55.691 61.4037 56.2397 60.9655 56.2465 60.7441C56.3217 58.2902 56.333 55.8317 56.349 53.3755C56.3535 52.6213 55.8914 52.4022 55.2266 52.4115C54.5618 52.4207 54.2658 52.7482 54.2567 53.4078C54.2385 54.7131 54.2157 56.0185 54.1748 57.3215C54.1679 57.5499 54.0678 57.7736 53.9516 58.2279C52.811 56.5559 51.7501 55.119 50.8212 53.5992C50.1268 52.4622 49.0841 52.8058 48.1757 52.8773C47.9207 52.8981 47.5815 53.8091 47.5428 54.3326C47.413 56.0139 47.3834 57.7067 47.3584 59.3949C47.3334 61.2007 48.2076 61.685 49.6715 60.9447C49.5964 59.268 49.5281 57.6906 49.4575 56.1131C49.6191 56.0762 49.7785 56.0416 49.9402 56.0047C50.3727 57.1232 50.7802 58.2533 51.247 59.358C51.4632 59.87 51.7934 60.3336 52.0734 60.8202C52.2783 60.3728 52.4809 59.923 52.6949 59.4779C52.72 59.418 52.7974 59.3787 52.9681 59.2265ZM62.9195 57.9535C62.792 57.9327 62.6645 57.9096 62.5347 57.8889C62.2228 56.8072 61.8494 55.7394 61.624 54.6416C61.4556 53.8229 61.4556 53.0226 60.3149 52.9996C59.1903 52.9788 58.5255 53.387 58.3843 54.5909C58.1385 56.685 57.8106 58.7722 57.6057 60.8686C57.5784 61.1431 58.0132 61.5928 58.3342 61.7427C58.8397 61.9779 59.2973 61.8142 59.4066 61.1361C59.5295 60.3797 59.6775 59.6278 59.8232 58.8737C59.9302 58.3248 60.0509 57.7782 60.2284 56.941C60.727 58.56 61.0981 59.84 61.5284 61.0969C61.6263 61.3852 61.9633 61.8119 62.1522 61.7934C62.455 61.7634 62.8375 61.4752 62.99 61.1869C63.4158 60.3797 63.7391 59.5171 64.1011 58.6753C64.2399 58.3525 64.3697 58.0273 64.504 57.7044C64.611 57.7228 64.7158 57.7436 64.8228 57.762C64.8387 58.1149 64.882 58.4678 64.8637 58.8183C64.8137 59.8146 64.7044 60.8087 64.693 61.805C64.6884 62.1278 64.9184 62.4553 65.039 62.7805C65.2439 62.4784 65.5581 62.2039 65.6378 61.8718C66.1615 59.7155 66.6122 57.5406 67.1336 55.3866C67.2861 54.7593 67.7392 54.1665 66.7762 53.7975C65.3578 53.2509 65.0664 53.3386 64.5905 54.4179C64.0715 55.6103 63.4818 56.775 62.9195 57.9535ZM69.7335 64.1505C70.8742 64.7132 72.0785 65.3428 73.317 65.894C73.6813 66.0554 74.3643 66.1823 74.51 66.0001C74.8128 65.6242 74.9699 65.0245 74.9471 64.5287C74.938 64.3234 74.3256 64.1182 73.9659 63.9636C73.6562 63.8299 73.1372 63.8576 73.0324 63.6477C72.8412 63.2695 72.889 62.7667 72.8389 62.3147C73.1645 62.3308 73.5106 62.2824 73.8088 62.3815C74.1571 62.4969 74.4417 62.822 74.7923 62.9143C75.5186 63.1057 76.1697 62.4346 76.3154 61.4336C76.4543 60.4858 75.7462 60.751 75.275 60.6864C74.6352 60.5988 73.9932 60.5273 73.3512 60.4466C73.3239 60.2851 73.2943 60.126 73.2669 59.9646C73.8452 59.6693 74.4212 59.3764 75.0746 59.042C74.8948 58.959 74.6648 58.9313 74.6011 58.8114C74.4326 58.4977 74.337 58.1426 74.2118 57.8059C74.5601 57.7528 74.9312 57.6029 75.2522 57.6767C75.5004 57.7344 75.6757 58.0872 75.9033 58.281C76.2221 58.5485 76.559 58.9821 76.8914 58.9867C77.1646 58.989 77.6541 58.4816 77.6678 58.1818C77.6837 57.8128 77.3991 57.2731 77.0804 57.0771C76.1811 56.519 75.2044 56.09 74.2482 55.6287C73.5197 55.2782 73.103 55.4834 72.8025 56.2952C71.8326 58.9037 70.7831 61.4821 69.7335 64.1505ZM35.8954 59.2542C36.1367 58.9152 36.378 58.6338 36.5579 58.3156C37.1065 57.3446 37.1407 56.3437 36.6034 55.3566C36.1071 54.441 35.2442 54.5148 34.4019 54.5817C33.5732 54.6486 32.7422 54.7108 31.918 54.8146C31.062 54.923 30.8275 55.322 31.0551 56.2468C31.5674 58.3225 31.8998 60.4419 32.362 62.5314C32.4371 62.8751 32.7695 63.3802 33.0313 63.4147C33.6392 63.4909 34.1446 63.198 34.0626 62.4092C33.9898 61.7219 33.8623 61.0324 33.901 60.352C33.9169 60.0914 34.2994 59.7062 34.5681 59.6532C34.7638 59.614 35.1395 59.9853 35.2647 60.2551C35.4377 60.6241 35.3581 61.1223 35.5539 61.4682C35.7838 61.8788 36.1754 62.4484 36.5283 62.4738C37.0086 62.5084 37.8214 62.1924 37.9398 61.8396C38.0901 61.3852 37.826 60.6334 37.4913 60.2159C37.1475 59.78 36.5009 59.5979 35.8954 59.2542ZM78.4828 69.0513C78.6353 68.085 78.8585 67.2801 78.863 66.4775C78.8676 65.5734 79.0861 65.2598 80.0469 65.4028C82.2325 65.7303 82.8039 65.2944 83.3435 63.1518C83.7328 61.5997 83.5575 61.0393 82.2575 60.1098C81.6428 59.6716 80.9325 59.3695 80.3155 58.9359C79.6075 58.4378 79.2045 58.6707 78.9381 59.3926C78.1823 61.4336 77.3718 63.4586 76.6979 65.5273C76.0786 67.4231 76.3291 67.8543 78.4828 69.0513ZM43.8728 60.6726C44.0845 60.6726 44.3054 60.6818 44.5217 60.6703C46.0812 60.5872 46.1996 60.4074 45.5826 58.9682C44.8427 57.2454 44.1119 55.5157 43.3014 53.8252C43.1215 53.4516 42.5683 52.9534 42.2814 53.0088C41.6417 53.1333 40.649 53.4539 40.5261 53.899C39.7976 56.5351 39.2762 59.2311 38.6479 62.0771C39.3513 61.9825 39.9273 61.8834 40.5102 61.8326C41.2342 61.7681 41.4869 61.4313 41.3548 60.6841C41.2182 59.9115 41.2524 59.2288 42.3679 59.2312C43.7772 59.2381 43.8523 59.2542 43.8728 60.6726ZM68.5998 63.6177C68.7773 62.8566 68.898 62.2639 69.0551 61.6827C69.6197 59.5702 70.1843 57.4553 70.7763 55.352C70.9766 54.6393 70.7171 54.3718 70.0386 54.2842C68.6703 54.1089 68.5019 55.1975 68.2514 56.0738C67.6618 58.138 67.1518 60.2252 66.6555 62.317C66.6008 62.5522 66.7739 63.0088 66.9674 63.1034C67.4637 63.3479 68.0306 63.4493 68.5998 63.6177Z" fill="white"/>
<path d="M88.3408 37.7158C88.1564 39.6 88.1178 41.1107 87.8218 42.5659C87.6875 43.2301 87.1638 43.9382 86.6197 44.3694C85.2787 45.4326 83.7853 46.2952 82.4284 47.3353C81.4426 48.0918 80.5023 48.9382 79.6781 49.8699C79.0293 50.6033 78.4601 50.6033 77.6929 50.1882C76.8095 49.7085 77.3901 49.1688 77.5722 48.6361C80.7072 39.4202 80.047 30.6932 74.1139 22.7549C68.3927 15.1004 60.6588 11.1982 51.263 10.391C47.9823 10.1096 44.9498 10.8614 41.9127 11.89C34.361 14.4523 28.8742 19.5261 25.2656 26.5603C22.2604 32.416 21.9189 38.696 23.6538 45.0659C24.0454 46.5097 24.5007 47.935 24.8741 49.3833C24.9424 49.6462 24.7579 49.9737 24.6896 50.2712C24.4506 50.1306 24.1865 50.0222 23.9793 49.8446C23.0869 49.0835 22.2582 48.2371 21.3179 47.5429C19.7265 46.3667 18.0691 45.2827 16.439 44.1596C16.2204 44.0074 16.0155 43.7629 15.7765 43.7237C14.0394 43.4262 14.0644 42.0747 14.0075 40.767C13.8276 36.588 14.3923 32.5497 15.5215 28.4907C17.2267 22.3629 20.2001 17.0215 24.6418 12.658C34.2266 3.24147 45.6464 -0.330968 58.8079 2.62108C65.5218 4.12708 71.5868 7.05145 76.484 12.0584C81.4084 17.093 85.3607 22.7965 87.075 29.7845C87.7353 32.4898 87.9675 35.3034 88.3408 37.7158ZM52.1076 4.32773C51.946 4.27238 51.7821 4.21472 51.6204 4.15937C51.3518 4.74747 51.1059 5.34711 50.8054 5.91907C50.5071 6.48872 50.6528 7.40662 49.5122 7.55192C49.5122 6.49102 49.5122 5.50855 49.5122 4.52376C49.387 4.49609 49.2641 4.46611 49.1388 4.43843C48.8816 5.1234 48.6266 5.80606 48.2373 6.83927C47.848 6.11971 47.6294 5.66999 47.3676 5.24794C47.1991 4.97579 46.9646 4.74286 46.762 4.49378C46.5161 4.74978 46.1837 4.96426 46.0448 5.26869C45.7261 5.97211 45.503 6.71935 45.2412 7.44813C45.1046 7.44583 44.968 7.44352 44.8314 7.44121C44.6993 6.80698 44.6242 6.15431 44.4125 5.55006C44.2964 5.22026 43.948 4.97118 43.7044 4.68751C43.4927 5.02884 43.0988 5.37248 43.1079 5.70919C43.1261 6.62248 43.3242 7.53346 43.4335 8.44675C43.5223 9.17554 43.8114 9.34851 44.5013 9.00949C45.355 8.58974 46.2611 8.28301 47.1468 7.92784C47.1695 8.00856 47.1946 8.08928 47.2173 8.16769C47.4882 7.7664 47.7569 7.36511 47.914 7.12987C48.5378 7.70413 48.8998 8.27148 49.3893 8.43292C50.2863 8.72812 51.1036 8.46751 51.3927 7.16677C51.6386 7.67415 51.7274 8.16539 51.9346 8.22535C52.3876 8.3545 53.3234 8.29454 53.3256 8.25303C53.403 7.21981 53.3871 6.18198 53.3871 5.00347C53.0251 5.61925 52.7087 6.15892 52.3922 6.69628C52.2966 6.664 52.201 6.63171 52.1053 6.59942C52.1076 5.84065 52.1076 5.08419 52.1076 4.32773ZM72.6136 15.6193C72.6637 15.8084 72.6933 15.956 72.7411 16.099C73.2056 17.4828 73.8111 17.6857 74.9973 16.8947C75.4299 16.6041 75.9125 16.3896 76.3633 16.1267C76.5659 16.0068 76.7572 15.8615 76.9279 15.6977C76.9552 15.67 76.8528 15.4117 76.8095 15.4117C76.5727 15.414 76.2996 15.3956 76.1038 15.5063C75.4344 15.8845 74.7901 16.3112 74.1367 16.7194C74.0343 16.6248 73.9341 16.5326 73.8316 16.438C74.1481 15.9745 74.4327 15.4832 74.7901 15.0543C75.2637 14.4892 75.505 14.0164 74.822 13.4007C74.18 12.8195 73.7679 13.0801 73.3126 13.6105C72.8276 14.1756 72.2334 14.5192 71.473 14.4339C71.5527 14.1871 71.687 14.0649 71.8304 13.9542C73.2033 12.9002 73.2238 12.153 71.8828 11.0644C71.5891 10.8268 71.2544 10.6377 70.9334 10.4371C70.2732 10.0243 69.7541 10.301 69.3671 10.8499C68.9049 11.5072 67.9965 12.1968 68.6727 13.0524C69.6539 14.2909 70.7741 15.4717 72.6136 15.6193ZM81.6975 22.3952C80.4772 23.1447 79.4664 23.7651 78.262 24.5031C78.5148 24.9897 78.9951 25.6286 79.1955 26.3481C79.8011 28.5207 79.7578 28.5322 81.8751 27.9141C81.948 27.8933 82.0231 27.8795 82.096 27.8588C83.125 27.552 83.5325 26.3135 82.9543 25.3933C82.7289 25.0359 82.631 24.5977 82.4671 24.1987C82.2235 23.6175 81.9707 23.0363 81.6975 22.3952ZM38.4521 9.38311C38.7094 9.48919 39.1283 9.53301 39.3355 9.76826C40.2393 10.7899 41.0202 10.3933 41.6918 9.84206C41.2024 8.91724 40.6878 8.12618 40.3463 7.26363C39.809 5.89831 39.8591 5.87755 38.484 6.39185C35.8522 7.37664 35.834 7.38586 37.0816 9.95506C37.3161 10.4394 37.7532 10.8222 38.0947 11.2512C38.1994 10.7046 38.3019 10.1626 38.4521 9.38311ZM62.9878 7.50348C62.9195 6.06436 61.8928 5.19489 60.3332 5.26177C59.311 5.30559 58.266 6.82313 58.3161 8.19076C58.3594 9.34159 60.0987 10.4186 61.7425 10.3125C62.4483 10.2664 63.0539 8.89417 62.9878 7.50348ZM22.5564 18.3499C22.2604 19.0303 22.1899 19.3947 21.9827 19.6368C20.9172 20.873 20.9013 20.8661 22.29 21.7125C22.6133 21.9085 22.9389 22.1415 23.294 22.2337C23.6515 22.3283 24.2093 22.439 24.3982 22.2522C25.1632 21.498 25.8234 20.6332 26.5178 19.8052C26.5315 19.7891 26.5042 19.7291 26.4837 19.6991C25.8804 18.8227 25.2975 17.9279 24.6464 17.0907C24.5348 16.9454 24.1045 16.9708 23.8655 17.0515C23.779 17.0815 23.7266 17.5543 23.8222 17.7365C24.1023 18.2738 24.5303 18.7397 24.7716 19.2932C24.9196 19.6322 24.9993 20.2549 24.8103 20.444C24.2776 20.9768 23.9771 20.4118 23.6947 19.9966C23.3715 19.5169 23.0368 19.0441 22.5564 18.3499ZM62.2593 10.9191C63.4887 11.0944 64.1353 10.8384 64.6134 10.1396C64.9162 9.69907 65.1712 9.20091 65.5559 8.85035C65.779 8.6474 66.2594 8.55515 66.544 8.65201C66.7626 8.72581 67.0403 9.22859 66.9766 9.44768C66.7626 10.1834 66.4097 10.8776 66.1069 11.5925C65.4945 11.2973 65.1165 11.1151 64.7409 10.9329C64.6817 11.0413 64.6225 11.1497 64.5656 11.2604C65.1575 11.6709 65.7312 12.1161 66.355 12.4712C66.519 12.5658 66.8878 12.4597 67.0745 12.3213C69.0347 10.8868 68.9163 8.79731 66.8218 7.66723C66.5918 7.54269 66.3368 7.41123 66.0841 7.39278C65.7631 7.36972 65.3032 7.33743 65.1325 7.52424C64.199 8.54592 63.3362 9.63218 62.2593 10.9191ZM77.7111 16.8739C76.9962 17.5266 76.2791 18.0986 75.6803 18.7766C75.4686 19.0142 75.3934 19.5907 75.5278 19.8836C75.8374 20.564 76.3132 21.1659 76.7253 21.8048C79.6189 19.3393 79.7783 18.6267 77.7111 16.8739ZM19.278 24.5723C18.6838 24.9944 18.3582 25.4118 18.8636 26.016C19.3577 26.6087 21.0197 27.0446 21.3202 26.6987C21.368 26.6433 21.4408 26.5603 21.4295 26.505C21.22 25.5086 22.1102 25.248 22.5906 24.7222C23.3965 23.8366 23.351 23.5921 22.2855 23.1101C21.8757 22.9233 21.5251 22.5751 21.1039 22.4505C20.6873 22.3283 19.9542 22.2153 19.8221 22.4136C19.5102 22.8818 19.4738 23.5368 19.3258 24.118C19.4419 24.1733 19.5558 24.2287 19.6719 24.284C20.1705 23.7167 20.6827 23.0179 21.352 23.9265C21.4886 24.111 21.4044 24.623 21.2405 24.8421C20.5211 25.7923 19.8472 25.4556 19.278 24.5723ZM57.1687 8.5367C56.7885 8.48365 56.3946 8.46982 56.0281 8.36373C55.657 8.25533 55.3109 8.05699 54.9535 7.89555C55.1584 7.60265 55.3564 7.30284 55.5704 7.01686C55.7708 6.74702 55.9848 6.49102 56.2603 6.14277C55.6501 5.99056 55.2426 5.88908 54.8373 5.78761C54.8487 5.65384 54.8578 5.52008 54.8692 5.38631C55.3496 5.38631 55.8323 5.38631 56.5767 5.38631C56.5107 5.01961 56.431 4.3162 56.3787 4.3162C55.8095 4.33926 55.2107 4.38539 54.6916 4.60218C54.2864 4.77284 53.7377 7.98319 53.9494 8.40524C53.9836 8.47212 54.0337 8.53209 54.0838 8.58513C54.5459 9.07406 56.4424 9.21475 57.1687 8.5367ZM30.42 11.1797C31.0552 12.2637 31.4627 13.1723 32.0774 13.8988C32.2892 14.1502 33.0223 13.9957 33.5004 13.9196C33.5778 13.908 33.6711 13.3199 33.5914 13.0478C33.3228 12.1553 32.9995 11.2743 32.6443 10.4117C32.5351 10.1488 32.0979 9.75211 32.0706 9.77287C31.5447 10.1719 31.0575 10.6193 30.42 11.1797ZM28.799 17.5866C28.1229 16.7355 27.5059 15.9929 26.9253 15.218C26.5816 14.7591 26.2833 14.6576 25.8212 15.0796C25.038 15.7923 25.0744 16.2628 26.1103 17.6188C27.1439 18.9726 27.795 18.9496 28.799 17.5866ZM34.2927 8.17C33.7349 9.55608 34.2995 11.7171 35.1874 12.2936C35.3445 12.3951 35.6336 12.4435 35.7884 12.3674C36.2779 12.1184 36.7332 11.8001 37.2091 11.5049C36.2551 10.4117 35.3354 9.36235 34.2927 8.17ZM21.6184 28.41C21.6344 28.2554 21.648 28.1009 21.6639 27.9487C20.4163 27.5958 19.1755 27.1945 17.9097 26.9293C17.6798 26.8809 17.3383 27.3906 17.0491 27.6443C17.2836 27.8541 17.4931 28.2001 17.7549 28.2462C18.7589 28.4261 19.7789 28.5322 20.7943 28.6152C21.0606 28.6383 21.3429 28.4838 21.6184 28.41ZM78.0207 23.6336C78.9542 22.9856 79.8648 22.439 80.6548 21.7494C80.8506 21.5787 80.73 20.9284 80.607 20.5501C80.5683 20.4325 79.9195 20.338 79.751 20.4786C79.1522 20.9837 78.6354 21.588 78.0981 22.1645C77.6906 22.6027 77.3559 23.0663 78.0207 23.6336ZM29.7917 16.5372C29.901 16.4265 30.0102 16.3181 30.1195 16.2074C29.7689 15.2549 29.4479 14.2886 29.0426 13.3591C28.9379 13.1193 28.5737 12.9971 28.3278 12.8218C28.1775 13.14 27.8428 13.509 27.9111 13.765C28.1069 14.4938 28.4075 15.2134 28.7922 15.8615C28.9812 16.1751 29.4502 16.3181 29.7917 16.5372ZM29.7143 11.8716C29.5321 11.98 29.35 12.0884 29.1679 12.1968C29.6801 13.2115 30.1628 14.2448 30.7274 15.2295C30.823 15.3979 31.3079 15.4855 31.5151 15.391C31.6677 15.3218 31.8065 14.7983 31.7041 14.6437C31.0803 13.6912 30.3859 12.7895 29.7143 11.8716Z" fill="white"/>
<path d="M78.3121 75.4351C77.8932 75.2783 77.4538 75.1629 77.0622 74.9554C72.5043 72.5776 67.8621 70.3451 62.8717 69.1159C54.2954 67.001 45.7192 67.054 37.3342 70.1214C33.8168 71.4083 30.4109 73.0089 26.9572 74.4757C26.2195 74.7893 25.4933 75.1353 24.4915 75.5873C26.1603 72.3631 40.7288 66.9802 48.5651 66.3806C59.6047 65.5365 69.367 69.0721 78.4373 75.013C78.3963 75.1537 78.3553 75.2944 78.3121 75.4351Z" fill="white"/>
<path d="M22.397 51.1914C19.599 52.5821 17.0423 53.8552 14.3467 55.1951C14.2306 54.8192 14.0758 54.5194 14.0507 54.2081C13.8913 52.2616 13.7342 50.315 13.6386 48.3639C13.6181 47.9303 13.7479 47.4368 13.9574 47.0563C14.5493 45.9769 14.9227 45.8731 15.9449 46.5812C18.0258 48.0249 20.0702 49.524 22.397 51.1914Z" fill="white"/>
<path d="M4.90987 51.2883C7.05677 50.1536 9.17868 49.0327 11.2072 47.9603C11.3802 50.7763 11.5168 53.5254 11.7286 56.2676C11.8287 57.5798 10.8065 57.7643 10.1827 58.1979C8.42055 55.8847 6.70161 53.6361 4.90987 51.2883Z" fill="white"/>
<path d="M90.597 58.5877C90.383 57.852 90.0074 57.1209 89.9869 56.3783C89.914 53.5877 89.9573 50.7971 89.9573 47.7366C92.3045 48.8667 94.4651 49.9068 96.6553 50.9608C94.9637 53.5854 91.9631 55.2736 91.0296 58.5485C90.8862 58.5623 90.7404 58.5739 90.597 58.5877Z" fill="white"/>
<path d="M81.438 51.6527C83.5166 49.8884 85.3698 48.3155 87.223 46.7426C87.3459 46.7957 87.4689 46.8464 87.5918 46.8994C87.6373 48.018 87.7603 49.1411 87.7079 50.2551C87.651 51.4728 87.4438 52.6859 87.2731 53.8967C87.2025 54.3972 87.0044 54.84 86.3761 54.4848C84.8074 53.5969 83.2479 52.6905 81.438 51.6527Z" fill="white"/>
<path d="M42.2974 41.7034C42.4795 40.1513 42.7778 38.0203 42.9485 35.88C42.9895 35.3565 42.7686 34.6577 42.4158 34.2864C41.1545 32.9603 39.7475 31.7794 38.4794 30.4603C38.0787 30.0428 37.6575 29.2933 37.7668 28.8205C37.8738 28.3592 38.5978 27.8611 39.1374 27.7204C40.4533 27.3767 41.8124 27.16 43.1671 27.0262C45.1113 26.8348 46.4022 25.9838 47.2264 24.088C48.0619 22.1692 49.2344 20.3956 50.3022 18.5829C50.8782 17.605 51.2333 17.6511 51.7729 18.6613C52.9659 20.8892 54.1725 23.1101 55.3541 25.3426C55.7593 26.1083 56.3103 26.5488 57.1959 26.6826C58.9945 26.9524 60.7862 27.2845 62.5689 27.6581C64.0305 27.9649 64.2809 28.5022 63.3634 29.683C62.175 31.219 60.8614 32.6604 59.525 34.0673C58.9308 34.6946 58.7554 35.2965 58.8898 36.1337C59.2404 38.3316 59.4931 40.5433 59.8323 42.7435C59.9849 43.7375 59.4908 43.8552 58.7987 43.5646C57.6103 43.0664 56.3923 42.5821 55.3131 41.8925C52.9841 40.405 50.6755 40.2043 48.2213 41.5258C46.8849 42.2454 45.487 42.8519 44.1187 43.5092C42.5205 44.2772 42.1244 44.0189 42.2974 41.7034ZM62.1727 29.0488C61.4897 28.862 61.1437 28.7236 60.7885 28.6775C59.2836 28.4884 57.7788 28.2739 56.267 28.1793C55.4133 28.1263 54.8327 27.8357 54.4548 27.0562C53.7695 25.6424 53.0592 24.2425 52.3466 22.8426C51.9414 22.0446 51.5088 21.2628 50.9647 20.2434C50.605 20.8084 50.3773 21.1013 50.2179 21.4265C49.305 23.2808 48.4467 25.1627 47.4814 26.9893C47.2286 27.4644 46.7073 28.0248 46.2337 28.1101C44.2599 28.4584 42.2564 28.636 40.2666 28.892C40.0799 28.915 39.9091 29.058 39.6974 29.1618C40.6559 30.0059 41.5256 30.7947 42.4203 31.5534C44.1642 33.0295 44.9497 34.8491 44.5103 37.1669C44.2826 38.3731 44.1278 39.5954 43.9593 40.8109C43.9184 41.113 43.9525 41.4266 43.9525 41.9755C46.2201 40.7048 48.2623 39.6254 50.2361 38.4239C51.0808 37.9096 51.8321 37.7274 52.6585 38.2878C53.7581 39.035 54.8191 39.8468 55.9255 40.5825C56.5289 40.9815 57.1959 41.2813 58.052 41.7449C58.052 41.0415 58.0907 40.6656 58.0451 40.3012C57.8607 38.8159 57.6854 37.3284 57.4464 35.85C57.1595 34.0742 57.7287 32.7112 59.147 31.6342C60.1123 30.9031 60.9934 30.0659 62.1727 29.0488Z" fill="#041C33"/>
<path d="M24.8034 62.8082C24.8034 64.2381 24.833 65.6703 24.7852 67.0979C24.7716 67.5384 24.5462 67.972 24.4187 68.4102C23.9747 68.2165 23.36 68.1496 23.1164 67.8106C21.6115 65.6957 20.1659 63.5347 18.7612 61.3483C18.5449 61.0116 18.6359 60.4743 18.5858 60.0291C19.1459 60.1076 19.9154 59.9807 20.2251 60.3059C21.0037 61.1223 21.5774 62.1394 22.2308 63.0781C22.3902 63.3087 22.5427 63.5462 22.6975 63.7792C22.8114 63.763 22.9252 63.7492 23.039 63.733C23.1164 62.6145 23.212 61.4982 23.2667 60.3797C23.3077 59.5679 22.9252 58.5301 23.977 58.1887C25.047 57.8405 25.3476 58.8968 25.771 59.584C26.2924 60.4304 26.7363 61.3253 27.2645 62.1648C27.5104 62.5568 27.877 62.8728 28.1889 63.2234C28.3095 63.1818 28.4325 63.1426 28.5531 63.1011C28.5213 62.5684 28.5235 62.0287 28.4484 61.5006C28.2776 60.2851 28.0136 59.0813 27.9065 57.8635C27.8678 57.43 28.0659 56.8718 28.3505 56.5397C28.6396 56.203 29.3431 55.8363 29.457 56.6735C29.7825 59.0605 30.0079 61.4613 30.2128 63.8622C30.3244 65.1745 29.1997 65.4558 28.3346 65.8502C27.4626 66.2492 27.0118 65.4904 26.577 64.9415C26.026 64.245 25.5616 63.477 25.0584 62.739C24.9765 62.7644 24.8899 62.7874 24.8034 62.8082Z" fill="#041C33"/>
<path d="M52.9681 59.2265C52.7951 59.3811 52.7201 59.418 52.6905 59.4802C52.4787 59.9253 52.2761 60.3751 52.0689 60.8225C51.7912 60.3359 51.4588 59.8723 51.2425 59.3603C50.7758 58.2556 50.3683 57.1255 49.9357 56.007C49.774 56.0439 49.6147 56.0785 49.453 56.1154C49.5236 57.6929 49.5919 59.268 49.667 60.947C48.2031 61.685 47.3289 61.203 47.3539 59.3972C47.379 57.709 47.4086 56.0162 47.5383 54.3349C47.5793 53.8114 47.9163 52.9004 48.1713 52.8796C49.0797 52.8081 50.1224 52.4668 50.8168 53.6015C51.7456 55.1213 52.8066 56.5582 53.9472 58.2302C54.0633 57.7759 54.1635 57.5522 54.1703 57.3238C54.2113 56.0185 54.234 54.7154 54.2523 53.4101C54.2614 52.7528 54.5573 52.423 55.2221 52.4138C55.8869 52.4045 56.3514 52.6236 56.3445 53.3778C56.3286 55.834 56.3172 58.2902 56.2421 60.7464C56.2352 60.9678 55.6866 61.406 55.5386 61.3483C54.9694 61.1269 54.4162 60.7971 53.9404 60.4074C53.5602 60.0891 53.2914 59.6278 52.9681 59.2265Z" fill="#041C33"/>
<path d="M62.9195 57.9535C63.4818 56.7773 64.0715 55.6126 64.5974 54.418C65.0732 53.3363 65.3624 53.251 66.783 53.7976C67.746 54.1689 67.293 54.7593 67.1404 55.3866C66.6168 57.543 66.166 59.7155 65.6447 61.8719C65.565 62.204 65.2508 62.4784 65.0459 62.7805C64.923 62.4554 64.6953 62.1302 64.6998 61.805C64.7112 60.8087 64.8205 59.8147 64.8706 58.8183C64.8888 58.4678 64.8456 58.1149 64.8296 57.7621C64.7226 57.7436 64.6179 57.7229 64.5109 57.7044C64.3766 58.0273 64.2468 58.3548 64.1079 58.6754C63.7459 59.5171 63.4226 60.3797 62.9969 61.1869C62.8466 61.4729 62.4619 61.7635 62.1591 61.7934C61.9701 61.8119 61.6354 61.3852 61.5353 61.097C61.1027 59.84 60.7339 58.56 60.2353 56.941C60.06 57.7782 59.937 58.3248 59.83 58.8737C59.6843 59.6255 59.5364 60.3797 59.4134 61.1362C59.3019 61.8142 58.8465 61.978 58.3411 61.7427C58.0201 61.5928 57.5852 61.1431 57.6126 60.8686C57.8175 58.7699 58.1453 56.685 58.3912 54.5909C58.5323 53.387 59.1971 52.9788 60.3218 52.9996C61.4624 53.0203 61.4624 53.8206 61.6309 54.6417C61.8563 55.7418 62.2319 56.8096 62.5416 57.8889C62.6645 57.9097 62.792 57.9327 62.9195 57.9535Z" fill="#041C33"/>
<path d="M69.7335 64.1505C70.7831 61.4821 71.8327 58.9036 72.8026 56.2929C73.1054 55.4788 73.522 55.2735 74.2483 55.6264C75.2045 56.0876 76.1812 56.5166 77.0804 57.0747C77.3992 57.2708 77.6838 57.8104 77.6678 58.1794C77.6542 58.4793 77.1647 58.989 76.8915 58.9843C76.5591 58.9797 76.2221 58.5485 75.9034 58.2786C75.6735 58.0849 75.5004 57.732 75.2523 57.6744C74.9313 57.6006 74.5602 57.7505 74.2118 57.8035C74.3371 58.1425 74.4327 58.4954 74.6012 58.8091C74.6649 58.929 74.8948 58.9567 75.0747 59.0397C74.4236 59.3718 73.8453 59.667 73.267 59.9622C73.2943 60.1236 73.3239 60.2828 73.3512 60.4442C73.9933 60.5226 74.6353 60.5964 75.275 60.6841C75.7463 60.7486 76.4544 60.4811 76.3155 61.4313C76.1698 62.4322 75.5187 63.1034 74.7924 62.9119C74.4441 62.8197 74.1572 62.4945 73.8089 62.3792C73.5106 62.28 73.1646 62.3285 72.839 62.3123C72.8914 62.7643 72.8413 63.2671 73.0325 63.6453C73.1372 63.8552 73.6586 63.8275 73.966 63.9613C74.3257 64.1181 74.9381 64.3211 74.9472 64.5263C74.97 65.0222 74.8129 65.6195 74.5101 65.9978C74.3644 66.1777 73.6814 66.0531 73.3171 65.8917C72.0786 65.3428 70.8742 64.7132 69.7335 64.1505Z" fill="#041C33"/>
<path d="M35.8954 59.2542C36.4987 59.5979 37.1452 59.78 37.4913 60.2113C37.826 60.6287 38.0901 61.3806 37.9398 61.8349C37.8237 62.1878 37.0086 62.5037 36.5283 62.4691C36.1754 62.4438 35.7838 61.8741 35.5538 61.4636C35.358 61.1177 35.4377 60.6195 35.2647 60.2505C35.1395 59.9807 34.7638 59.6093 34.568 59.6486C34.2994 59.7016 33.9146 60.0868 33.901 60.3474C33.8623 61.0277 33.9898 61.7196 34.0626 62.4046C34.1446 63.1933 33.6392 63.4885 33.0313 63.4101C32.7695 63.3778 32.4371 62.8704 32.3619 62.5268C31.8998 60.4373 31.5674 58.3178 31.0551 56.2422C30.8275 55.3174 31.062 54.9184 31.918 54.81C32.7421 54.7062 33.5731 54.6439 34.4018 54.577C35.2442 54.5102 36.1071 54.4364 36.6034 55.3519C37.1407 56.339 37.1043 57.34 36.5579 58.3109C36.3803 58.6338 36.1367 58.9152 35.8954 59.2542ZM33.5709 56.9018C33.8759 57.3953 34.0877 57.7343 34.2971 58.0757C34.6136 57.7159 35.1122 57.3907 35.185 56.9848C35.2442 56.6665 34.7775 56.2491 34.5453 55.8755C34.2516 56.1845 33.9556 56.4936 33.5709 56.9018Z" fill="#041C33"/>
<path d="M78.4828 69.0513C76.3268 67.8543 76.0787 67.4231 76.6957 65.525C77.3673 63.4562 78.1778 61.4313 78.9359 59.3903C79.2023 58.6684 79.6053 58.4355 80.3133 58.9336C80.9303 59.3695 81.6406 59.6693 82.2553 60.1075C83.5553 61.037 83.7329 61.5974 83.3413 63.1495C82.8017 65.2921 82.2325 65.7279 80.0447 65.4005C79.0839 65.2575 78.8653 65.5688 78.8608 66.4752C78.8585 67.2801 78.6353 68.0827 78.4828 69.0513ZM79.1158 63.7099C80.3634 63.9498 81.0487 63.4401 81.3424 62.5637C81.4562 62.2224 81.0282 61.6942 80.8483 61.2514C80.5 61.4336 80.0105 61.5305 79.8352 61.8211C79.5119 62.3446 79.3753 62.9881 79.1158 63.7099Z" fill="#041C33"/>
<path d="M43.8728 60.6726C43.8523 59.2542 43.7773 59.238 42.368 59.2334C41.2524 59.2311 41.2183 59.9138 41.3549 60.6864C41.4869 61.4313 41.2342 61.768 40.5102 61.8349C39.9297 61.888 39.3514 61.9848 38.6479 62.0794C39.2763 59.2311 39.7976 56.5374 40.5262 53.9013C40.6491 53.4539 41.6417 53.1333 42.2815 53.0111C42.5684 52.9557 43.1216 53.4539 43.3014 53.8275C44.1119 55.518 44.8427 57.2477 45.5827 58.9705C46.1996 60.4096 46.0813 60.5895 44.5217 60.6726C44.3032 60.6818 44.0845 60.6726 43.8728 60.6726ZM42.4864 55.2689C42.3475 55.2851 42.2109 55.3012 42.072 55.3174C41.965 56.0139 41.7988 56.7081 41.792 57.4069C41.7897 57.5798 42.2952 57.875 42.5797 57.8912C42.7573 57.9004 43.1512 57.4553 43.1148 57.2823C42.9759 56.595 42.7072 55.9378 42.4864 55.2689Z" fill="#041C33"/>
<path d="M68.5998 63.6177C68.0306 63.4493 67.4637 63.3479 66.9674 63.1034C66.7739 63.0065 66.5986 62.5499 66.6555 62.317C67.1518 60.2275 67.6618 58.1403 68.2514 56.0738C68.5019 55.1975 68.6681 54.1066 70.0386 54.2842C70.7171 54.3718 70.9766 54.6393 70.7763 55.352C70.1843 57.4576 69.6197 59.5702 69.0551 61.6827C68.898 62.2639 68.7773 62.8566 68.5998 63.6177Z" fill="#041C33"/>
<path d="M52.1076 4.32773C52.1076 5.08419 52.1076 5.84295 52.1076 6.59942C52.2032 6.6317 52.2988 6.66399 52.3945 6.69628C52.7109 6.15892 53.0274 5.61924 53.3894 5.00347C53.3894 6.18198 53.4053 7.21981 53.3279 8.25302C53.3256 8.29223 52.3876 8.35219 51.9369 8.22535C51.7274 8.16538 51.6386 7.67414 51.395 7.16676C51.1059 8.46751 50.2908 8.72812 49.3915 8.43291C48.8998 8.27147 48.5401 7.70182 47.9163 7.12986C47.7592 7.3628 47.4882 7.7664 47.2196 8.16769C47.1968 8.08697 47.1718 8.00625 47.149 7.92783C46.2657 8.283 45.3573 8.59205 44.5035 9.00948C43.8137 9.34851 43.5245 9.17554 43.4358 8.44675C43.3242 7.53346 43.1284 6.62478 43.1102 5.70919C43.1034 5.37247 43.4972 5.02883 43.7067 4.6875C43.9503 4.97348 44.2986 5.22026 44.4147 5.55006C44.6265 6.1543 44.7016 6.80929 44.8336 7.44121C44.9702 7.44352 45.1068 7.44582 45.2434 7.44813C45.5053 6.71934 45.7306 5.97211 46.0471 5.26869C46.186 4.96426 46.5184 4.74977 46.7643 4.49378C46.9692 4.74516 47.2014 4.97579 47.3698 5.24793C47.6317 5.66998 47.8502 6.12201 48.2395 6.83927C48.6266 5.80605 48.8838 5.12109 49.1411 4.43843C49.2663 4.4661 49.3893 4.49608 49.5145 4.52376C49.5145 5.50624 49.5145 6.49102 49.5145 7.55191C50.6551 7.40662 50.5094 6.48871 50.8076 5.91906C51.1059 5.3471 51.3518 4.74747 51.6227 4.15937C51.782 4.21472 51.9437 4.27007 52.1076 4.32773Z" fill="#041C33"/>
<path d="M72.6136 15.6193C70.7718 15.4717 69.654 14.2909 68.6773 13.0547C68.0011 12.1991 68.9095 11.5095 69.3717 10.8522C69.7564 10.3033 70.2778 10.0266 70.938 10.4394C71.259 10.64 71.5937 10.8268 71.8874 11.0667C73.2283 12.1553 73.2078 12.9048 71.835 13.9565C71.6916 14.0672 71.5573 14.1894 71.4776 14.4362C72.2357 14.5215 72.8322 14.1779 73.3171 13.6128C73.7725 13.0824 74.1845 12.8218 74.8266 13.403C75.5073 14.0187 75.2682 14.4915 74.7947 15.0566C74.435 15.4832 74.1527 15.9768 73.8362 16.4403C73.9387 16.5349 74.0388 16.6271 74.1413 16.7217C74.7947 16.3135 75.4367 15.8845 76.1083 15.5086C76.3041 15.3979 76.5773 15.4163 76.8141 15.414C76.8551 15.414 76.9598 15.6723 76.9325 15.7C76.7617 15.8615 76.5705 16.0091 76.3679 16.129C75.9171 16.3942 75.4344 16.6087 75.0019 16.897C73.8157 17.6903 73.2101 17.4874 72.7457 16.1013C72.6933 15.956 72.6637 15.8084 72.6136 15.6193ZM71.8783 12.5035C71.5254 12.1922 71.2044 11.8416 71.152 11.8762C70.7946 12.1276 70.4485 12.4297 70.2095 12.7918C70.1503 12.8817 70.5054 13.2507 70.6693 13.4906C71.0245 13.2023 71.3774 12.914 71.8783 12.5035Z" fill="#041C33"/>
<path d="M81.6975 22.3952C81.9707 23.0363 82.2234 23.6152 82.4647 24.201C82.6309 24.5977 82.7265 25.0382 82.9519 25.3957C83.5302 26.3159 83.1204 27.5543 82.0936 27.8611C82.0208 27.8818 81.9456 27.8957 81.8728 27.9164C79.7555 28.5345 79.7987 28.523 79.1931 26.3505C78.9928 25.6309 78.5124 24.9921 78.2597 24.5054C79.4663 23.7651 80.4795 23.1447 81.6975 22.3952ZM81.611 24.7384C80.8551 24.4639 80.2859 24.7107 79.8443 25.2988C79.7851 25.3772 79.9331 25.6171 79.9854 25.7808C80.4954 25.5594 81.0099 25.3449 81.5108 25.1051C81.5723 25.0774 81.57 24.9067 81.611 24.7384ZM80.2859 26.9639C81.4994 27.3929 82.1574 26.9939 82.3258 25.9376C81.6155 26.2951 80.9507 26.6295 80.2859 26.9639Z" fill="#041C33"/>
<path d="M38.4521 9.38311C38.3019 10.1649 38.1994 10.7069 38.0946 11.2489C37.7509 10.8199 37.316 10.437 37.0815 9.95272C35.8339 7.38352 35.8521 7.37429 38.484 6.38951C39.8568 5.87521 39.809 5.89596 40.3463 7.26129C40.6855 8.12384 41.2 8.91489 41.6918 9.83971C41.0202 10.3909 40.2393 10.7899 39.3354 9.76591C39.1283 9.53298 38.7094 9.48919 38.4521 9.38311ZM37.5004 8.35447C37.612 8.53205 37.7235 8.70733 37.8351 8.88491C38.2904 8.63353 38.7458 8.37983 39.2034 8.12845C39.0486 7.89782 38.896 7.6695 38.7412 7.43887C38.3269 7.7433 37.9148 8.05004 37.5004 8.35447Z" fill="#041C33"/>
<path d="M62.9878 7.50348C63.0539 8.89417 62.4459 10.2664 61.7447 10.3125C60.1009 10.4186 58.3593 9.34159 58.3183 8.19075C58.2682 6.82543 59.3132 5.30559 60.3354 5.26177C61.8927 5.19719 62.9195 6.06436 62.9878 7.50348ZM60.6678 9.6045C61.2142 8.71428 61.6605 8.12387 61.9132 7.45735C61.9633 7.3259 61.0298 6.60403 60.9547 6.66399C60.4516 7.07451 59.9234 7.56805 59.6911 8.15385C59.5932 8.39832 60.192 8.92876 60.6678 9.6045Z" fill="#041C33"/>
<path d="M22.5564 18.3499C23.0368 19.0441 23.3715 19.5192 23.697 19.9989C23.9793 20.4141 24.2799 20.9768 24.8126 20.4464C25.0016 20.2572 24.9219 19.6346 24.7739 19.2955C24.5348 18.7443 24.1068 18.2785 23.8245 17.7388C23.7289 17.5566 23.779 17.0838 23.8678 17.0538C24.1068 16.9731 24.5348 16.9477 24.6487 17.093C25.2998 17.9325 25.8826 18.825 26.4859 19.7014C26.5064 19.7314 26.5315 19.7914 26.5201 19.8075C25.8257 20.6355 25.1678 21.5003 24.4005 22.2545C24.2093 22.4413 23.6538 22.3306 23.2963 22.236C22.9412 22.1415 22.6156 21.9109 22.2923 21.7148C20.9035 20.8684 20.9172 20.8753 21.985 19.6392C22.1921 19.3947 22.2604 19.0303 22.5564 18.3499Z" fill="#041C33"/>
<path d="M62.2593 10.9191C63.3362 9.62988 64.199 8.54362 65.1325 7.52424C65.3032 7.33743 65.7631 7.36972 66.0841 7.39278C66.3345 7.41123 66.5895 7.54269 66.8218 7.66723C68.9163 8.79731 69.037 10.8868 67.0745 12.3213C66.8878 12.4574 66.519 12.5635 66.355 12.4712C65.7312 12.1161 65.1575 11.6709 64.5656 11.2604C64.6248 11.152 64.684 11.0436 64.7409 10.9329C65.1165 11.1151 65.4945 11.295 66.1069 11.5925C66.4097 10.8753 66.7626 10.1834 66.9766 9.44768C67.0403 9.22859 66.7648 8.72812 66.544 8.65201C66.2594 8.55515 65.7813 8.6474 65.5559 8.85035C65.1712 9.20091 64.9139 9.69676 64.6134 10.1396C64.1353 10.8407 63.4887 11.0967 62.2593 10.9191Z" fill="#041C33"/>
<path d="M77.7111 16.8739C79.776 18.629 79.6167 19.3393 76.7253 21.8048C76.3132 21.1636 75.8374 20.5617 75.5278 19.8836C75.3934 19.5907 75.4708 19.0142 75.6803 18.7766C76.2791 18.0963 76.9985 17.5266 77.7111 16.8739Z" fill="#041C33"/>
<path d="M19.278 24.5723C19.8449 25.4579 20.521 25.7923 21.2381 24.8398C21.4043 24.6207 21.4863 24.1064 21.3497 23.9242C20.6803 23.0156 20.1681 23.7144 19.6695 24.2817C19.5534 24.2264 19.4396 24.171 19.3234 24.1157C19.4714 23.5368 19.5079 22.8795 19.8198 22.4113C19.9518 22.213 20.6849 22.326 21.1015 22.4482C21.5227 22.5728 21.8733 22.9233 22.2831 23.1078C23.3463 23.5898 23.3941 23.8343 22.5882 24.7199C22.1101 25.2457 21.2176 25.5087 21.4271 26.5027C21.4385 26.558 21.3656 26.641 21.3178 26.6964C21.0173 27.0423 19.3553 26.6065 18.8613 26.0137C18.3604 25.4118 18.6861 24.9944 19.278 24.5723Z" fill="#041C33"/>
<path d="M57.1687 8.5367C56.4424 9.21475 54.5459 9.07406 54.0838 8.58513C54.0314 8.52978 53.9813 8.46982 53.9494 8.40524C53.7377 7.98319 54.2841 4.77284 54.6916 4.60218C55.2107 4.38539 55.8118 4.33695 56.3787 4.3162C56.431 4.31389 56.5107 5.01961 56.5767 5.38631C55.8323 5.38631 55.3519 5.38631 54.8692 5.38631C54.8578 5.52008 54.8487 5.65384 54.8373 5.78761C55.2449 5.88908 55.6501 5.99056 56.2603 6.14277C55.9825 6.49102 55.7685 6.74933 55.5704 7.01686C55.3564 7.30514 55.1584 7.60265 54.9535 7.89555C55.3109 8.05469 55.6547 8.25533 56.0281 8.36373C56.3946 8.46751 56.7862 8.48135 57.1687 8.5367Z" fill="#041C33"/>
<path d="M30.42 11.1797C31.0552 10.6193 31.5424 10.1696 32.0683 9.77518C32.0956 9.75443 32.535 10.1534 32.642 10.414C32.9972 11.2766 33.3205 12.1553 33.5891 13.0501C33.6711 13.3199 33.5777 13.908 33.4981 13.9219C33.02 13.9957 32.2869 14.1502 32.0751 13.9011C31.4627 13.1723 31.0552 12.266 30.42 11.1797Z" fill="#041C33"/>
<path d="M28.799 17.5866C27.795 18.9496 27.1439 18.9726 26.108 17.6188C25.0721 16.2627 25.0357 15.7923 25.8189 15.0796C26.281 14.6599 26.5793 14.759 26.923 15.218C27.5059 15.9906 28.1229 16.7355 28.799 17.5866Z" fill="#041C33"/>
<path d="M34.2927 8.17C35.3354 9.36235 36.2551 10.4117 37.209 11.5026C36.7332 11.7978 36.2778 12.1183 35.7884 12.3651C35.6335 12.4435 35.3444 12.3951 35.1873 12.2913C34.2994 11.717 33.7326 9.55608 34.2927 8.17Z" fill="#041C33"/>
<path d="M21.6184 28.41C21.3429 28.4838 21.0606 28.6383 20.7942 28.6175C19.7765 28.5345 18.7589 28.4284 17.7549 28.2485C17.493 28.2024 17.2836 27.8541 17.0491 27.6466C17.3382 27.3952 17.682 26.8832 17.9097 26.9316C19.1755 27.1968 20.4163 27.5958 21.6639 27.951C21.648 28.1009 21.6321 28.2554 21.6184 28.41Z" fill="#041C33"/>
<path d="M78.0207 23.6336C77.3559 23.0663 77.6905 22.605 78.1003 22.1645C78.6376 21.588 79.1544 20.9837 79.7532 20.4786C79.9194 20.338 80.5705 20.4325 80.6092 20.5501C80.7344 20.9307 80.8528 21.5787 80.657 21.7494C79.8648 22.4367 78.9542 22.9856 78.0207 23.6336Z" fill="#041C33"/>
<path d="M29.7917 16.5372C29.4502 16.3158 28.9811 16.1751 28.7945 15.8592C28.4097 15.2134 28.1115 14.4915 27.9134 13.7627C27.8451 13.5068 28.1798 13.1377 28.33 12.8195C28.5759 12.9948 28.9402 13.117 29.0449 13.3568C29.4479 14.2863 29.7689 15.2526 30.1218 16.2051C30.0102 16.3181 29.901 16.4265 29.7917 16.5372Z" fill="#041C33"/>
<path d="M29.7143 11.8716C30.3859 12.7895 31.0802 13.6912 31.704 14.6414C31.8065 14.7959 31.6676 15.3195 31.5151 15.3887C31.3056 15.4832 30.823 15.3956 30.7273 15.2272C30.165 14.2424 29.6801 13.2115 29.1678 12.1944C29.35 12.0884 29.5321 11.98 29.7143 11.8716Z" fill="#041C33"/>
<path d="M62.1727 29.0488C60.9934 30.0636 60.1124 30.903 59.1516 31.6341C57.7332 32.7112 57.1618 34.0742 57.4509 35.85C57.69 37.3261 57.8676 38.8136 58.0497 40.3012C58.0952 40.6679 58.0565 41.0438 58.0565 41.7449C57.2005 41.2836 56.5312 40.9838 55.9301 40.5825C54.8214 39.8468 53.7627 39.0373 52.6631 38.2878C51.8389 37.7273 51.0854 37.9095 50.2407 38.4238C48.2668 39.6231 46.2247 40.7048 43.9571 41.9755C43.9571 41.4266 43.9207 41.113 43.9639 40.8108C44.1324 39.5931 44.2872 38.3731 44.5149 37.1669C44.952 34.8491 44.1665 33.0317 42.4249 31.5534C41.5302 30.7947 40.6605 30.0059 39.702 29.1618C39.9137 29.058 40.0868 28.915 40.2712 28.892C42.261 28.636 44.2644 28.4584 46.2383 28.1101C46.7119 28.0271 47.2332 27.4667 47.4859 26.9893C48.4512 25.165 49.3096 23.2808 50.2225 21.4265C50.3819 21.1013 50.6095 20.8084 50.9692 20.2434C51.5111 21.2605 51.9437 22.0446 52.3512 22.8426C53.0638 24.2425 53.7741 25.6424 54.4594 27.0562C54.8373 27.8334 55.4179 28.1263 56.2716 28.1793C57.7833 28.2739 59.2882 28.4884 60.7931 28.6775C61.1437 28.7236 61.4897 28.862 62.1727 29.0488Z" fill="white"/>
<path d="M33.5709 56.9018C33.9556 56.4959 34.2516 56.1845 34.5453 55.8732C34.7775 56.2468 35.2442 56.6643 35.185 56.9825C35.1099 57.3884 34.6113 57.7136 34.2971 58.0734C34.0854 57.7344 33.8759 57.3953 33.5709 56.9018Z" fill="white"/>
<path d="M79.1158 63.7099C79.3753 62.9858 79.5119 62.3446 79.8329 61.8188C80.0105 61.5282 80.5 61.4337 80.8461 61.2492C81.0259 61.692 81.4539 62.2201 81.3401 62.5614C81.0487 63.4401 80.3634 63.9498 79.1158 63.7099Z" fill="white"/>
<path d="M42.4864 55.2689C42.7072 55.9378 42.9759 56.595 43.1148 57.28C43.1489 57.453 42.7573 57.8981 42.5798 57.8889C42.2952 57.8727 41.7897 57.5775 41.792 57.4045C41.7989 56.708 41.9651 56.0115 42.0721 55.315C42.2109 55.3012 42.3475 55.2851 42.4864 55.2689Z" fill="white"/>
<path d="M71.8783 12.5035C71.3774 12.914 71.0244 13.2046 70.6715 13.4929C70.5076 13.2531 70.1525 12.884 70.2117 12.7941C70.4507 12.432 70.7968 12.1299 71.1542 11.8785C71.2043 11.8393 71.5254 12.1922 71.8783 12.5035Z" fill="white"/>
<path d="M81.611 24.7384C81.5677 24.9067 81.5723 25.0751 81.5108 25.1051C81.0099 25.3449 80.4954 25.5594 79.9854 25.7808C79.9331 25.6148 79.7851 25.3772 79.8443 25.2988C80.2859 24.7107 80.8551 24.4662 81.611 24.7384Z" fill="white"/>
<path d="M80.2859 26.9639C80.9507 26.6295 81.6178 26.2951 82.3258 25.9376C82.1574 26.9939 81.4994 27.3929 80.2859 26.9639Z" fill="white"/>
<path d="M37.5004 8.35447C37.9125 8.05004 38.3269 7.74333 38.739 7.4389C38.8938 7.66953 39.0463 7.89785 39.2011 8.12848C38.7458 8.37986 38.2905 8.63355 37.8329 8.88494C37.7236 8.70735 37.612 8.53205 37.5004 8.35447Z" fill="white"/>
<path d="M60.6678 9.6045C60.192 8.92876 59.5933 8.39832 59.6912 8.15155C59.9234 7.56806 60.4516 7.07452 60.9548 6.66169C61.0276 6.60173 61.9633 7.3236 61.9132 7.45505C61.6605 8.12157 61.2142 8.71428 60.6678 9.6045Z" fill="white"/>
</svg>
